<?xml version="1.0" encoding="utf-8" standalone="no"?>
<!DOCTYPE svg PUBLIC "-//W3C//DTD SVG 1.1//EN"
  "http://www.w3.org/Graphics/SVG/1.1/DTD/svg11.dtd">
<svg height="576pt" version="1.1" viewBox="0 0 576 576" width="576pt" xmlns="http://www.w3.org/2000/svg" xmlns:xlink="http://www.w3.org/1999/xlink">
 <metadata>
  <rdf:RDF xmlns:cc="http://creativecommons.org/ns#" xmlns:dc="http://purl.org/dc/elements/1.1/" xmlns:rdf="http://www.w3.org/1999/02/22-rdf-syntax-ns#">
   <cc:Work>
    <dc:type rdf:resource="http://purl.org/dc/dcmitype/StillImage"/>
    <dc:date>2025-11-01T12:46:58.844434</dc:date>
    <dc:format>image/svg+xml</dc:format>
    <dc:creator>
     <cc:Agent>
      <dc:title>Matplotlib v3.4.3, https://matplotlib.org/</dc:title>
     </cc:Agent>
    </dc:creator>
   </cc:Work>
  </rdf:RDF>
 </metadata>
 <defs>
  <style type="text/css">*{stroke-linecap:butt;stroke-linejoin:round;}</style>
 </defs>
 <g id="figure_1">
  <g id="patch_1">
   <path d="M 0 576 
L 576 576 
L 576 0 
L 0 0 
z
" style="fill:none;"/>
  </g>
  <g id="axes_1">
   <g id="patch_2">
    <path d="M 72 504 
L 518.4 504 
L 518.4 69.12 
L 72 69.12 
z
" style="fill:#ffffff;"/>
   </g>
   <g id="matplotlib.axis_1">
    <g id="xtick_1">
     <g id="line2d_1">
      <defs>
       <path d="M 0 0 
L 0 3.5 
" id="m3b15425aa6" style="stroke:#000000;stroke-width:0.8;"/>
      </defs>
      <g>
       <use style="stroke:#000000;stroke-width:0.8;" x="72" xlink:href="#m3b15425aa6" y="504"/>
      </g>
     </g>
     <g id="text_1">
      <!-- 0 -->
      <g transform="translate(66.91 523.1575)scale(0.16 -0.16)">
       <defs>
        <path d="M 2034 4250 
Q 1547 4250 1301 3770 
Q 1056 3291 1056 2328 
Q 1056 1369 1301 889 
Q 1547 409 2034 409 
Q 2525 409 2770 889 
Q 3016 1369 3016 2328 
Q 3016 3291 2770 3770 
Q 2525 4250 2034 4250 
z
M 2034 4750 
Q 2819 4750 3233 4129 
Q 3647 3509 3647 2328 
Q 3647 1150 3233 529 
Q 2819 -91 2034 -91 
Q 1250 -91 836 529 
Q 422 1150 422 2328 
Q 422 3509 836 4129 
Q 1250 4750 2034 4750 
z
" id="DejaVuSans-30" transform="scale(0.015625)"/>
       </defs>
       <use xlink:href="#DejaVuSans-30"/>
      </g>
     </g>
    </g>
    <g id="xtick_2">
     <g id="line2d_2">
      <g>
       <use style="stroke:#000000;stroke-width:0.8;" x="131.52" xlink:href="#m3b15425aa6" y="504"/>
      </g>
     </g>
     <g id="text_2">
      <!-- 20 -->
      <g transform="translate(121.34 523.1575)scale(0.16 -0.16)">
       <defs>
        <path d="M 1228 531 
L 3431 531 
L 3431 0 
L 469 0 
L 469 531 
Q 828 903 1448 1529 
Q 2069 2156 2228 2338 
Q 2531 2678 2651 2914 
Q 2772 3150 2772 3378 
Q 2772 3750 2511 3984 
Q 2250 4219 1831 4219 
Q 1534 4219 1204 4116 
Q 875 4013 500 3803 
L 500 4441 
Q 881 4594 1212 4672 
Q 1544 4750 1819 4750 
Q 2544 4750 2975 4387 
Q 3406 4025 3406 3419 
Q 3406 3131 3298 2873 
Q 3191 2616 2906 2266 
Q 2828 2175 2409 1742 
Q 1991 1309 1228 531 
z
" id="DejaVuSans-32" transform="scale(0.015625)"/>
       </defs>
       <use xlink:href="#DejaVuSans-32"/>
       <use x="63.623047" xlink:href="#DejaVuSans-30"/>
      </g>
     </g>
    </g>
    <g id="xtick_3">
     <g id="line2d_3">
      <g>
       <use style="stroke:#000000;stroke-width:0.8;" x="191.04" xlink:href="#m3b15425aa6" y="504"/>
      </g>
     </g>
     <g id="text_3">
      <!-- 40 -->
      <g transform="translate(180.86 523.1575)scale(0.16 -0.16)">
       <defs>
        <path d="M 2419 4116 
L 825 1625 
L 2419 1625 
L 2419 4116 
z
M 2253 4666 
L 3047 4666 
L 3047 1625 
L 3713 1625 
L 3713 1100 
L 3047 1100 
L 3047 0 
L 2419 0 
L 2419 1100 
L 313 1100 
L 313 1709 
L 2253 4666 
z
" id="DejaVuSans-34" transform="scale(0.015625)"/>
       </defs>
       <use xlink:href="#DejaVuSans-34"/>
       <use x="63.623047" xlink:href="#DejaVuSans-30"/>
      </g>
     </g>
    </g>
    <g id="xtick_4">
     <g id="line2d_4">
      <g>
       <use style="stroke:#000000;stroke-width:0.8;" x="250.56" xlink:href="#m3b15425aa6" y="504"/>
      </g>
     </g>
     <g id="text_4">
      <!-- 60 -->
      <g transform="translate(240.38 523.1575)scale(0.16 -0.16)">
       <defs>
        <path d="M 2113 2584 
Q 1688 2584 1439 2293 
Q 1191 2003 1191 1497 
Q 1191 994 1439 701 
Q 1688 409 2113 409 
Q 2538 409 2786 701 
Q 3034 994 3034 1497 
Q 3034 2003 2786 2293 
Q 2538 2584 2113 2584 
z
M 3366 4563 
L 3366 3988 
Q 3128 4100 2886 4159 
Q 2644 4219 2406 4219 
Q 1781 4219 1451 3797 
Q 1122 3375 1075 2522 
Q 1259 2794 1537 2939 
Q 1816 3084 2150 3084 
Q 2853 3084 3261 2657 
Q 3669 2231 3669 1497 
Q 3669 778 3244 343 
Q 2819 -91 2113 -91 
Q 1303 -91 875 529 
Q 447 1150 447 2328 
Q 447 3434 972 4092 
Q 1497 4750 2381 4750 
Q 2619 4750 2861 4703 
Q 3103 4656 3366 4563 
z
" id="DejaVuSans-36" transform="scale(0.015625)"/>
       </defs>
       <use xlink:href="#DejaVuSans-36"/>
       <use x="63.623047" xlink:href="#DejaVuSans-30"/>
      </g>
     </g>
    </g>
    <g id="xtick_5">
     <g id="line2d_5">
      <g>
       <use style="stroke:#000000;stroke-width:0.8;" x="310.08" xlink:href="#m3b15425aa6" y="504"/>
      </g>
     </g>
     <g id="text_5">
      <!-- 80 -->
      <g transform="translate(299.9 523.1575)scale(0.16 -0.16)">
       <defs>
        <path d="M 2034 2216 
Q 1584 2216 1326 1975 
Q 1069 1734 1069 1313 
Q 1069 891 1326 650 
Q 1584 409 2034 409 
Q 2484 409 2743 651 
Q 3003 894 3003 1313 
Q 3003 1734 2745 1975 
Q 2488 2216 2034 2216 
z
M 1403 2484 
Q 997 2584 770 2862 
Q 544 3141 544 3541 
Q 544 4100 942 4425 
Q 1341 4750 2034 4750 
Q 2731 4750 3128 4425 
Q 3525 4100 3525 3541 
Q 3525 3141 3298 2862 
Q 3072 2584 2669 2484 
Q 3125 2378 3379 2068 
Q 3634 1759 3634 1313 
Q 3634 634 3220 271 
Q 2806 -91 2034 -91 
Q 1263 -91 848 271 
Q 434 634 434 1313 
Q 434 1759 690 2068 
Q 947 2378 1403 2484 
z
M 1172 3481 
Q 1172 3119 1398 2916 
Q 1625 2713 2034 2713 
Q 2441 2713 2670 2916 
Q 2900 3119 2900 3481 
Q 2900 3844 2670 4047 
Q 2441 4250 2034 4250 
Q 1625 4250 1398 4047 
Q 1172 3844 1172 3481 
z
" id="DejaVuSans-38" transform="scale(0.015625)"/>
       </defs>
       <use xlink:href="#DejaVuSans-38"/>
       <use x="63.623047" xlink:href="#DejaVuSans-30"/>
      </g>
     </g>
    </g>
    <g id="xtick_6">
     <g id="line2d_6">
      <g>
       <use style="stroke:#000000;stroke-width:0.8;" x="369.6" xlink:href="#m3b15425aa6" y="504"/>
      </g>
     </g>
     <g id="text_6">
      <!-- 100 -->
      <g transform="translate(354.33 523.1575)scale(0.16 -0.16)">
       <defs>
        <path d="M 794 531 
L 1825 531 
L 1825 4091 
L 703 3866 
L 703 4441 
L 1819 4666 
L 2450 4666 
L 2450 531 
L 3481 531 
L 3481 0 
L 794 0 
L 794 531 
z
" id="DejaVuSans-31" transform="scale(0.015625)"/>
       </defs>
       <use xlink:href="#DejaVuSans-31"/>
       <use x="63.623047" xlink:href="#DejaVuSans-30"/>
       <use x="127.246094" xlink:href="#DejaVuSans-30"/>
      </g>
     </g>
    </g>
    <g id="xtick_7">
     <g id="line2d_7">
      <g>
       <use style="stroke:#000000;stroke-width:0.8;" x="429.12" xlink:href="#m3b15425aa6" y="504"/>
      </g>
     </g>
     <g id="text_7">
      <!-- 120 -->
      <g transform="translate(413.85 523.1575)scale(0.16 -0.16)">
       <use xlink:href="#DejaVuSans-31"/>
       <use x="63.623047" xlink:href="#DejaVuSans-32"/>
       <use x="127.246094" xlink:href="#DejaVuSans-30"/>
      </g>
     </g>
    </g>
    <g id="xtick_8">
     <g id="line2d_8">
      <g>
       <use style="stroke:#000000;stroke-width:0.8;" x="488.64" xlink:href="#m3b15425aa6" y="504"/>
      </g>
     </g>
     <g id="text_8">
      <!-- 140 -->
      <g transform="translate(473.37 523.1575)scale(0.16 -0.16)">
       <use xlink:href="#DejaVuSans-31"/>
       <use x="63.623047" xlink:href="#DejaVuSans-34"/>
       <use x="127.246094" xlink:href="#DejaVuSans-30"/>
      </g>
     </g>
    </g>
    <g id="text_9">
     <!-- time $t$ [units of infectious period $1/\mu_c$] -->
     <g transform="translate(106.8 545.685)scale(0.2 -0.2)">
      <defs>
       <path d="M 1172 4494 
L 1172 3500 
L 2356 3500 
L 2356 3053 
L 1172 3053 
L 1172 1153 
Q 1172 725 1289 603 
Q 1406 481 1766 481 
L 2356 481 
L 2356 0 
L 1766 0 
Q 1100 0 847 248 
Q 594 497 594 1153 
L 594 3053 
L 172 3053 
L 172 3500 
L 594 3500 
L 594 4494 
L 1172 4494 
z
" id="DejaVuSans-74" transform="scale(0.015625)"/>
       <path d="M 603 3500 
L 1178 3500 
L 1178 0 
L 603 0 
L 603 3500 
z
M 603 4863 
L 1178 4863 
L 1178 4134 
L 603 4134 
L 603 4863 
z
" id="DejaVuSans-69" transform="scale(0.015625)"/>
       <path d="M 3328 2828 
Q 3544 3216 3844 3400 
Q 4144 3584 4550 3584 
Q 5097 3584 5394 3201 
Q 5691 2819 5691 2113 
L 5691 0 
L 5113 0 
L 5113 2094 
Q 5113 2597 4934 2840 
Q 4756 3084 4391 3084 
Q 3944 3084 3684 2787 
Q 3425 2491 3425 1978 
L 3425 0 
L 2847 0 
L 2847 2094 
Q 2847 2600 2669 2842 
Q 2491 3084 2119 3084 
Q 1678 3084 1418 2786 
Q 1159 2488 1159 1978 
L 1159 0 
L 581 0 
L 581 3500 
L 1159 3500 
L 1159 2956 
Q 1356 3278 1631 3431 
Q 1906 3584 2284 3584 
Q 2666 3584 2933 3390 
Q 3200 3197 3328 2828 
z
" id="DejaVuSans-6d" transform="scale(0.015625)"/>
       <path d="M 3597 1894 
L 3597 1613 
L 953 1613 
Q 991 1019 1311 708 
Q 1631 397 2203 397 
Q 2534 397 2845 478 
Q 3156 559 3463 722 
L 3463 178 
Q 3153 47 2828 -22 
Q 2503 -91 2169 -91 
Q 1331 -91 842 396 
Q 353 884 353 1716 
Q 353 2575 817 3079 
Q 1281 3584 2069 3584 
Q 2775 3584 3186 3129 
Q 3597 2675 3597 1894 
z
M 3022 2063 
Q 3016 2534 2758 2815 
Q 2500 3097 2075 3097 
Q 1594 3097 1305 2825 
Q 1016 2553 972 2059 
L 3022 2063 
z
" id="DejaVuSans-65" transform="scale(0.015625)"/>
       <path id="DejaVuSans-20" transform="scale(0.015625)"/>
       <path d="M 2706 3500 
L 2619 3053 
L 1472 3053 
L 1100 1153 
Q 1081 1047 1072 975 
Q 1063 903 1063 863 
Q 1063 663 1183 572 
Q 1303 481 1569 481 
L 2150 481 
L 2053 0 
L 1503 0 
Q 991 0 739 200 
Q 488 400 488 806 
Q 488 878 497 964 
Q 506 1050 525 1153 
L 897 3053 
L 409 3053 
L 500 3500 
L 978 3500 
L 1172 4494 
L 1747 4494 
L 1556 3500 
L 2706 3500 
z
" id="DejaVuSans-Oblique-74" transform="scale(0.015625)"/>
       <path d="M 550 4863 
L 1875 4863 
L 1875 4416 
L 1125 4416 
L 1125 -397 
L 1875 -397 
L 1875 -844 
L 550 -844 
L 550 4863 
z
" id="DejaVuSans-5b" transform="scale(0.015625)"/>
       <path d="M 544 1381 
L 544 3500 
L 1119 3500 
L 1119 1403 
Q 1119 906 1312 657 
Q 1506 409 1894 409 
Q 2359 409 2629 706 
Q 2900 1003 2900 1516 
L 2900 3500 
L 3475 3500 
L 3475 0 
L 2900 0 
L 2900 538 
Q 2691 219 2414 64 
Q 2138 -91 1772 -91 
Q 1169 -91 856 284 
Q 544 659 544 1381 
z
M 1991 3584 
L 1991 3584 
z
" id="DejaVuSans-75" transform="scale(0.015625)"/>
       <path d="M 3513 2113 
L 3513 0 
L 2938 0 
L 2938 2094 
Q 2938 2591 2744 2837 
Q 2550 3084 2163 3084 
Q 1697 3084 1428 2787 
Q 1159 2491 1159 1978 
L 1159 0 
L 581 0 
L 581 3500 
L 1159 3500 
L 1159 2956 
Q 1366 3272 1645 3428 
Q 1925 3584 2291 3584 
Q 2894 3584 3203 3211 
Q 3513 2838 3513 2113 
z
" id="DejaVuSans-6e" transform="scale(0.015625)"/>
       <path d="M 2834 3397 
L 2834 2853 
Q 2591 2978 2328 3040 
Q 2066 3103 1784 3103 
Q 1356 3103 1142 2972 
Q 928 2841 928 2578 
Q 928 2378 1081 2264 
Q 1234 2150 1697 2047 
L 1894 2003 
Q 2506 1872 2764 1633 
Q 3022 1394 3022 966 
Q 3022 478 2636 193 
Q 2250 -91 1575 -91 
Q 1294 -91 989 -36 
Q 684 19 347 128 
L 347 722 
Q 666 556 975 473 
Q 1284 391 1588 391 
Q 1994 391 2212 530 
Q 2431 669 2431 922 
Q 2431 1156 2273 1281 
Q 2116 1406 1581 1522 
L 1381 1569 
Q 847 1681 609 1914 
Q 372 2147 372 2553 
Q 372 3047 722 3315 
Q 1072 3584 1716 3584 
Q 2034 3584 2315 3537 
Q 2597 3491 2834 3397 
z
" id="DejaVuSans-73" transform="scale(0.015625)"/>
       <path d="M 1959 3097 
Q 1497 3097 1228 2736 
Q 959 2375 959 1747 
Q 959 1119 1226 758 
Q 1494 397 1959 397 
Q 2419 397 2687 759 
Q 2956 1122 2956 1747 
Q 2956 2369 2687 2733 
Q 2419 3097 1959 3097 
z
M 1959 3584 
Q 2709 3584 3137 3096 
Q 3566 2609 3566 1747 
Q 3566 888 3137 398 
Q 2709 -91 1959 -91 
Q 1206 -91 779 398 
Q 353 888 353 1747 
Q 353 2609 779 3096 
Q 1206 3584 1959 3584 
z
" id="DejaVuSans-6f" transform="scale(0.015625)"/>
       <path d="M 2375 4863 
L 2375 4384 
L 1825 4384 
Q 1516 4384 1395 4259 
Q 1275 4134 1275 3809 
L 1275 3500 
L 2222 3500 
L 2222 3053 
L 1275 3053 
L 1275 0 
L 697 0 
L 697 3053 
L 147 3053 
L 147 3500 
L 697 3500 
L 697 3744 
Q 697 4328 969 4595 
Q 1241 4863 1831 4863 
L 2375 4863 
z
" id="DejaVuSans-66" transform="scale(0.015625)"/>
       <path d="M 3122 3366 
L 3122 2828 
Q 2878 2963 2633 3030 
Q 2388 3097 2138 3097 
Q 1578 3097 1268 2742 
Q 959 2388 959 1747 
Q 959 1106 1268 751 
Q 1578 397 2138 397 
Q 2388 397 2633 464 
Q 2878 531 3122 666 
L 3122 134 
Q 2881 22 2623 -34 
Q 2366 -91 2075 -91 
Q 1284 -91 818 406 
Q 353 903 353 1747 
Q 353 2603 823 3093 
Q 1294 3584 2113 3584 
Q 2378 3584 2631 3529 
Q 2884 3475 3122 3366 
z
" id="DejaVuSans-63" transform="scale(0.015625)"/>
       <path d="M 1159 525 
L 1159 -1331 
L 581 -1331 
L 581 3500 
L 1159 3500 
L 1159 2969 
Q 1341 3281 1617 3432 
Q 1894 3584 2278 3584 
Q 2916 3584 3314 3078 
Q 3713 2572 3713 1747 
Q 3713 922 3314 415 
Q 2916 -91 2278 -91 
Q 1894 -91 1617 61 
Q 1341 213 1159 525 
z
M 3116 1747 
Q 3116 2381 2855 2742 
Q 2594 3103 2138 3103 
Q 1681 3103 1420 2742 
Q 1159 2381 1159 1747 
Q 1159 1113 1420 752 
Q 1681 391 2138 391 
Q 2594 391 2855 752 
Q 3116 1113 3116 1747 
z
" id="DejaVuSans-70" transform="scale(0.015625)"/>
       <path d="M 2631 2963 
Q 2534 3019 2420 3045 
Q 2306 3072 2169 3072 
Q 1681 3072 1420 2755 
Q 1159 2438 1159 1844 
L 1159 0 
L 581 0 
L 581 3500 
L 1159 3500 
L 1159 2956 
Q 1341 3275 1631 3429 
Q 1922 3584 2338 3584 
Q 2397 3584 2469 3576 
Q 2541 3569 2628 3553 
L 2631 2963 
z
" id="DejaVuSans-72" transform="scale(0.015625)"/>
       <path d="M 2906 2969 
L 2906 4863 
L 3481 4863 
L 3481 0 
L 2906 0 
L 2906 525 
Q 2725 213 2448 61 
Q 2172 -91 1784 -91 
Q 1150 -91 751 415 
Q 353 922 353 1747 
Q 353 2572 751 3078 
Q 1150 3584 1784 3584 
Q 2172 3584 2448 3432 
Q 2725 3281 2906 2969 
z
M 947 1747 
Q 947 1113 1208 752 
Q 1469 391 1925 391 
Q 2381 391 2643 752 
Q 2906 1113 2906 1747 
Q 2906 2381 2643 2742 
Q 2381 3103 1925 3103 
Q 1469 3103 1208 2742 
Q 947 2381 947 1747 
z
" id="DejaVuSans-64" transform="scale(0.015625)"/>
       <path d="M 1625 4666 
L 2156 4666 
L 531 -594 
L 0 -594 
L 1625 4666 
z
" id="DejaVuSans-2f" transform="scale(0.015625)"/>
       <path d="M -84 -1331 
L 856 3500 
L 1434 3500 
L 1009 1322 
Q 997 1256 987 1175 
Q 978 1094 978 1013 
Q 978 722 1161 565 
Q 1344 409 1684 409 
Q 2147 409 2431 671 
Q 2716 934 2816 1459 
L 3213 3500 
L 3788 3500 
L 3266 809 
Q 3253 750 3248 706 
Q 3244 663 3244 628 
Q 3244 531 3283 486 
Q 3322 441 3406 441 
Q 3438 441 3492 456 
Q 3547 472 3647 513 
L 3559 50 
Q 3422 -19 3297 -55 
Q 3172 -91 3053 -91 
Q 2847 -91 2730 40 
Q 2613 172 2613 403 
Q 2438 153 2195 31 
Q 1953 -91 1625 -91 
Q 1334 -91 1117 43 
Q 900 178 831 397 
L 494 -1331 
L -84 -1331 
z
" id="DejaVuSans-Oblique-3bc" transform="scale(0.015625)"/>
       <path d="M 3431 3366 
L 3316 2797 
Q 3109 2947 2876 3022 
Q 2644 3097 2394 3097 
Q 2119 3097 1870 3000 
Q 1622 2903 1453 2725 
Q 1184 2453 1037 2087 
Q 891 1722 891 1331 
Q 891 859 1127 628 
Q 1363 397 1844 397 
Q 2081 397 2348 469 
Q 2616 541 2906 684 
L 2797 116 
Q 2547 13 2283 -39 
Q 2019 -91 1741 -91 
Q 1044 -91 669 257 
Q 294 606 294 1253 
Q 294 1797 489 2255 
Q 684 2713 1069 3078 
Q 1331 3328 1684 3456 
Q 2038 3584 2456 3584 
Q 2700 3584 2940 3529 
Q 3181 3475 3431 3366 
z
" id="DejaVuSans-Oblique-63" transform="scale(0.015625)"/>
       <path d="M 1947 4863 
L 1947 -844 
L 622 -844 
L 622 -397 
L 1369 -397 
L 1369 4416 
L 622 4416 
L 622 4863 
L 1947 4863 
z
" id="DejaVuSans-5d" transform="scale(0.015625)"/>
      </defs>
      <use transform="translate(0 0.015625)" xlink:href="#DejaVuSans-74"/>
      <use transform="translate(39.208984 0.015625)" xlink:href="#DejaVuSans-69"/>
      <use transform="translate(66.992188 0.015625)" xlink:href="#DejaVuSans-6d"/>
      <use transform="translate(164.404297 0.015625)" xlink:href="#DejaVuSans-65"/>
      <use transform="translate(225.927734 0.015625)" xlink:href="#DejaVuSans-20"/>
      <use transform="translate(257.714844 0.015625)" xlink:href="#DejaVuSans-Oblique-74"/>
      <use transform="translate(296.923828 0.015625)" xlink:href="#DejaVuSans-20"/>
      <use transform="translate(328.710938 0.015625)" xlink:href="#DejaVuSans-5b"/>
      <use transform="translate(367.724609 0.015625)" xlink:href="#DejaVuSans-75"/>
      <use transform="translate(431.103516 0.015625)" xlink:href="#DejaVuSans-6e"/>
      <use transform="translate(494.482422 0.015625)" xlink:href="#DejaVuSans-69"/>
      <use transform="translate(522.265625 0.015625)" xlink:href="#DejaVuSans-74"/>
      <use transform="translate(561.474609 0.015625)" xlink:href="#DejaVuSans-73"/>
      <use transform="translate(613.574219 0.015625)" xlink:href="#DejaVuSans-20"/>
      <use transform="translate(645.361328 0.015625)" xlink:href="#DejaVuSans-6f"/>
      <use transform="translate(706.542969 0.015625)" xlink:href="#DejaVuSans-66"/>
      <use transform="translate(741.748047 0.015625)" xlink:href="#DejaVuSans-20"/>
      <use transform="translate(773.535156 0.015625)" xlink:href="#DejaVuSans-69"/>
      <use transform="translate(801.318359 0.015625)" xlink:href="#DejaVuSans-6e"/>
      <use transform="translate(864.697266 0.015625)" xlink:href="#DejaVuSans-66"/>
      <use transform="translate(899.902344 0.015625)" xlink:href="#DejaVuSans-65"/>
      <use transform="translate(961.425781 0.015625)" xlink:href="#DejaVuSans-63"/>
      <use transform="translate(1016.40625 0.015625)" xlink:href="#DejaVuSans-74"/>
      <use transform="translate(1055.615234 0.015625)" xlink:href="#DejaVuSans-69"/>
      <use transform="translate(1083.398438 0.015625)" xlink:href="#DejaVuSans-6f"/>
      <use transform="translate(1144.580078 0.015625)" xlink:href="#DejaVuSans-75"/>
      <use transform="translate(1207.958984 0.015625)" xlink:href="#DejaVuSans-73"/>
      <use transform="translate(1260.058594 0.015625)" xlink:href="#DejaVuSans-20"/>
      <use transform="translate(1291.845703 0.015625)" xlink:href="#DejaVuSans-70"/>
      <use transform="translate(1355.322266 0.015625)" xlink:href="#DejaVuSans-65"/>
      <use transform="translate(1416.845703 0.015625)" xlink:href="#DejaVuSans-72"/>
      <use transform="translate(1457.958984 0.015625)" xlink:href="#DejaVuSans-69"/>
      <use transform="translate(1485.742188 0.015625)" xlink:href="#DejaVuSans-6f"/>
      <use transform="translate(1546.923828 0.015625)" xlink:href="#DejaVuSans-64"/>
      <use transform="translate(1610.400391 0.015625)" xlink:href="#DejaVuSans-20"/>
      <use transform="translate(1642.1875 0.015625)" xlink:href="#DejaVuSans-31"/>
      <use transform="translate(1705.810547 0.015625)" xlink:href="#DejaVuSans-2f"/>
      <use transform="translate(1739.501953 0.015625)" xlink:href="#DejaVuSans-Oblique-3bc"/>
      <use transform="translate(1803.125 -16.390625)scale(0.7)" xlink:href="#DejaVuSans-Oblique-63"/>
      <use transform="translate(1844.345703 0.015625)" xlink:href="#DejaVuSans-5d"/>
     </g>
    </g>
   </g>
   <g id="matplotlib.axis_2">
    <g id="ytick_1">
     <g id="line2d_9">
      <defs>
       <path d="M 0 0 
L -3.5 0 
" id="mb08100a13e" style="stroke:#000000;stroke-width:0.8;"/>
      </defs>
      <g>
       <use style="stroke:#000000;stroke-width:0.8;" x="72" xlink:href="#mb08100a13e" y="504"/>
      </g>
     </g>
     <g id="text_10">
      <!-- 0.00 -->
      <g transform="translate(29.375 510.07875)scale(0.16 -0.16)">
       <defs>
        <path d="M 684 794 
L 1344 794 
L 1344 0 
L 684 0 
L 684 794 
z
" id="DejaVuSans-2e" transform="scale(0.015625)"/>
       </defs>
       <use xlink:href="#DejaVuSans-30"/>
       <use x="63.623047" xlink:href="#DejaVuSans-2e"/>
       <use x="95.410156" xlink:href="#DejaVuSans-30"/>
       <use x="159.033203" xlink:href="#DejaVuSans-30"/>
      </g>
     </g>
    </g>
    <g id="ytick_2">
     <g id="line2d_10">
      <g>
       <use style="stroke:#000000;stroke-width:0.8;" x="72" xlink:href="#mb08100a13e" y="449.64"/>
      </g>
     </g>
     <g id="text_11">
      <!-- 0.05 -->
      <g transform="translate(29.375 455.71875)scale(0.16 -0.16)">
       <defs>
        <path d="M 691 4666 
L 3169 4666 
L 3169 4134 
L 1269 4134 
L 1269 2991 
Q 1406 3038 1543 3061 
Q 1681 3084 1819 3084 
Q 2600 3084 3056 2656 
Q 3513 2228 3513 1497 
Q 3513 744 3044 326 
Q 2575 -91 1722 -91 
Q 1428 -91 1123 -41 
Q 819 9 494 109 
L 494 744 
Q 775 591 1075 516 
Q 1375 441 1709 441 
Q 2250 441 2565 725 
Q 2881 1009 2881 1497 
Q 2881 1984 2565 2268 
Q 2250 2553 1709 2553 
Q 1456 2553 1204 2497 
Q 953 2441 691 2322 
L 691 4666 
z
" id="DejaVuSans-35" transform="scale(0.015625)"/>
       </defs>
       <use xlink:href="#DejaVuSans-30"/>
       <use x="63.623047" xlink:href="#DejaVuSans-2e"/>
       <use x="95.410156" xlink:href="#DejaVuSans-30"/>
       <use x="159.033203" xlink:href="#DejaVuSans-35"/>
      </g>
     </g>
    </g>
    <g id="ytick_3">
     <g id="line2d_11">
      <g>
       <use style="stroke:#000000;stroke-width:0.8;" x="72" xlink:href="#mb08100a13e" y="395.28"/>
      </g>
     </g>
     <g id="text_12">
      <!-- 0.10 -->
      <g transform="translate(29.375 401.35875)scale(0.16 -0.16)">
       <use xlink:href="#DejaVuSans-30"/>
       <use x="63.623047" xlink:href="#DejaVuSans-2e"/>
       <use x="95.410156" xlink:href="#DejaVuSans-31"/>
       <use x="159.033203" xlink:href="#DejaVuSans-30"/>
      </g>
     </g>
    </g>
    <g id="ytick_4">
     <g id="line2d_12">
      <g>
       <use style="stroke:#000000;stroke-width:0.8;" x="72" xlink:href="#mb08100a13e" y="340.92"/>
      </g>
     </g>
     <g id="text_13">
      <!-- 0.15 -->
      <g transform="translate(29.375 346.99875)scale(0.16 -0.16)">
       <use xlink:href="#DejaVuSans-30"/>
       <use x="63.623047" xlink:href="#DejaVuSans-2e"/>
       <use x="95.410156" xlink:href="#DejaVuSans-31"/>
       <use x="159.033203" xlink:href="#DejaVuSans-35"/>
      </g>
     </g>
    </g>
    <g id="ytick_5">
     <g id="line2d_13">
      <g>
       <use style="stroke:#000000;stroke-width:0.8;" x="72" xlink:href="#mb08100a13e" y="286.56"/>
      </g>
     </g>
     <g id="text_14">
      <!-- 0.20 -->
      <g transform="translate(29.375 292.63875)scale(0.16 -0.16)">
       <use xlink:href="#DejaVuSans-30"/>
       <use x="63.623047" xlink:href="#DejaVuSans-2e"/>
       <use x="95.410156" xlink:href="#DejaVuSans-32"/>
       <use x="159.033203" xlink:href="#DejaVuSans-30"/>
      </g>
     </g>
    </g>
    <g id="ytick_6">
     <g id="line2d_14">
      <g>
       <use style="stroke:#000000;stroke-width:0.8;" x="72" xlink:href="#mb08100a13e" y="232.2"/>
      </g>
     </g>
     <g id="text_15">
      <!-- 0.25 -->
      <g transform="translate(29.375 238.27875)scale(0.16 -0.16)">
       <use xlink:href="#DejaVuSans-30"/>
       <use x="63.623047" xlink:href="#DejaVuSans-2e"/>
       <use x="95.410156" xlink:href="#DejaVuSans-32"/>
       <use x="159.033203" xlink:href="#DejaVuSans-35"/>
      </g>
     </g>
    </g>
    <g id="ytick_7">
     <g id="line2d_15">
      <g>
       <use style="stroke:#000000;stroke-width:0.8;" x="72" xlink:href="#mb08100a13e" y="177.84"/>
      </g>
     </g>
     <g id="text_16">
      <!-- 0.30 -->
      <g transform="translate(29.375 183.91875)scale(0.16 -0.16)">
       <defs>
        <path d="M 2597 2516 
Q 3050 2419 3304 2112 
Q 3559 1806 3559 1356 
Q 3559 666 3084 287 
Q 2609 -91 1734 -91 
Q 1441 -91 1130 -33 
Q 819 25 488 141 
L 488 750 
Q 750 597 1062 519 
Q 1375 441 1716 441 
Q 2309 441 2620 675 
Q 2931 909 2931 1356 
Q 2931 1769 2642 2001 
Q 2353 2234 1838 2234 
L 1294 2234 
L 1294 2753 
L 1863 2753 
Q 2328 2753 2575 2939 
Q 2822 3125 2822 3475 
Q 2822 3834 2567 4026 
Q 2313 4219 1838 4219 
Q 1578 4219 1281 4162 
Q 984 4106 628 3988 
L 628 4550 
Q 988 4650 1302 4700 
Q 1616 4750 1894 4750 
Q 2613 4750 3031 4423 
Q 3450 4097 3450 3541 
Q 3450 3153 3228 2886 
Q 3006 2619 2597 2516 
z
" id="DejaVuSans-33" transform="scale(0.015625)"/>
       </defs>
       <use xlink:href="#DejaVuSans-30"/>
       <use x="63.623047" xlink:href="#DejaVuSans-2e"/>
       <use x="95.410156" xlink:href="#DejaVuSans-33"/>
       <use x="159.033203" xlink:href="#DejaVuSans-30"/>
      </g>
     </g>
    </g>
    <g id="ytick_8">
     <g id="line2d_16">
      <g>
       <use style="stroke:#000000;stroke-width:0.8;" x="72" xlink:href="#mb08100a13e" y="123.48"/>
      </g>
     </g>
     <g id="text_17">
      <!-- 0.35 -->
      <g transform="translate(29.375 129.55875)scale(0.16 -0.16)">
       <use xlink:href="#DejaVuSans-30"/>
       <use x="63.623047" xlink:href="#DejaVuSans-2e"/>
       <use x="95.410156" xlink:href="#DejaVuSans-33"/>
       <use x="159.033203" xlink:href="#DejaVuSans-35"/>
      </g>
     </g>
    </g>
    <g id="ytick_9">
     <g id="line2d_17">
      <g>
       <use style="stroke:#000000;stroke-width:0.8;" x="72" xlink:href="#mb08100a13e" y="69.12"/>
      </g>
     </g>
     <g id="text_18">
      <!-- 0.40 -->
      <g transform="translate(29.375 75.19875)scale(0.16 -0.16)">
       <use xlink:href="#DejaVuSans-30"/>
       <use x="63.623047" xlink:href="#DejaVuSans-2e"/>
       <use x="95.410156" xlink:href="#DejaVuSans-34"/>
       <use x="159.033203" xlink:href="#DejaVuSans-30"/>
      </g>
     </g>
    </g>
    <g id="text_19">
     <!-- host density -->
     <g transform="translate(21.215625 347.989688)rotate(-90)scale(0.2 -0.2)">
      <defs>
       <path d="M 3513 2113 
L 3513 0 
L 2938 0 
L 2938 2094 
Q 2938 2591 2744 2837 
Q 2550 3084 2163 3084 
Q 1697 3084 1428 2787 
Q 1159 2491 1159 1978 
L 1159 0 
L 581 0 
L 581 4863 
L 1159 4863 
L 1159 2956 
Q 1366 3272 1645 3428 
Q 1925 3584 2291 3584 
Q 2894 3584 3203 3211 
Q 3513 2838 3513 2113 
z
" id="DejaVuSans-68" transform="scale(0.015625)"/>
       <path d="M 2059 -325 
Q 1816 -950 1584 -1140 
Q 1353 -1331 966 -1331 
L 506 -1331 
L 506 -850 
L 844 -850 
Q 1081 -850 1212 -737 
Q 1344 -625 1503 -206 
L 1606 56 
L 191 3500 
L 800 3500 
L 1894 763 
L 2988 3500 
L 3597 3500 
L 2059 -325 
z
" id="DejaVuSans-79" transform="scale(0.015625)"/>
      </defs>
      <use xlink:href="#DejaVuSans-68"/>
      <use x="63.378906" xlink:href="#DejaVuSans-6f"/>
      <use x="124.560547" xlink:href="#DejaVuSans-73"/>
      <use x="176.660156" xlink:href="#DejaVuSans-74"/>
      <use x="215.869141" xlink:href="#DejaVuSans-20"/>
      <use x="247.65625" xlink:href="#DejaVuSans-64"/>
      <use x="311.132812" xlink:href="#DejaVuSans-65"/>
      <use x="372.65625" xlink:href="#DejaVuSans-6e"/>
      <use x="436.035156" xlink:href="#DejaVuSans-73"/>
      <use x="488.134766" xlink:href="#DejaVuSans-69"/>
      <use x="515.917969" xlink:href="#DejaVuSans-74"/>
      <use x="555.126953" xlink:href="#DejaVuSans-79"/>
     </g>
    </g>
   </g>
   <g id="line2d_18">
    <path clip-path="url(#p9014a5c089)" d="M 72 286.56 
L 72.5952 289.152049 
L 73.1904 293.270787 
L 73.7856 299.606529 
L 74.3808 308.969788 
L 74.976 322.091564 
L 75.8688 349.161261 
L 78.2496 431.156584 
L 79.1424 450.615741 
L 79.7376 459.530719 
L 80.3328 465.923264 
L 80.928 470.406502 
L 81.5232 473.482971 
L 82.1184 475.535056 
L 82.7136 476.843786 
L 83.3088 477.613292 
L 83.904 477.9921 
L 84.4992 478.089257 
L 85.0944 477.985908 
L 85.9872 477.584793 
L 87.4752 476.596436 
L 89.856 474.991599 
L 91.344 474.248207 
L 92.832 473.764428 
L 94.32 473.516969 
L 96.1056 473.454185 
L 99.0816 473.63257 
L 102.9504 473.833729 
L 105.6288 473.74541 
L 108.3072 473.433275 
L 111.2832 472.846691 
L 114.5568 471.960303 
L 118.4256 470.661548 
L 122.8896 468.917739 
L 128.544 466.462567 
L 138.96 461.640815 
L 147.888 457.609453 
L 154.1376 455.018534 
L 159.792 452.907805 
L 165.1488 451.143479 
L 170.5056 449.621252 
L 175.8624 448.34156 
L 181.2192 447.294699 
L 186.8736 446.423577 
L 192.8256 445.739142 
L 199.0752 445.243538 
L 205.92 444.921881 
L 213.6576 444.785853 
L 222.288 444.858559 
L 232.4064 445.16923 
L 244.9056 445.782682 
L 263.3568 446.935405 
L 297.5808 449.088984 
L 314.544 449.909928 
L 330.6144 450.467582 
L 347.28 450.821216 
L 365.7312 450.986578 
L 389.2416 450.960244 
L 440.7264 450.59893 
L 487.152 450.409666 
L 518.6976 450.390981 
L 518.6976 450.390981 
" style="fill:none;stroke:#006400;stroke-linecap:square;stroke-width:3;"/>
   </g>
   <g id="line2d_19">
    <path clip-path="url(#p9014a5c089)" d="M 92.334331 -1 
L 94.9152 42.328841 
L 97.296 79.018798 
L 99.6768 112.269938 
L 101.76 138.441666 
L 103.8432 161.903245 
L 105.9264 182.755181 
L 108.0096 201.154717 
L 109.7952 215.11834 
L 111.5808 227.550635 
L 113.3664 238.583377 
L 115.152 248.345319 
L 116.9376 256.959057 
L 118.7232 264.539075 
L 120.5088 271.19092 
L 122.2944 277.010649 
L 124.08 282.085052 
L 125.8656 286.492034 
L 127.6512 290.301245 
L 129.4368 293.574677 
L 131.2224 296.367374 
L 133.008 298.728183 
L 134.7936 300.70034 
L 136.5792 302.322165 
L 138.3648 303.627595 
L 140.1504 304.646725 
L 141.936 305.406243 
L 143.7216 305.929888 
L 145.5072 306.238782 
L 147.5904 306.352764 
L 149.6736 306.226539 
L 151.7568 305.883481 
L 154.1376 305.252287 
L 156.5184 304.391934 
L 159.1968 303.17969 
L 162.1728 301.563934 
L 165.1488 299.699421 
L 168.4224 297.397946 
L 172.2912 294.387128 
L 176.4576 290.848223 
L 181.2192 286.49717 
L 186.576 281.297877 
L 193.4208 274.323251 
L 203.8368 263.338263 
L 217.5264 248.950406 
L 224.9664 241.459997 
L 231.216 235.470792 
L 236.8704 230.348658 
L 242.2272 225.795386 
L 247.2864 221.78993 
L 252.048 218.300509 
L 256.8096 215.096486 
L 261.2736 212.36028 
L 265.7376 209.887753 
L 270.2016 207.680529 
L 274.368 205.858733 
L 278.5344 204.263714 
L 282.9984 202.800404 
L 287.4624 201.582535 
L 291.9264 200.599033 
L 296.3904 199.836909 
L 301.152 199.251467 
L 306.2112 198.865444 
L 311.568 198.694732 
L 317.2224 198.746967 
L 323.472 199.039342 
L 330.3168 199.586782 
L 338.6496 200.488809 
L 349.9584 201.960339 
L 378.528 205.769362 
L 389.8368 206.99745 
L 400.5504 207.93691 
L 411.264 208.65057 
L 422.2752 209.160828 
L 434.1792 209.487774 
L 447.5712 209.628649 
L 463.9392 209.566591 
L 487.7472 209.228968 
L 518.6976 208.717065 
L 518.6976 208.717065 
" style="fill:none;stroke:#00ff66;stroke-linecap:square;stroke-width:3;"/>
   </g>
   <g id="line2d_20">
    <path clip-path="url(#p9014a5c089)" d="M 72 501.8256 
L 72.5952 499.885637 
L 73.1904 496.888585 
L 73.7856 492.387211 
L 74.3808 485.902901 
L 74.976 477.113533 
L 75.8688 460.166048 
L 77.0592 437.434419 
L 77.6544 430.00139 
L 77.952 427.758268 
L 78.2496 426.510135 
L 78.5472 426.194161 
L 78.8448 426.708456 
L 79.1424 427.928869 
L 79.7376 431.963379 
L 80.6304 440.241885 
L 82.416 457.422488 
L 83.6064 466.610313 
L 84.4992 472.031983 
L 85.392 476.312795 
L 86.2848 479.617523 
L 87.1776 482.114634 
L 88.0704 483.957907 
L 88.9632 485.280615 
L 89.856 486.195276 
L 90.7488 486.795576 
L 91.6416 487.158818 
L 92.832 487.382194 
L 94.32 487.401413 
L 97.296 487.122903 
L 100.5696 486.892171 
L 103.5456 486.905503 
L 107.712 487.164302 
L 127.3536 488.640828 
L 139.5552 489.251383 
L 152.0544 489.651776 
L 165.4464 489.849944 
L 182.7072 489.863978 
L 218.7168 489.607549 
L 292.8192 489.102683 
L 341.9232 489.023846 
L 518.6976 489.105834 
L 518.6976 489.105834 
" style="fill:none;stroke:#8b0000;stroke-linecap:square;stroke-width:3;"/>
   </g>
   <g id="line2d_21">
    <path clip-path="url(#p9014a5c089)" d="M 72 495.3024 
L 72.5952 494.535327 
L 73.1904 493.412286 
L 73.7856 491.750735 
L 74.3808 489.300838 
L 74.976 485.752943 
L 75.5712 480.781742 
L 76.1664 474.137798 
L 77.0592 460.976575 
L 78.2496 439.071235 
L 80.6304 393.881348 
L 82.1184 370.191347 
L 83.6064 350.427766 
L 85.0944 333.859259 
L 86.5824 319.797073 
L 88.0704 307.756732 
L 89.5584 297.438935 
L 91.0464 288.67537 
L 92.5344 281.378921 
L 93.7248 276.567765 
L 94.9152 272.652698 
L 96.1056 269.619355 
L 96.9984 267.91207 
L 97.8912 266.680272 
L 98.784 265.911342 
L 99.3792 265.648514 
L 99.9744 265.57967 
L 100.5696 265.699289 
L 101.1648 266.001435 
L 102.0576 266.783015 
L 102.9504 267.938432 
L 103.8432 269.443836 
L 105.0336 271.952624 
L 106.224 274.979671 
L 107.712 279.400764 
L 109.4976 285.489542 
L 111.5808 293.436845 
L 114.2592 304.577546 
L 119.0208 325.577825 
L 124.6752 350.266634 
L 128.2464 364.88146 
L 131.52 377.340303 
L 134.496 387.806331 
L 137.472 397.428448 
L 140.1504 405.37213 
L 142.8288 412.656877 
L 145.5072 419.310815 
L 148.1856 425.36759 
L 150.864 430.863994 
L 153.5424 435.838098 
L 156.2208 440.328008 
L 158.8992 444.370952 
L 161.5776 448.002676 
L 164.256 451.257044 
L 166.9344 454.165844 
L 169.6128 456.758664 
L 172.2912 459.06289 
L 175.2672 461.315256 
L 178.2432 463.273969 
L 181.2192 464.967596 
L 184.1952 466.421916 
L 187.4688 467.772878 
L 190.7424 468.889889 
L 194.3136 469.870332 
L 197.8848 470.629497 
L 201.7536 471.230647 
L 205.92 471.651016 
L 210.384 471.872652 
L 215.1456 471.8823 
L 220.2048 471.671206 
L 225.8592 471.204954 
L 232.1088 470.452221 
L 238.9536 469.393746 
L 246.6912 467.965753 
L 255.9168 466.030801 
L 269.3088 462.968822 
L 290.736 458.070035 
L 301.152 455.932287 
L 310.3776 454.264501 
L 319.008 452.930924 
L 327.3408 451.867056 
L 335.6736 451.026062 
L 344.304 450.382042 
L 353.232 449.939949 
L 363.0528 449.683811 
L 374.064 449.630346 
L 387.1584 449.801288 
L 405.6096 450.288299 
L 451.1424 451.564947 
L 473.76 451.922667 
L 498.4608 452.084015 
L 518.6976 452.090324 
L 518.6976 452.090324 
" style="fill:none;stroke:#b8860b;stroke-linecap:square;stroke-width:3;"/>
   </g>
   <g id="patch_3">
    <path d="M 72 504 
L 72 69.12 
" style="fill:none;stroke:#000000;stroke-linecap:square;stroke-linejoin:miter;stroke-width:0.8;"/>
   </g>
   <g id="patch_4">
    <path d="M 518.4 504 
L 518.4 69.12 
" style="fill:none;stroke:#000000;stroke-linecap:square;stroke-linejoin:miter;stroke-width:0.8;"/>
   </g>
   <g id="patch_5">
    <path d="M 72 504 
L 518.4 504 
" style="fill:none;stroke:#000000;stroke-linecap:square;stroke-linejoin:miter;stroke-width:0.8;"/>
   </g>
   <g id="patch_6">
    <path d="M 72 69.12 
L 518.4 69.12 
" style="fill:none;stroke:#000000;stroke-linecap:square;stroke-linejoin:miter;stroke-width:0.8;"/>
   </g>
   <g id="text_20">
    <!-- Epidemiological dynamics -->
    <g transform="translate(165.05 63.12)scale(0.2 -0.2)">
     <defs>
      <path d="M 628 4666 
L 3578 4666 
L 3578 4134 
L 1259 4134 
L 1259 2753 
L 3481 2753 
L 3481 2222 
L 1259 2222 
L 1259 531 
L 3634 531 
L 3634 0 
L 628 0 
L 628 4666 
z
" id="DejaVuSans-45" transform="scale(0.015625)"/>
      <path d="M 603 4863 
L 1178 4863 
L 1178 0 
L 603 0 
L 603 4863 
z
" id="DejaVuSans-6c" transform="scale(0.015625)"/>
      <path d="M 2906 1791 
Q 2906 2416 2648 2759 
Q 2391 3103 1925 3103 
Q 1463 3103 1205 2759 
Q 947 2416 947 1791 
Q 947 1169 1205 825 
Q 1463 481 1925 481 
Q 2391 481 2648 825 
Q 2906 1169 2906 1791 
z
M 3481 434 
Q 3481 -459 3084 -895 
Q 2688 -1331 1869 -1331 
Q 1566 -1331 1297 -1286 
Q 1028 -1241 775 -1147 
L 775 -588 
Q 1028 -725 1275 -790 
Q 1522 -856 1778 -856 
Q 2344 -856 2625 -561 
Q 2906 -266 2906 331 
L 2906 616 
Q 2728 306 2450 153 
Q 2172 0 1784 0 
Q 1141 0 747 490 
Q 353 981 353 1791 
Q 353 2603 747 3093 
Q 1141 3584 1784 3584 
Q 2172 3584 2450 3431 
Q 2728 3278 2906 2969 
L 2906 3500 
L 3481 3500 
L 3481 434 
z
" id="DejaVuSans-67" transform="scale(0.015625)"/>
      <path d="M 2194 1759 
Q 1497 1759 1228 1600 
Q 959 1441 959 1056 
Q 959 750 1161 570 
Q 1363 391 1709 391 
Q 2188 391 2477 730 
Q 2766 1069 2766 1631 
L 2766 1759 
L 2194 1759 
z
M 3341 1997 
L 3341 0 
L 2766 0 
L 2766 531 
Q 2569 213 2275 61 
Q 1981 -91 1556 -91 
Q 1019 -91 701 211 
Q 384 513 384 1019 
Q 384 1609 779 1909 
Q 1175 2209 1959 2209 
L 2766 2209 
L 2766 2266 
Q 2766 2663 2505 2880 
Q 2244 3097 1772 3097 
Q 1472 3097 1187 3025 
Q 903 2953 641 2809 
L 641 3341 
Q 956 3463 1253 3523 
Q 1550 3584 1831 3584 
Q 2591 3584 2966 3190 
Q 3341 2797 3341 1997 
z
" id="DejaVuSans-61" transform="scale(0.015625)"/>
     </defs>
     <use xlink:href="#DejaVuSans-45"/>
     <use x="63.183594" xlink:href="#DejaVuSans-70"/>
     <use x="126.660156" xlink:href="#DejaVuSans-69"/>
     <use x="154.443359" xlink:href="#DejaVuSans-64"/>
     <use x="217.919922" xlink:href="#DejaVuSans-65"/>
     <use x="279.443359" xlink:href="#DejaVuSans-6d"/>
     <use x="376.855469" xlink:href="#DejaVuSans-69"/>
     <use x="404.638672" xlink:href="#DejaVuSans-6f"/>
     <use x="465.820312" xlink:href="#DejaVuSans-6c"/>
     <use x="493.603516" xlink:href="#DejaVuSans-6f"/>
     <use x="554.785156" xlink:href="#DejaVuSans-67"/>
     <use x="618.261719" xlink:href="#DejaVuSans-69"/>
     <use x="646.044922" xlink:href="#DejaVuSans-63"/>
     <use x="701.025391" xlink:href="#DejaVuSans-61"/>
     <use x="762.304688" xlink:href="#DejaVuSans-6c"/>
     <use x="790.087891" xlink:href="#DejaVuSans-20"/>
     <use x="821.875" xlink:href="#DejaVuSans-64"/>
     <use x="885.351562" xlink:href="#DejaVuSans-79"/>
     <use x="944.53125" xlink:href="#DejaVuSans-6e"/>
     <use x="1007.910156" xlink:href="#DejaVuSans-61"/>
     <use x="1069.189453" xlink:href="#DejaVuSans-6d"/>
     <use x="1166.601562" xlink:href="#DejaVuSans-69"/>
     <use x="1194.384766" xlink:href="#DejaVuSans-63"/>
     <use x="1249.365234" xlink:href="#DejaVuSans-73"/>
    </g>
   </g>
   <g id="legend_1">
    <g id="patch_7">
     <path d="M 244.64 175.965 
L 507.2 175.965 
Q 510.4 175.965 510.4 172.765 
L 510.4 80.32 
Q 510.4 77.12 507.2 77.12 
L 244.64 77.12 
Q 241.44 77.12 241.44 80.32 
L 241.44 172.765 
Q 241.44 175.965 244.64 175.965 
z
" style="fill:#ffffff;opacity:0.8;stroke:#cccccc;stroke-linejoin:miter;"/>
    </g>
    <g id="line2d_22">
     <path d="M 247.84 90.08 
L 279.84 90.08 
" style="fill:none;stroke:#006400;stroke-linecap:square;stroke-width:3;"/>
    </g>
    <g id="line2d_23"/>
    <g id="text_21">
     <!-- susceptible crop $S_c(t)$ -->
     <g transform="translate(292.64 95.68)scale(0.16 -0.16)">
      <defs>
       <path d="M 3116 1747 
Q 3116 2381 2855 2742 
Q 2594 3103 2138 3103 
Q 1681 3103 1420 2742 
Q 1159 2381 1159 1747 
Q 1159 1113 1420 752 
Q 1681 391 2138 391 
Q 2594 391 2855 752 
Q 3116 1113 3116 1747 
z
M 1159 2969 
Q 1341 3281 1617 3432 
Q 1894 3584 2278 3584 
Q 2916 3584 3314 3078 
Q 3713 2572 3713 1747 
Q 3713 922 3314 415 
Q 2916 -91 2278 -91 
Q 1894 -91 1617 61 
Q 1341 213 1159 525 
L 1159 0 
L 581 0 
L 581 4863 
L 1159 4863 
L 1159 2969 
z
" id="DejaVuSans-62" transform="scale(0.015625)"/>
       <path d="M 3859 4513 
L 3738 3897 
Q 3422 4066 3111 4152 
Q 2800 4238 2509 4238 
Q 1944 4238 1609 3991 
Q 1275 3744 1275 3334 
Q 1275 3109 1398 2989 
Q 1522 2869 2034 2731 
L 2413 2638 
Q 3053 2472 3303 2217 
Q 3553 1963 3553 1503 
Q 3553 797 2998 353 
Q 2444 -91 1538 -91 
Q 1166 -91 791 -17 
Q 416 56 38 206 
L 166 856 
Q 513 641 861 531 
Q 1209 422 1556 422 
Q 2147 422 2503 684 
Q 2859 947 2859 1369 
Q 2859 1650 2717 1795 
Q 2575 1941 2106 2059 
L 1728 2156 
Q 1081 2325 845 2545 
Q 609 2766 609 3163 
Q 609 3859 1145 4304 
Q 1681 4750 2541 4750 
Q 2875 4750 3203 4690 
Q 3531 4631 3859 4513 
z
" id="DejaVuSans-Oblique-53" transform="scale(0.015625)"/>
       <path d="M 1984 4856 
Q 1566 4138 1362 3434 
Q 1159 2731 1159 2009 
Q 1159 1288 1364 580 
Q 1569 -128 1984 -844 
L 1484 -844 
Q 1016 -109 783 600 
Q 550 1309 550 2009 
Q 550 2706 781 3412 
Q 1013 4119 1484 4856 
L 1984 4856 
z
" id="DejaVuSans-28" transform="scale(0.015625)"/>
       <path d="M 513 4856 
L 1013 4856 
Q 1481 4119 1714 3412 
Q 1947 2706 1947 2009 
Q 1947 1309 1714 600 
Q 1481 -109 1013 -844 
L 513 -844 
Q 928 -128 1133 580 
Q 1338 1288 1338 2009 
Q 1338 2731 1133 3434 
Q 928 4138 513 4856 
z
" id="DejaVuSans-29" transform="scale(0.015625)"/>
      </defs>
      <use transform="translate(0 0.015625)" xlink:href="#DejaVuSans-73"/>
      <use transform="translate(52.099609 0.015625)" xlink:href="#DejaVuSans-75"/>
      <use transform="translate(115.478516 0.015625)" xlink:href="#DejaVuSans-73"/>
      <use transform="translate(167.578125 0.015625)" xlink:href="#DejaVuSans-63"/>
      <use transform="translate(222.558594 0.015625)" xlink:href="#DejaVuSans-65"/>
      <use transform="translate(284.082031 0.015625)" xlink:href="#DejaVuSans-70"/>
      <use transform="translate(347.558594 0.015625)" xlink:href="#DejaVuSans-74"/>
      <use transform="translate(386.767578 0.015625)" xlink:href="#DejaVuSans-69"/>
      <use transform="translate(414.550781 0.015625)" xlink:href="#DejaVuSans-62"/>
      <use transform="translate(478.027344 0.015625)" xlink:href="#DejaVuSans-6c"/>
      <use transform="translate(505.810547 0.015625)" xlink:href="#DejaVuSans-65"/>
      <use transform="translate(567.333984 0.015625)" xlink:href="#DejaVuSans-20"/>
      <use transform="translate(599.121094 0.015625)" xlink:href="#DejaVuSans-63"/>
      <use transform="translate(654.101562 0.015625)" xlink:href="#DejaVuSans-72"/>
      <use transform="translate(695.214844 0.015625)" xlink:href="#DejaVuSans-6f"/>
      <use transform="translate(756.396484 0.015625)" xlink:href="#DejaVuSans-70"/>
      <use transform="translate(819.873047 0.015625)" xlink:href="#DejaVuSans-20"/>
      <use transform="translate(851.660156 0.015625)" xlink:href="#DejaVuSans-Oblique-53"/>
      <use transform="translate(915.136719 -16.390625)scale(0.7)" xlink:href="#DejaVuSans-Oblique-63"/>
      <use transform="translate(956.357422 0.015625)" xlink:href="#DejaVuSans-28"/>
      <use transform="translate(995.371094 0.015625)" xlink:href="#DejaVuSans-Oblique-74"/>
      <use transform="translate(1034.580078 0.015625)" xlink:href="#DejaVuSans-29"/>
     </g>
    </g>
    <g id="line2d_24">
     <path d="M 247.84 113.6 
L 279.84 113.6 
" style="fill:none;stroke:#00ff66;stroke-linecap:square;stroke-width:3;"/>
    </g>
    <g id="line2d_25"/>
    <g id="text_22">
     <!-- susceptible wild host $S_w(t)$ -->
     <g transform="translate(292.64 119.2)scale(0.16 -0.16)">
      <defs>
       <path d="M 269 3500 
L 844 3500 
L 1563 769 
L 2278 3500 
L 2956 3500 
L 3675 769 
L 4391 3500 
L 4966 3500 
L 4050 0 
L 3372 0 
L 2619 2869 
L 1863 0 
L 1184 0 
L 269 3500 
z
" id="DejaVuSans-77" transform="scale(0.015625)"/>
       <path d="M 544 3500 
L 1113 3500 
L 1259 684 
L 2566 3500 
L 3231 3500 
L 3425 684 
L 4666 3500 
L 5241 3500 
L 3641 0 
L 2969 0 
L 2797 2900 
L 1459 0 
L 781 0 
L 544 3500 
z
" id="DejaVuSans-Oblique-77" transform="scale(0.015625)"/>
      </defs>
      <use transform="translate(0 0.015625)" xlink:href="#DejaVuSans-73"/>
      <use transform="translate(52.099609 0.015625)" xlink:href="#DejaVuSans-75"/>
      <use transform="translate(115.478516 0.015625)" xlink:href="#DejaVuSans-73"/>
      <use transform="translate(167.578125 0.015625)" xlink:href="#DejaVuSans-63"/>
      <use transform="translate(222.558594 0.015625)" xlink:href="#DejaVuSans-65"/>
      <use transform="translate(284.082031 0.015625)" xlink:href="#DejaVuSans-70"/>
      <use transform="translate(347.558594 0.015625)" xlink:href="#DejaVuSans-74"/>
      <use transform="translate(386.767578 0.015625)" xlink:href="#DejaVuSans-69"/>
      <use transform="translate(414.550781 0.015625)" xlink:href="#DejaVuSans-62"/>
      <use transform="translate(478.027344 0.015625)" xlink:href="#DejaVuSans-6c"/>
      <use transform="translate(505.810547 0.015625)" xlink:href="#DejaVuSans-65"/>
      <use transform="translate(567.333984 0.015625)" xlink:href="#DejaVuSans-20"/>
      <use transform="translate(599.121094 0.015625)" xlink:href="#DejaVuSans-77"/>
      <use transform="translate(680.908203 0.015625)" xlink:href="#DejaVuSans-69"/>
      <use transform="translate(708.691406 0.015625)" xlink:href="#DejaVuSans-6c"/>
      <use transform="translate(736.474609 0.015625)" xlink:href="#DejaVuSans-64"/>
      <use transform="translate(799.951172 0.015625)" xlink:href="#DejaVuSans-20"/>
      <use transform="translate(831.738281 0.015625)" xlink:href="#DejaVuSans-68"/>
      <use transform="translate(895.117188 0.015625)" xlink:href="#DejaVuSans-6f"/>
      <use transform="translate(956.298828 0.015625)" xlink:href="#DejaVuSans-73"/>
      <use transform="translate(1008.398438 0.015625)" xlink:href="#DejaVuSans-74"/>
      <use transform="translate(1047.607422 0.015625)" xlink:href="#DejaVuSans-20"/>
      <use transform="translate(1079.394531 0.015625)" xlink:href="#DejaVuSans-Oblique-53"/>
      <use transform="translate(1142.871094 -16.390625)scale(0.7)" xlink:href="#DejaVuSans-Oblique-77"/>
      <use transform="translate(1202.856445 0.015625)" xlink:href="#DejaVuSans-28"/>
      <use transform="translate(1241.870117 0.015625)" xlink:href="#DejaVuSans-Oblique-74"/>
      <use transform="translate(1281.079102 0.015625)" xlink:href="#DejaVuSans-29"/>
     </g>
    </g>
    <g id="line2d_26">
     <path d="M 247.84 137.12 
L 279.84 137.12 
" style="fill:none;stroke:#8b0000;stroke-linecap:square;stroke-width:3;"/>
    </g>
    <g id="line2d_27"/>
    <g id="text_23">
     <!-- infected crop $I_c(t)$ -->
     <g transform="translate(292.64 142.72)scale(0.16 -0.16)">
      <defs>
       <path d="M 1081 4666 
L 1716 4666 
L 806 0 
L 172 0 
L 1081 4666 
z
" id="DejaVuSans-Oblique-49" transform="scale(0.015625)"/>
      </defs>
      <use transform="translate(0 0.015625)" xlink:href="#DejaVuSans-69"/>
      <use transform="translate(27.783203 0.015625)" xlink:href="#DejaVuSans-6e"/>
      <use transform="translate(91.162109 0.015625)" xlink:href="#DejaVuSans-66"/>
      <use transform="translate(126.367188 0.015625)" xlink:href="#DejaVuSans-65"/>
      <use transform="translate(187.890625 0.015625)" xlink:href="#DejaVuSans-63"/>
      <use transform="translate(242.871094 0.015625)" xlink:href="#DejaVuSans-74"/>
      <use transform="translate(282.080078 0.015625)" xlink:href="#DejaVuSans-65"/>
      <use transform="translate(343.603516 0.015625)" xlink:href="#DejaVuSans-64"/>
      <use transform="translate(407.080078 0.015625)" xlink:href="#DejaVuSans-20"/>
      <use transform="translate(438.867188 0.015625)" xlink:href="#DejaVuSans-63"/>
      <use transform="translate(493.847656 0.015625)" xlink:href="#DejaVuSans-72"/>
      <use transform="translate(534.960938 0.015625)" xlink:href="#DejaVuSans-6f"/>
      <use transform="translate(596.142578 0.015625)" xlink:href="#DejaVuSans-70"/>
      <use transform="translate(659.619141 0.015625)" xlink:href="#DejaVuSans-20"/>
      <use transform="translate(691.40625 0.015625)" xlink:href="#DejaVuSans-Oblique-49"/>
      <use transform="translate(720.898438 -16.390625)scale(0.7)" xlink:href="#DejaVuSans-Oblique-63"/>
      <use transform="translate(762.119141 0.015625)" xlink:href="#DejaVuSans-28"/>
      <use transform="translate(801.132812 0.015625)" xlink:href="#DejaVuSans-Oblique-74"/>
      <use transform="translate(840.341797 0.015625)" xlink:href="#DejaVuSans-29"/>
     </g>
    </g>
    <g id="line2d_28">
     <path d="M 247.84 160.6375 
L 279.84 160.6375 
" style="fill:none;stroke:#b8860b;stroke-linecap:square;stroke-width:3;"/>
    </g>
    <g id="line2d_29"/>
    <g id="text_24">
     <!-- infected wild host $I_w(t)$ -->
     <g transform="translate(292.64 166.2375)scale(0.16 -0.16)">
      <use transform="translate(0 0.015625)" xlink:href="#DejaVuSans-69"/>
      <use transform="translate(27.783203 0.015625)" xlink:href="#DejaVuSans-6e"/>
      <use transform="translate(91.162109 0.015625)" xlink:href="#DejaVuSans-66"/>
      <use transform="translate(126.367188 0.015625)" xlink:href="#DejaVuSans-65"/>
      <use transform="translate(187.890625 0.015625)" xlink:href="#DejaVuSans-63"/>
      <use transform="translate(242.871094 0.015625)" xlink:href="#DejaVuSans-74"/>
      <use transform="translate(282.080078 0.015625)" xlink:href="#DejaVuSans-65"/>
      <use transform="translate(343.603516 0.015625)" xlink:href="#DejaVuSans-64"/>
      <use transform="translate(407.080078 0.015625)" xlink:href="#DejaVuSans-20"/>
      <use transform="translate(438.867188 0.015625)" xlink:href="#DejaVuSans-77"/>
      <use transform="translate(520.654297 0.015625)" xlink:href="#DejaVuSans-69"/>
      <use transform="translate(548.4375 0.015625)" xlink:href="#DejaVuSans-6c"/>
      <use transform="translate(576.220703 0.015625)" xlink:href="#DejaVuSans-64"/>
      <use transform="translate(639.697266 0.015625)" xlink:href="#DejaVuSans-20"/>
      <use transform="translate(671.484375 0.015625)" xlink:href="#DejaVuSans-68"/>
      <use transform="translate(734.863281 0.015625)" xlink:href="#DejaVuSans-6f"/>
      <use transform="translate(796.044922 0.015625)" xlink:href="#DejaVuSans-73"/>
      <use transform="translate(848.144531 0.015625)" xlink:href="#DejaVuSans-74"/>
      <use transform="translate(887.353516 0.015625)" xlink:href="#DejaVuSans-20"/>
      <use transform="translate(919.140625 0.015625)" xlink:href="#DejaVuSans-Oblique-49"/>
      <use transform="translate(948.632812 -16.390625)scale(0.7)" xlink:href="#DejaVuSans-Oblique-77"/>
      <use transform="translate(1008.618164 0.015625)" xlink:href="#DejaVuSans-28"/>
      <use transform="translate(1047.631836 0.015625)" xlink:href="#DejaVuSans-Oblique-74"/>
      <use transform="translate(1086.84082 0.015625)" xlink:href="#DejaVuSans-29"/>
     </g>
    </g>
   </g>
  </g>
 </g>
 <defs>
  <clipPath id="p9014a5c089">
   <rect height="434.88" width="446.4" x="72" y="69.12"/>
  </clipPath>
 </defs>
</svg>
