<?xml version="1.0" encoding="utf-8" standalone="no"?>
<!DOCTYPE svg PUBLIC "-//W3C//DTD SVG 1.1//EN"
  "http://www.w3.org/Graphics/SVG/1.1/DTD/svg11.dtd">
<svg height="525.6pt" version="1.1" viewBox="0 0 576 525.6" width="576pt" xmlns="http://www.w3.org/2000/svg" xmlns:xlink="http://www.w3.org/1999/xlink">
 <metadata>
  <rdf:RDF xmlns:cc="http://creativecommons.org/ns#" xmlns:dc="http://purl.org/dc/elements/1.1/" xmlns:rdf="http://www.w3.org/1999/02/22-rdf-syntax-ns#">
   <cc:Work>
    <dc:type rdf:resource="http://purl.org/dc/dcmitype/StillImage"/>
    <dc:date>2025-12-07T13:02:14.155648</dc:date>
    <dc:format>image/svg+xml</dc:format>
    <dc:creator>
     <cc:Agent>
      <dc:title>Matplotlib v3.4.3, https://matplotlib.org/</dc:title>
     </cc:Agent>
    </dc:creator>
   </cc:Work>
  </rdf:RDF>
 </metadata>
 <defs>
  <style type="text/css">*{stroke-linecap:butt;stroke-linejoin:round;}</style>
 </defs>
 <g id="figure_1">
  <g id="patch_1">
   <path d="M 0 525.6 
L 576 525.6 
L 576 0 
L 0 0 
z
" style="fill:none;"/>
  </g>
  <g id="axes_1">
   <g id="patch_2">
    <path d="M 69.175 466.8 
L 552.5125 466.8 
L 552.5125 32.8 
L 69.175 32.8 
z
" style="fill:#ffffff;"/>
   </g>
   <g id="matplotlib.axis_1">
    <g id="xtick_1">
     <g id="line2d_1">
      <path clip-path="url(#p5caf19cb03)" d="M 69.175 466.8 
L 69.175 32.8 
" style="fill:none;stroke:#b0b0b0;stroke-linecap:square;stroke-width:0.8;"/>
     </g>
     <g id="line2d_2">
      <defs>
       <path d="M 0 0 
L 0 3.5 
" id="m601fee8ff1" style="stroke:#000000;stroke-width:0.8;"/>
      </defs>
      <g>
       <use style="stroke:#000000;stroke-width:0.8;" x="69.175" xlink:href="#m601fee8ff1" y="466.8"/>
      </g>
     </g>
     <g id="text_1">
      <!-- 0.0 -->
      <g transform="translate(56.4525 485.9575)scale(0.16 -0.16)">
       <defs>
        <path d="M 2034 4250 
Q 1547 4250 1301 3770 
Q 1056 3291 1056 2328 
Q 1056 1369 1301 889 
Q 1547 409 2034 409 
Q 2525 409 2770 889 
Q 3016 1369 3016 2328 
Q 3016 3291 2770 3770 
Q 2525 4250 2034 4250 
z
M 2034 4750 
Q 2819 4750 3233 4129 
Q 3647 3509 3647 2328 
Q 3647 1150 3233 529 
Q 2819 -91 2034 -91 
Q 1250 -91 836 529 
Q 422 1150 422 2328 
Q 422 3509 836 4129 
Q 1250 4750 2034 4750 
z
" id="DejaVuSans-30" transform="scale(0.015625)"/>
        <path d="M 684 794 
L 1344 794 
L 1344 0 
L 684 0 
L 684 794 
z
" id="DejaVuSans-2e" transform="scale(0.015625)"/>
       </defs>
       <use xlink:href="#DejaVuSans-30"/>
       <use x="63.623047" xlink:href="#DejaVuSans-2e"/>
       <use x="95.410156" xlink:href="#DejaVuSans-30"/>
      </g>
     </g>
    </g>
    <g id="xtick_2">
     <g id="line2d_3">
      <path clip-path="url(#p5caf19cb03)" d="M 165.8425 466.8 
L 165.8425 32.8 
" style="fill:none;stroke:#b0b0b0;stroke-linecap:square;stroke-width:0.8;"/>
     </g>
     <g id="line2d_4">
      <g>
       <use style="stroke:#000000;stroke-width:0.8;" x="165.8425" xlink:href="#m601fee8ff1" y="466.8"/>
      </g>
     </g>
     <g id="text_2">
      <!-- 0.2 -->
      <g transform="translate(153.12 485.9575)scale(0.16 -0.16)">
       <defs>
        <path d="M 1228 531 
L 3431 531 
L 3431 0 
L 469 0 
L 469 531 
Q 828 903 1448 1529 
Q 2069 2156 2228 2338 
Q 2531 2678 2651 2914 
Q 2772 3150 2772 3378 
Q 2772 3750 2511 3984 
Q 2250 4219 1831 4219 
Q 1534 4219 1204 4116 
Q 875 4013 500 3803 
L 500 4441 
Q 881 4594 1212 4672 
Q 1544 4750 1819 4750 
Q 2544 4750 2975 4387 
Q 3406 4025 3406 3419 
Q 3406 3131 3298 2873 
Q 3191 2616 2906 2266 
Q 2828 2175 2409 1742 
Q 1991 1309 1228 531 
z
" id="DejaVuSans-32" transform="scale(0.015625)"/>
       </defs>
       <use xlink:href="#DejaVuSans-30"/>
       <use x="63.623047" xlink:href="#DejaVuSans-2e"/>
       <use x="95.410156" xlink:href="#DejaVuSans-32"/>
      </g>
     </g>
    </g>
    <g id="xtick_3">
     <g id="line2d_5">
      <path clip-path="url(#p5caf19cb03)" d="M 262.51 466.8 
L 262.51 32.8 
" style="fill:none;stroke:#b0b0b0;stroke-linecap:square;stroke-width:0.8;"/>
     </g>
     <g id="line2d_6">
      <g>
       <use style="stroke:#000000;stroke-width:0.8;" x="262.51" xlink:href="#m601fee8ff1" y="466.8"/>
      </g>
     </g>
     <g id="text_3">
      <!-- 0.4 -->
      <g transform="translate(249.7875 485.9575)scale(0.16 -0.16)">
       <defs>
        <path d="M 2419 4116 
L 825 1625 
L 2419 1625 
L 2419 4116 
z
M 2253 4666 
L 3047 4666 
L 3047 1625 
L 3713 1625 
L 3713 1100 
L 3047 1100 
L 3047 0 
L 2419 0 
L 2419 1100 
L 313 1100 
L 313 1709 
L 2253 4666 
z
" id="DejaVuSans-34" transform="scale(0.015625)"/>
       </defs>
       <use xlink:href="#DejaVuSans-30"/>
       <use x="63.623047" xlink:href="#DejaVuSans-2e"/>
       <use x="95.410156" xlink:href="#DejaVuSans-34"/>
      </g>
     </g>
    </g>
    <g id="xtick_4">
     <g id="line2d_7">
      <path clip-path="url(#p5caf19cb03)" d="M 359.1775 466.8 
L 359.1775 32.8 
" style="fill:none;stroke:#b0b0b0;stroke-linecap:square;stroke-width:0.8;"/>
     </g>
     <g id="line2d_8">
      <g>
       <use style="stroke:#000000;stroke-width:0.8;" x="359.1775" xlink:href="#m601fee8ff1" y="466.8"/>
      </g>
     </g>
     <g id="text_4">
      <!-- 0.6 -->
      <g transform="translate(346.455 485.9575)scale(0.16 -0.16)">
       <defs>
        <path d="M 2113 2584 
Q 1688 2584 1439 2293 
Q 1191 2003 1191 1497 
Q 1191 994 1439 701 
Q 1688 409 2113 409 
Q 2538 409 2786 701 
Q 3034 994 3034 1497 
Q 3034 2003 2786 2293 
Q 2538 2584 2113 2584 
z
M 3366 4563 
L 3366 3988 
Q 3128 4100 2886 4159 
Q 2644 4219 2406 4219 
Q 1781 4219 1451 3797 
Q 1122 3375 1075 2522 
Q 1259 2794 1537 2939 
Q 1816 3084 2150 3084 
Q 2853 3084 3261 2657 
Q 3669 2231 3669 1497 
Q 3669 778 3244 343 
Q 2819 -91 2113 -91 
Q 1303 -91 875 529 
Q 447 1150 447 2328 
Q 447 3434 972 4092 
Q 1497 4750 2381 4750 
Q 2619 4750 2861 4703 
Q 3103 4656 3366 4563 
z
" id="DejaVuSans-36" transform="scale(0.015625)"/>
       </defs>
       <use xlink:href="#DejaVuSans-30"/>
       <use x="63.623047" xlink:href="#DejaVuSans-2e"/>
       <use x="95.410156" xlink:href="#DejaVuSans-36"/>
      </g>
     </g>
    </g>
    <g id="xtick_5">
     <g id="line2d_9">
      <path clip-path="url(#p5caf19cb03)" d="M 455.845 466.8 
L 455.845 32.8 
" style="fill:none;stroke:#b0b0b0;stroke-linecap:square;stroke-width:0.8;"/>
     </g>
     <g id="line2d_10">
      <g>
       <use style="stroke:#000000;stroke-width:0.8;" x="455.845" xlink:href="#m601fee8ff1" y="466.8"/>
      </g>
     </g>
     <g id="text_5">
      <!-- 0.8 -->
      <g transform="translate(443.1225 485.9575)scale(0.16 -0.16)">
       <defs>
        <path d="M 2034 2216 
Q 1584 2216 1326 1975 
Q 1069 1734 1069 1313 
Q 1069 891 1326 650 
Q 1584 409 2034 409 
Q 2484 409 2743 651 
Q 3003 894 3003 1313 
Q 3003 1734 2745 1975 
Q 2488 2216 2034 2216 
z
M 1403 2484 
Q 997 2584 770 2862 
Q 544 3141 544 3541 
Q 544 4100 942 4425 
Q 1341 4750 2034 4750 
Q 2731 4750 3128 4425 
Q 3525 4100 3525 3541 
Q 3525 3141 3298 2862 
Q 3072 2584 2669 2484 
Q 3125 2378 3379 2068 
Q 3634 1759 3634 1313 
Q 3634 634 3220 271 
Q 2806 -91 2034 -91 
Q 1263 -91 848 271 
Q 434 634 434 1313 
Q 434 1759 690 2068 
Q 947 2378 1403 2484 
z
M 1172 3481 
Q 1172 3119 1398 2916 
Q 1625 2713 2034 2713 
Q 2441 2713 2670 2916 
Q 2900 3119 2900 3481 
Q 2900 3844 2670 4047 
Q 2441 4250 2034 4250 
Q 1625 4250 1398 4047 
Q 1172 3844 1172 3481 
z
" id="DejaVuSans-38" transform="scale(0.015625)"/>
       </defs>
       <use xlink:href="#DejaVuSans-30"/>
       <use x="63.623047" xlink:href="#DejaVuSans-2e"/>
       <use x="95.410156" xlink:href="#DejaVuSans-38"/>
      </g>
     </g>
    </g>
    <g id="xtick_6">
     <g id="line2d_11">
      <path clip-path="url(#p5caf19cb03)" d="M 552.5125 466.8 
L 552.5125 32.8 
" style="fill:none;stroke:#b0b0b0;stroke-linecap:square;stroke-width:0.8;"/>
     </g>
     <g id="line2d_12">
      <g>
       <use style="stroke:#000000;stroke-width:0.8;" x="552.5125" xlink:href="#m601fee8ff1" y="466.8"/>
      </g>
     </g>
     <g id="text_6">
      <!-- 1.0 -->
      <g transform="translate(539.79 485.9575)scale(0.16 -0.16)">
       <defs>
        <path d="M 794 531 
L 1825 531 
L 1825 4091 
L 703 3866 
L 703 4441 
L 1819 4666 
L 2450 4666 
L 2450 531 
L 3481 531 
L 3481 0 
L 794 0 
L 794 531 
z
" id="DejaVuSans-31" transform="scale(0.015625)"/>
       </defs>
       <use xlink:href="#DejaVuSans-31"/>
       <use x="63.623047" xlink:href="#DejaVuSans-2e"/>
       <use x="95.410156" xlink:href="#DejaVuSans-30"/>
      </g>
     </g>
    </g>
    <g id="text_7">
     <!-- proportion of cost allocated to crop $\pi$ -->
     <g transform="translate(143.62375 506.965)scale(0.18 -0.18)">
      <defs>
       <path d="M 1159 525 
L 1159 -1331 
L 581 -1331 
L 581 3500 
L 1159 3500 
L 1159 2969 
Q 1341 3281 1617 3432 
Q 1894 3584 2278 3584 
Q 2916 3584 3314 3078 
Q 3713 2572 3713 1747 
Q 3713 922 3314 415 
Q 2916 -91 2278 -91 
Q 1894 -91 1617 61 
Q 1341 213 1159 525 
z
M 3116 1747 
Q 3116 2381 2855 2742 
Q 2594 3103 2138 3103 
Q 1681 3103 1420 2742 
Q 1159 2381 1159 1747 
Q 1159 1113 1420 752 
Q 1681 391 2138 391 
Q 2594 391 2855 752 
Q 3116 1113 3116 1747 
z
" id="DejaVuSans-70" transform="scale(0.015625)"/>
       <path d="M 2631 2963 
Q 2534 3019 2420 3045 
Q 2306 3072 2169 3072 
Q 1681 3072 1420 2755 
Q 1159 2438 1159 1844 
L 1159 0 
L 581 0 
L 581 3500 
L 1159 3500 
L 1159 2956 
Q 1341 3275 1631 3429 
Q 1922 3584 2338 3584 
Q 2397 3584 2469 3576 
Q 2541 3569 2628 3553 
L 2631 2963 
z
" id="DejaVuSans-72" transform="scale(0.015625)"/>
       <path d="M 1959 3097 
Q 1497 3097 1228 2736 
Q 959 2375 959 1747 
Q 959 1119 1226 758 
Q 1494 397 1959 397 
Q 2419 397 2687 759 
Q 2956 1122 2956 1747 
Q 2956 2369 2687 2733 
Q 2419 3097 1959 3097 
z
M 1959 3584 
Q 2709 3584 3137 3096 
Q 3566 2609 3566 1747 
Q 3566 888 3137 398 
Q 2709 -91 1959 -91 
Q 1206 -91 779 398 
Q 353 888 353 1747 
Q 353 2609 779 3096 
Q 1206 3584 1959 3584 
z
" id="DejaVuSans-6f" transform="scale(0.015625)"/>
       <path d="M 1172 4494 
L 1172 3500 
L 2356 3500 
L 2356 3053 
L 1172 3053 
L 1172 1153 
Q 1172 725 1289 603 
Q 1406 481 1766 481 
L 2356 481 
L 2356 0 
L 1766 0 
Q 1100 0 847 248 
Q 594 497 594 1153 
L 594 3053 
L 172 3053 
L 172 3500 
L 594 3500 
L 594 4494 
L 1172 4494 
z
" id="DejaVuSans-74" transform="scale(0.015625)"/>
       <path d="M 603 3500 
L 1178 3500 
L 1178 0 
L 603 0 
L 603 3500 
z
M 603 4863 
L 1178 4863 
L 1178 4134 
L 603 4134 
L 603 4863 
z
" id="DejaVuSans-69" transform="scale(0.015625)"/>
       <path d="M 3513 2113 
L 3513 0 
L 2938 0 
L 2938 2094 
Q 2938 2591 2744 2837 
Q 2550 3084 2163 3084 
Q 1697 3084 1428 2787 
Q 1159 2491 1159 1978 
L 1159 0 
L 581 0 
L 581 3500 
L 1159 3500 
L 1159 2956 
Q 1366 3272 1645 3428 
Q 1925 3584 2291 3584 
Q 2894 3584 3203 3211 
Q 3513 2838 3513 2113 
z
" id="DejaVuSans-6e" transform="scale(0.015625)"/>
       <path id="DejaVuSans-20" transform="scale(0.015625)"/>
       <path d="M 2375 4863 
L 2375 4384 
L 1825 4384 
Q 1516 4384 1395 4259 
Q 1275 4134 1275 3809 
L 1275 3500 
L 2222 3500 
L 2222 3053 
L 1275 3053 
L 1275 0 
L 697 0 
L 697 3053 
L 147 3053 
L 147 3500 
L 697 3500 
L 697 3744 
Q 697 4328 969 4595 
Q 1241 4863 1831 4863 
L 2375 4863 
z
" id="DejaVuSans-66" transform="scale(0.015625)"/>
       <path d="M 3122 3366 
L 3122 2828 
Q 2878 2963 2633 3030 
Q 2388 3097 2138 3097 
Q 1578 3097 1268 2742 
Q 959 2388 959 1747 
Q 959 1106 1268 751 
Q 1578 397 2138 397 
Q 2388 397 2633 464 
Q 2878 531 3122 666 
L 3122 134 
Q 2881 22 2623 -34 
Q 2366 -91 2075 -91 
Q 1284 -91 818 406 
Q 353 903 353 1747 
Q 353 2603 823 3093 
Q 1294 3584 2113 3584 
Q 2378 3584 2631 3529 
Q 2884 3475 3122 3366 
z
" id="DejaVuSans-63" transform="scale(0.015625)"/>
       <path d="M 2834 3397 
L 2834 2853 
Q 2591 2978 2328 3040 
Q 2066 3103 1784 3103 
Q 1356 3103 1142 2972 
Q 928 2841 928 2578 
Q 928 2378 1081 2264 
Q 1234 2150 1697 2047 
L 1894 2003 
Q 2506 1872 2764 1633 
Q 3022 1394 3022 966 
Q 3022 478 2636 193 
Q 2250 -91 1575 -91 
Q 1294 -91 989 -36 
Q 684 19 347 128 
L 347 722 
Q 666 556 975 473 
Q 1284 391 1588 391 
Q 1994 391 2212 530 
Q 2431 669 2431 922 
Q 2431 1156 2273 1281 
Q 2116 1406 1581 1522 
L 1381 1569 
Q 847 1681 609 1914 
Q 372 2147 372 2553 
Q 372 3047 722 3315 
Q 1072 3584 1716 3584 
Q 2034 3584 2315 3537 
Q 2597 3491 2834 3397 
z
" id="DejaVuSans-73" transform="scale(0.015625)"/>
       <path d="M 2194 1759 
Q 1497 1759 1228 1600 
Q 959 1441 959 1056 
Q 959 750 1161 570 
Q 1363 391 1709 391 
Q 2188 391 2477 730 
Q 2766 1069 2766 1631 
L 2766 1759 
L 2194 1759 
z
M 3341 1997 
L 3341 0 
L 2766 0 
L 2766 531 
Q 2569 213 2275 61 
Q 1981 -91 1556 -91 
Q 1019 -91 701 211 
Q 384 513 384 1019 
Q 384 1609 779 1909 
Q 1175 2209 1959 2209 
L 2766 2209 
L 2766 2266 
Q 2766 2663 2505 2880 
Q 2244 3097 1772 3097 
Q 1472 3097 1187 3025 
Q 903 2953 641 2809 
L 641 3341 
Q 956 3463 1253 3523 
Q 1550 3584 1831 3584 
Q 2591 3584 2966 3190 
Q 3341 2797 3341 1997 
z
" id="DejaVuSans-61" transform="scale(0.015625)"/>
       <path d="M 603 4863 
L 1178 4863 
L 1178 0 
L 603 0 
L 603 4863 
z
" id="DejaVuSans-6c" transform="scale(0.015625)"/>
       <path d="M 3597 1894 
L 3597 1613 
L 953 1613 
Q 991 1019 1311 708 
Q 1631 397 2203 397 
Q 2534 397 2845 478 
Q 3156 559 3463 722 
L 3463 178 
Q 3153 47 2828 -22 
Q 2503 -91 2169 -91 
Q 1331 -91 842 396 
Q 353 884 353 1716 
Q 353 2575 817 3079 
Q 1281 3584 2069 3584 
Q 2775 3584 3186 3129 
Q 3597 2675 3597 1894 
z
M 3022 2063 
Q 3016 2534 2758 2815 
Q 2500 3097 2075 3097 
Q 1594 3097 1305 2825 
Q 1016 2553 972 2059 
L 3022 2063 
z
" id="DejaVuSans-65" transform="scale(0.015625)"/>
       <path d="M 2906 2969 
L 2906 4863 
L 3481 4863 
L 3481 0 
L 2906 0 
L 2906 525 
Q 2725 213 2448 61 
Q 2172 -91 1784 -91 
Q 1150 -91 751 415 
Q 353 922 353 1747 
Q 353 2572 751 3078 
Q 1150 3584 1784 3584 
Q 2172 3584 2448 3432 
Q 2725 3281 2906 2969 
z
M 947 1747 
Q 947 1113 1208 752 
Q 1469 391 1925 391 
Q 2381 391 2643 752 
Q 2906 1113 2906 1747 
Q 2906 2381 2643 2742 
Q 2381 3103 1925 3103 
Q 1469 3103 1208 2742 
Q 947 2381 947 1747 
z
" id="DejaVuSans-64" transform="scale(0.015625)"/>
       <path d="M 584 3500 
L 3938 3500 
L 3825 2925 
L 3384 2925 
L 2966 775 
Q 2922 550 2981 450 
Q 3038 353 3209 353 
Q 3256 353 3325 363 
Q 3397 369 3419 372 
L 3338 -44 
Q 3222 -84 3103 -103 
Q 2981 -122 2866 -122 
Q 2491 -122 2388 81 
Q 2284 288 2391 838 
L 2797 2925 
L 1506 2925 
L 938 0 
L 350 0 
L 919 2925 
L 472 2925 
L 584 3500 
z
" id="DejaVuSans-Oblique-3c0" transform="scale(0.015625)"/>
      </defs>
      <use transform="translate(0 0.015625)" xlink:href="#DejaVuSans-70"/>
      <use transform="translate(63.476562 0.015625)" xlink:href="#DejaVuSans-72"/>
      <use transform="translate(104.589844 0.015625)" xlink:href="#DejaVuSans-6f"/>
      <use transform="translate(165.771484 0.015625)" xlink:href="#DejaVuSans-70"/>
      <use transform="translate(229.248047 0.015625)" xlink:href="#DejaVuSans-6f"/>
      <use transform="translate(290.429688 0.015625)" xlink:href="#DejaVuSans-72"/>
      <use transform="translate(331.542969 0.015625)" xlink:href="#DejaVuSans-74"/>
      <use transform="translate(370.751953 0.015625)" xlink:href="#DejaVuSans-69"/>
      <use transform="translate(398.535156 0.015625)" xlink:href="#DejaVuSans-6f"/>
      <use transform="translate(459.716797 0.015625)" xlink:href="#DejaVuSans-6e"/>
      <use transform="translate(523.095703 0.015625)" xlink:href="#DejaVuSans-20"/>
      <use transform="translate(554.882812 0.015625)" xlink:href="#DejaVuSans-6f"/>
      <use transform="translate(616.064453 0.015625)" xlink:href="#DejaVuSans-66"/>
      <use transform="translate(651.269531 0.015625)" xlink:href="#DejaVuSans-20"/>
      <use transform="translate(683.056641 0.015625)" xlink:href="#DejaVuSans-63"/>
      <use transform="translate(738.037109 0.015625)" xlink:href="#DejaVuSans-6f"/>
      <use transform="translate(799.21875 0.015625)" xlink:href="#DejaVuSans-73"/>
      <use transform="translate(851.318359 0.015625)" xlink:href="#DejaVuSans-74"/>
      <use transform="translate(890.527344 0.015625)" xlink:href="#DejaVuSans-20"/>
      <use transform="translate(922.314453 0.015625)" xlink:href="#DejaVuSans-61"/>
      <use transform="translate(983.59375 0.015625)" xlink:href="#DejaVuSans-6c"/>
      <use transform="translate(1011.376953 0.015625)" xlink:href="#DejaVuSans-6c"/>
      <use transform="translate(1039.160156 0.015625)" xlink:href="#DejaVuSans-6f"/>
      <use transform="translate(1100.341797 0.015625)" xlink:href="#DejaVuSans-63"/>
      <use transform="translate(1155.322266 0.015625)" xlink:href="#DejaVuSans-61"/>
      <use transform="translate(1216.601562 0.015625)" xlink:href="#DejaVuSans-74"/>
      <use transform="translate(1255.810547 0.015625)" xlink:href="#DejaVuSans-65"/>
      <use transform="translate(1317.333984 0.015625)" xlink:href="#DejaVuSans-64"/>
      <use transform="translate(1380.810547 0.015625)" xlink:href="#DejaVuSans-20"/>
      <use transform="translate(1412.597656 0.015625)" xlink:href="#DejaVuSans-74"/>
      <use transform="translate(1451.806641 0.015625)" xlink:href="#DejaVuSans-6f"/>
      <use transform="translate(1512.988281 0.015625)" xlink:href="#DejaVuSans-20"/>
      <use transform="translate(1544.775391 0.015625)" xlink:href="#DejaVuSans-63"/>
      <use transform="translate(1599.755859 0.015625)" xlink:href="#DejaVuSans-72"/>
      <use transform="translate(1640.869141 0.015625)" xlink:href="#DejaVuSans-6f"/>
      <use transform="translate(1702.050781 0.015625)" xlink:href="#DejaVuSans-70"/>
      <use transform="translate(1765.527344 0.015625)" xlink:href="#DejaVuSans-20"/>
      <use transform="translate(1797.314453 0.015625)" xlink:href="#DejaVuSans-Oblique-3c0"/>
     </g>
    </g>
   </g>
   <g id="matplotlib.axis_2">
    <g id="ytick_1">
     <g id="line2d_13">
      <path clip-path="url(#p5caf19cb03)" d="M 69.175 466.8 
L 552.5125 466.8 
" style="fill:none;stroke:#b0b0b0;stroke-linecap:square;stroke-width:0.8;"/>
     </g>
     <g id="line2d_14">
      <defs>
       <path d="M 0 0 
L -3.5 0 
" id="m9132c9a3cb" style="stroke:#000000;stroke-width:0.8;"/>
      </defs>
      <g>
       <use style="stroke:#000000;stroke-width:0.8;" x="69.175" xlink:href="#m9132c9a3cb" y="466.8"/>
      </g>
     </g>
     <g id="text_8">
      <!-- 0.0 -->
      <g transform="translate(36.73 472.87875)scale(0.16 -0.16)">
       <use xlink:href="#DejaVuSans-30"/>
       <use x="63.623047" xlink:href="#DejaVuSans-2e"/>
       <use x="95.410156" xlink:href="#DejaVuSans-30"/>
      </g>
     </g>
    </g>
    <g id="ytick_2">
     <g id="line2d_15">
      <path clip-path="url(#p5caf19cb03)" d="M 69.175 401.042424 
L 552.5125 401.042424 
" style="fill:none;stroke:#b0b0b0;stroke-linecap:square;stroke-width:0.8;"/>
     </g>
     <g id="line2d_16">
      <g>
       <use style="stroke:#000000;stroke-width:0.8;" x="69.175" xlink:href="#m9132c9a3cb" y="401.042424"/>
      </g>
     </g>
     <g id="text_9">
      <!-- 0.5 -->
      <g transform="translate(36.73 407.121174)scale(0.16 -0.16)">
       <defs>
        <path d="M 691 4666 
L 3169 4666 
L 3169 4134 
L 1269 4134 
L 1269 2991 
Q 1406 3038 1543 3061 
Q 1681 3084 1819 3084 
Q 2600 3084 3056 2656 
Q 3513 2228 3513 1497 
Q 3513 744 3044 326 
Q 2575 -91 1722 -91 
Q 1428 -91 1123 -41 
Q 819 9 494 109 
L 494 744 
Q 775 591 1075 516 
Q 1375 441 1709 441 
Q 2250 441 2565 725 
Q 2881 1009 2881 1497 
Q 2881 1984 2565 2268 
Q 2250 2553 1709 2553 
Q 1456 2553 1204 2497 
Q 953 2441 691 2322 
L 691 4666 
z
" id="DejaVuSans-35" transform="scale(0.015625)"/>
       </defs>
       <use xlink:href="#DejaVuSans-30"/>
       <use x="63.623047" xlink:href="#DejaVuSans-2e"/>
       <use x="95.410156" xlink:href="#DejaVuSans-35"/>
      </g>
     </g>
    </g>
    <g id="ytick_3">
     <g id="line2d_17">
      <path clip-path="url(#p5caf19cb03)" d="M 69.175 335.284848 
L 552.5125 335.284848 
" style="fill:none;stroke:#b0b0b0;stroke-linecap:square;stroke-width:0.8;"/>
     </g>
     <g id="line2d_18">
      <g>
       <use style="stroke:#000000;stroke-width:0.8;" x="69.175" xlink:href="#m9132c9a3cb" y="335.284848"/>
      </g>
     </g>
     <g id="text_10">
      <!-- 1.0 -->
      <g transform="translate(36.73 341.363598)scale(0.16 -0.16)">
       <use xlink:href="#DejaVuSans-31"/>
       <use x="63.623047" xlink:href="#DejaVuSans-2e"/>
       <use x="95.410156" xlink:href="#DejaVuSans-30"/>
      </g>
     </g>
    </g>
    <g id="ytick_4">
     <g id="line2d_19">
      <path clip-path="url(#p5caf19cb03)" d="M 69.175 269.527273 
L 552.5125 269.527273 
" style="fill:none;stroke:#b0b0b0;stroke-linecap:square;stroke-width:0.8;"/>
     </g>
     <g id="line2d_20">
      <g>
       <use style="stroke:#000000;stroke-width:0.8;" x="69.175" xlink:href="#m9132c9a3cb" y="269.527273"/>
      </g>
     </g>
     <g id="text_11">
      <!-- 1.5 -->
      <g transform="translate(36.73 275.606023)scale(0.16 -0.16)">
       <use xlink:href="#DejaVuSans-31"/>
       <use x="63.623047" xlink:href="#DejaVuSans-2e"/>
       <use x="95.410156" xlink:href="#DejaVuSans-35"/>
      </g>
     </g>
    </g>
    <g id="ytick_5">
     <g id="line2d_21">
      <path clip-path="url(#p5caf19cb03)" d="M 69.175 203.769697 
L 552.5125 203.769697 
" style="fill:none;stroke:#b0b0b0;stroke-linecap:square;stroke-width:0.8;"/>
     </g>
     <g id="line2d_22">
      <g>
       <use style="stroke:#000000;stroke-width:0.8;" x="69.175" xlink:href="#m9132c9a3cb" y="203.769697"/>
      </g>
     </g>
     <g id="text_12">
      <!-- 2.0 -->
      <g transform="translate(36.73 209.848447)scale(0.16 -0.16)">
       <use xlink:href="#DejaVuSans-32"/>
       <use x="63.623047" xlink:href="#DejaVuSans-2e"/>
       <use x="95.410156" xlink:href="#DejaVuSans-30"/>
      </g>
     </g>
    </g>
    <g id="ytick_6">
     <g id="line2d_23">
      <path clip-path="url(#p5caf19cb03)" d="M 69.175 138.012121 
L 552.5125 138.012121 
" style="fill:none;stroke:#b0b0b0;stroke-linecap:square;stroke-width:0.8;"/>
     </g>
     <g id="line2d_24">
      <g>
       <use style="stroke:#000000;stroke-width:0.8;" x="69.175" xlink:href="#m9132c9a3cb" y="138.012121"/>
      </g>
     </g>
     <g id="text_13">
      <!-- 2.5 -->
      <g transform="translate(36.73 144.090871)scale(0.16 -0.16)">
       <use xlink:href="#DejaVuSans-32"/>
       <use x="63.623047" xlink:href="#DejaVuSans-2e"/>
       <use x="95.410156" xlink:href="#DejaVuSans-35"/>
      </g>
     </g>
    </g>
    <g id="ytick_7">
     <g id="line2d_25">
      <path clip-path="url(#p5caf19cb03)" d="M 69.175 72.254545 
L 552.5125 72.254545 
" style="fill:none;stroke:#b0b0b0;stroke-linecap:square;stroke-width:0.8;"/>
     </g>
     <g id="line2d_26">
      <g>
       <use style="stroke:#000000;stroke-width:0.8;" x="69.175" xlink:href="#m9132c9a3cb" y="72.254545"/>
      </g>
     </g>
     <g id="text_14">
      <!-- 3.0 -->
      <g transform="translate(36.73 78.333295)scale(0.16 -0.16)">
       <defs>
        <path d="M 2597 2516 
Q 3050 2419 3304 2112 
Q 3559 1806 3559 1356 
Q 3559 666 3084 287 
Q 2609 -91 1734 -91 
Q 1441 -91 1130 -33 
Q 819 25 488 141 
L 488 750 
Q 750 597 1062 519 
Q 1375 441 1716 441 
Q 2309 441 2620 675 
Q 2931 909 2931 1356 
Q 2931 1769 2642 2001 
Q 2353 2234 1838 2234 
L 1294 2234 
L 1294 2753 
L 1863 2753 
Q 2328 2753 2575 2939 
Q 2822 3125 2822 3475 
Q 2822 3834 2567 4026 
Q 2313 4219 1838 4219 
Q 1578 4219 1281 4162 
Q 984 4106 628 3988 
L 628 4550 
Q 988 4650 1302 4700 
Q 1616 4750 1894 4750 
Q 2613 4750 3031 4423 
Q 3450 4097 3450 3541 
Q 3450 3153 3228 2886 
Q 3006 2619 2597 2516 
z
" id="DejaVuSans-33" transform="scale(0.015625)"/>
       </defs>
       <use xlink:href="#DejaVuSans-33"/>
       <use x="63.623047" xlink:href="#DejaVuSans-2e"/>
       <use x="95.410156" xlink:href="#DejaVuSans-30"/>
      </g>
     </g>
    </g>
    <g id="text_15">
     <!-- basic reproduction number $R_0$ -->
     <g transform="translate(28.95 385.16)rotate(-90)scale(0.18 -0.18)">
      <defs>
       <path d="M 3116 1747 
Q 3116 2381 2855 2742 
Q 2594 3103 2138 3103 
Q 1681 3103 1420 2742 
Q 1159 2381 1159 1747 
Q 1159 1113 1420 752 
Q 1681 391 2138 391 
Q 2594 391 2855 752 
Q 3116 1113 3116 1747 
z
M 1159 2969 
Q 1341 3281 1617 3432 
Q 1894 3584 2278 3584 
Q 2916 3584 3314 3078 
Q 3713 2572 3713 1747 
Q 3713 922 3314 415 
Q 2916 -91 2278 -91 
Q 1894 -91 1617 61 
Q 1341 213 1159 525 
L 1159 0 
L 581 0 
L 581 4863 
L 1159 4863 
L 1159 2969 
z
" id="DejaVuSans-62" transform="scale(0.015625)"/>
       <path d="M 544 1381 
L 544 3500 
L 1119 3500 
L 1119 1403 
Q 1119 906 1312 657 
Q 1506 409 1894 409 
Q 2359 409 2629 706 
Q 2900 1003 2900 1516 
L 2900 3500 
L 3475 3500 
L 3475 0 
L 2900 0 
L 2900 538 
Q 2691 219 2414 64 
Q 2138 -91 1772 -91 
Q 1169 -91 856 284 
Q 544 659 544 1381 
z
M 1991 3584 
L 1991 3584 
z
" id="DejaVuSans-75" transform="scale(0.015625)"/>
       <path d="M 3328 2828 
Q 3544 3216 3844 3400 
Q 4144 3584 4550 3584 
Q 5097 3584 5394 3201 
Q 5691 2819 5691 2113 
L 5691 0 
L 5113 0 
L 5113 2094 
Q 5113 2597 4934 2840 
Q 4756 3084 4391 3084 
Q 3944 3084 3684 2787 
Q 3425 2491 3425 1978 
L 3425 0 
L 2847 0 
L 2847 2094 
Q 2847 2600 2669 2842 
Q 2491 3084 2119 3084 
Q 1678 3084 1418 2786 
Q 1159 2488 1159 1978 
L 1159 0 
L 581 0 
L 581 3500 
L 1159 3500 
L 1159 2956 
Q 1356 3278 1631 3431 
Q 1906 3584 2284 3584 
Q 2666 3584 2933 3390 
Q 3200 3197 3328 2828 
z
" id="DejaVuSans-6d" transform="scale(0.015625)"/>
       <path d="M 1613 4147 
L 1294 2491 
L 2106 2491 
Q 2584 2491 2879 2755 
Q 3175 3019 3175 3444 
Q 3175 3784 2976 3965 
Q 2778 4147 2406 4147 
L 1613 4147 
z
M 2772 2241 
Q 2972 2194 3105 2009 
Q 3238 1825 3413 1275 
L 3809 0 
L 3144 0 
L 2778 1197 
Q 2638 1659 2453 1815 
Q 2269 1972 1888 1972 
L 1191 1972 
L 806 0 
L 172 0 
L 1081 4666 
L 2503 4666 
Q 3150 4666 3495 4373 
Q 3841 4081 3841 3531 
Q 3841 3044 3547 2687 
Q 3253 2331 2772 2241 
z
" id="DejaVuSans-Oblique-52" transform="scale(0.015625)"/>
      </defs>
      <use transform="translate(0 0.015625)" xlink:href="#DejaVuSans-62"/>
      <use transform="translate(63.476562 0.015625)" xlink:href="#DejaVuSans-61"/>
      <use transform="translate(124.755859 0.015625)" xlink:href="#DejaVuSans-73"/>
      <use transform="translate(176.855469 0.015625)" xlink:href="#DejaVuSans-69"/>
      <use transform="translate(204.638672 0.015625)" xlink:href="#DejaVuSans-63"/>
      <use transform="translate(259.619141 0.015625)" xlink:href="#DejaVuSans-20"/>
      <use transform="translate(291.40625 0.015625)" xlink:href="#DejaVuSans-72"/>
      <use transform="translate(332.519531 0.015625)" xlink:href="#DejaVuSans-65"/>
      <use transform="translate(394.042969 0.015625)" xlink:href="#DejaVuSans-70"/>
      <use transform="translate(457.519531 0.015625)" xlink:href="#DejaVuSans-72"/>
      <use transform="translate(498.632812 0.015625)" xlink:href="#DejaVuSans-6f"/>
      <use transform="translate(559.814453 0.015625)" xlink:href="#DejaVuSans-64"/>
      <use transform="translate(623.291016 0.015625)" xlink:href="#DejaVuSans-75"/>
      <use transform="translate(686.669922 0.015625)" xlink:href="#DejaVuSans-63"/>
      <use transform="translate(741.650391 0.015625)" xlink:href="#DejaVuSans-74"/>
      <use transform="translate(780.859375 0.015625)" xlink:href="#DejaVuSans-69"/>
      <use transform="translate(808.642578 0.015625)" xlink:href="#DejaVuSans-6f"/>
      <use transform="translate(869.824219 0.015625)" xlink:href="#DejaVuSans-6e"/>
      <use transform="translate(933.203125 0.015625)" xlink:href="#DejaVuSans-20"/>
      <use transform="translate(964.990234 0.015625)" xlink:href="#DejaVuSans-6e"/>
      <use transform="translate(1028.369141 0.015625)" xlink:href="#DejaVuSans-75"/>
      <use transform="translate(1091.748047 0.015625)" xlink:href="#DejaVuSans-6d"/>
      <use transform="translate(1189.160156 0.015625)" xlink:href="#DejaVuSans-62"/>
      <use transform="translate(1252.636719 0.015625)" xlink:href="#DejaVuSans-65"/>
      <use transform="translate(1314.160156 0.015625)" xlink:href="#DejaVuSans-72"/>
      <use transform="translate(1355.273438 0.015625)" xlink:href="#DejaVuSans-20"/>
      <use transform="translate(1387.060547 0.015625)" xlink:href="#DejaVuSans-Oblique-52"/>
      <use transform="translate(1456.542969 -16.390625)scale(0.7)" xlink:href="#DejaVuSans-30"/>
     </g>
    </g>
   </g>
   <g id="line2d_27">
    <path clip-path="url(#p5caf19cb03)" d="M 74.008375 46.477685 
L 85.90965 52.658055 
L 100.19118 59.800078 
L 114.47271 66.646654 
L 128.754241 73.201433 
L 143.035771 79.467514 
L 157.317301 85.447435 
L 171.598831 91.143142 
L 185.880361 96.555973 
L 200.161891 101.686629 
L 214.443421 106.535154 
L 226.344697 110.359634 
L 238.245972 113.987013 
L 250.147247 117.416196 
L 262.048522 120.645732 
L 273.949797 123.673805 
L 285.851072 126.498229 
L 297.752347 129.116448 
L 309.653622 131.525534 
L 321.554898 133.722189 
L 333.456173 135.702754 
L 345.357448 137.463215 
L 357.258723 138.999222 
L 369.159998 140.306101 
L 381.061273 141.378881 
L 392.962548 142.212314 
L 404.863823 142.800904 
L 416.765099 143.138939 
L 428.666374 143.220511 
L 440.567649 143.039552 
L 452.468924 142.589853 
L 464.370199 141.86508 
L 473.891219 141.082879 
L 483.412239 140.117153 
L 492.933259 138.964496 
L 502.45428 137.621449 
L 511.9753 136.084479 
L 521.49632 134.349973 
L 531.01734 132.414215 
L 540.53836 130.273364 
L 547.679125 128.530737 
L 547.679125 128.530737 
" style="fill:none;stroke:#66c2a5;stroke-linecap:square;stroke-width:3;"/>
   </g>
   <g id="line2d_28">
    <path clip-path="url(#p5caf19cb03)" d="M 426.286119 143.225002 
" style="fill:none;stroke:#66c2a5;stroke-linecap:square;stroke-width:1.5;"/>
    <defs>
     <path d="M 0 4 
C 1.060812 4 2.078319 3.578535 2.828427 2.828427 
C 3.578535 2.078319 4 1.060812 4 0 
C 4 -1.060812 3.578535 -2.078319 2.828427 -2.828427 
C 2.078319 -3.578535 1.060812 -4 0 -4 
C -1.060812 -4 -2.078319 -3.578535 -2.828427 -2.828427 
C -3.578535 -2.078319 -4 -1.060812 -4 0 
C -4 1.060812 -3.578535 2.078319 -2.828427 2.828427 
C -2.078319 3.578535 -1.060812 4 0 4 
z
" id="me837ec3038" style="stroke:#66c2a5;"/>
    </defs>
    <g clip-path="url(#p5caf19cb03)">
     <use style="fill:#66c2a5;stroke:#66c2a5;" x="426.286119" xlink:href="#me837ec3038" y="143.225002"/>
    </g>
   </g>
   <g id="line2d_29">
    <path clip-path="url(#p5caf19cb03)" d="M 74.008375 63.491706 
L 81.14914 71.367962 
L 88.289905 78.984511 
L 95.43067 86.348311 
L 102.571435 93.466055 
L 109.7122 100.344178 
L 116.852965 106.98886 
L 126.373986 115.495515 
L 135.895006 123.61104 
L 145.416026 131.348028 
L 154.937046 138.71831 
L 164.458066 145.73296 
L 173.979086 152.402301 
L 183.500106 158.735907 
L 193.021126 164.742602 
L 202.542146 170.430457 
L 212.063166 175.806788 
L 221.584187 180.878144 
L 231.105207 185.6503 
L 240.626227 190.128247 
L 250.147247 194.316177 
L 259.668267 198.217469 
L 269.189287 201.834677 
L 278.710307 205.169518 
L 288.231327 208.222854 
L 297.752347 210.994691 
L 307.273367 213.484169 
L 316.794388 215.689564 
L 326.315408 217.608298 
L 335.836428 219.236949 
L 345.357448 220.571285 
L 352.498213 221.375902 
L 359.638978 222.00977 
L 366.779743 222.470276 
L 373.920508 222.754599 
L 381.061273 222.859723 
L 388.202038 222.782447 
L 395.342803 222.519402 
L 402.483568 222.067059 
L 409.624334 221.421735 
L 416.765099 220.579602 
L 423.905864 219.536681 
L 431.046629 218.288837 
L 438.187394 216.83177 
L 445.328159 215.160992 
L 452.468924 213.2718 
L 459.609689 211.159239 
L 466.750454 208.818065 
L 473.891219 206.242687 
L 481.031984 203.42711 
L 488.172749 200.364868 
L 495.313514 197.048948 
L 502.45428 193.471707 
L 509.595045 189.624783 
L 516.73581 185.498993 
L 523.876575 181.084226 
L 531.01734 176.369325 
L 538.158105 171.341962 
L 545.29887 165.988492 
L 547.679125 164.128966 
L 547.679125 164.128966 
" style="fill:none;stroke:#fc8d62;stroke-linecap:square;stroke-width:3;"/>
   </g>
   <g id="line2d_30">
    <path clip-path="url(#p5caf19cb03)" d="M 381.061273 222.859723 
" style="fill:none;stroke:#fc8d62;stroke-linecap:square;stroke-width:1.5;"/>
    <defs>
     <path d="M 0 4 
C 1.060812 4 2.078319 3.578535 2.828427 2.828427 
C 3.578535 2.078319 4 1.060812 4 0 
C 4 -1.060812 3.578535 -2.078319 2.828427 -2.828427 
C 2.078319 -3.578535 1.060812 -4 0 -4 
C -1.060812 -4 -2.078319 -3.578535 -2.828427 -2.828427 
C -3.578535 -2.078319 -4 -1.060812 -4 0 
C -4 1.060812 -3.578535 2.078319 -2.828427 2.828427 
C -2.078319 3.578535 -1.060812 4 0 4 
z
" id="m5f443c7ec8" style="stroke:#fc8d62;"/>
    </defs>
    <g clip-path="url(#p5caf19cb03)">
     <use style="fill:#fc8d62;stroke:#fc8d62;" x="381.061273" xlink:href="#m5f443c7ec8" y="222.859723"/>
    </g>
   </g>
   <g id="line2d_31">
    <path clip-path="url(#p5caf19cb03)" d="M 74.008375 79.037116 
L 78.768885 89.568063 
L 83.529395 99.667811 
L 88.289905 109.35346 
L 93.050415 118.641407 
L 97.810925 127.547382 
L 102.571435 136.086469 
L 107.331945 144.273133 
L 112.092455 152.121245 
L 116.852965 159.644104 
L 121.613476 166.854461 
L 126.373986 173.764537 
L 131.134496 180.386047 
L 135.895006 186.73022 
L 140.655516 192.807814 
L 145.416026 198.629135 
L 150.176536 204.204058 
L 154.937046 209.542038 
L 159.697556 214.652131 
L 164.458066 219.543003 
L 171.598831 226.486319 
L 178.739596 232.981467 
L 185.880361 239.053221 
L 193.021126 244.724732 
L 200.161891 250.017602 
L 207.302656 254.951969 
L 214.443421 259.546573 
L 221.584187 263.818827 
L 228.724952 267.784871 
L 235.865717 271.459631 
L 243.006482 274.856864 
L 250.147247 277.989203 
L 257.288012 280.868192 
L 264.428777 283.504325 
L 271.569542 285.907064 
L 278.710307 288.08487 
L 285.851072 290.045214 
L 292.991837 291.79459 
L 300.132602 293.338526 
L 307.273367 294.681581 
L 314.414133 295.827348 
L 321.554898 296.778442 
L 328.695663 297.536495 
L 335.836428 298.102138 
L 342.977193 298.474985 
L 350.117958 298.653615 
L 357.258723 298.635548 
L 364.399488 298.417225 
L 371.540253 297.993981 
L 378.681018 297.360027 
L 385.821783 296.508418 
L 392.962548 295.431036 
L 400.103313 294.118559 
L 407.244079 292.560431 
L 414.384844 290.744826 
L 421.525609 288.658599 
L 428.666374 286.287218 
L 435.807139 283.614681 
L 442.947904 280.623391 
L 450.088669 277.294002 
L 457.229434 273.605211 
L 461.989944 270.934834 
L 466.750454 268.086733 
L 471.510964 265.052767 
L 476.271474 261.824177 
L 481.031984 258.391519 
L 485.792494 254.744584 
L 490.553004 250.872308 
L 495.313514 246.762672 
L 500.074024 242.402584 
L 504.834535 237.777752 
L 509.595045 232.872527 
L 514.355555 227.669744 
L 519.116065 222.150519 
L 523.876575 216.294034 
L 528.637085 210.077277 
L 533.397595 203.474753 
L 538.158105 196.458143 
L 542.918615 188.995909 
L 547.679125 181.052833 
L 547.679125 181.052833 
" style="fill:none;stroke:#8da0cb;stroke-linecap:square;stroke-width:3;"/>
   </g>
   <g id="line2d_32">
    <path clip-path="url(#p5caf19cb03)" d="M 352.498213 298.669601 
" style="fill:none;stroke:#8da0cb;stroke-linecap:square;stroke-width:1.5;"/>
    <defs>
     <path d="M 0 4 
C 1.060812 4 2.078319 3.578535 2.828427 2.828427 
C 3.578535 2.078319 4 1.060812 4 0 
C 4 -1.060812 3.578535 -2.078319 2.828427 -2.828427 
C 2.078319 -3.578535 1.060812 -4 0 -4 
C -1.060812 -4 -2.078319 -3.578535 -2.828427 -2.828427 
C -3.578535 -2.078319 -4 -1.060812 -4 0 
C -4 1.060812 -3.578535 2.078319 -2.828427 2.828427 
C -2.078319 3.578535 -1.060812 4 0 4 
z
" id="ma41d3b78e0" style="stroke:#8da0cb;"/>
    </defs>
    <g clip-path="url(#p5caf19cb03)">
     <use style="fill:#8da0cb;stroke:#8da0cb;" x="352.498213" xlink:href="#ma41d3b78e0" y="298.669601"/>
    </g>
   </g>
   <g id="line2d_33">
    <path clip-path="url(#p5caf19cb03)" d="M 74.008375 88.400467 
L 78.768885 103.808118 
L 83.529395 118.289365 
L 88.289905 131.899341 
L 93.050415 144.689878 
L 97.810925 156.709705 
L 102.571435 168.004632 
L 107.331945 178.617724 
L 112.092455 188.589463 
L 116.852965 197.957905 
L 121.613476 206.758822 
L 126.373986 215.025835 
L 131.134496 222.790549 
L 135.895006 230.082667 
L 140.655516 236.930104 
L 145.416026 243.359096 
L 150.176536 249.394296 
L 154.937046 255.058869 
L 159.697556 260.374582 
L 164.458066 265.361883 
L 169.218576 270.039983 
L 173.979086 274.426925 
L 178.739596 278.539657 
L 183.500106 282.39409 
L 188.260616 286.005166 
L 193.021126 289.386909 
L 197.781636 292.552482 
L 202.542146 295.514234 
L 207.302656 298.283749 
L 212.063166 300.871889 
L 219.203932 304.436113 
L 226.344697 307.646687 
L 233.485462 310.532313 
L 240.626227 313.118948 
L 247.766992 315.430025 
L 254.907757 317.486648 
L 262.048522 319.307763 
L 269.189287 320.910317 
L 276.330052 322.309394 
L 283.470817 323.51833 
L 290.611582 324.548819 
L 300.132602 325.662516 
L 309.653622 326.496734 
L 319.174643 327.066883 
L 328.695663 327.383975 
L 338.216683 327.454646 
L 347.737703 327.281076 
L 357.258723 326.86079 
L 366.779743 326.186355 
L 376.300763 325.244937 
L 385.821783 324.017727 
L 392.962548 322.894703 
L 400.103313 321.583231 
L 407.244079 320.067187 
L 414.384844 318.327574 
L 421.525609 316.342233 
L 428.666374 314.085554 
L 435.807139 311.52815 
L 442.947904 308.63651 
L 447.708414 306.504493 
L 452.468924 304.194676 
L 457.229434 301.693557 
L 461.989944 298.986521 
L 466.750454 296.05774 
L 471.510964 292.890075 
L 476.271474 289.46493 
L 481.031984 285.762101 
L 485.792494 281.759567 
L 490.553004 277.43325 
L 495.313514 272.756716 
L 500.074024 267.70081 
L 504.834535 262.233213 
L 509.595045 256.317912 
L 514.355555 249.914547 
L 519.116065 242.977635 
L 523.876575 235.455619 
L 528.637085 227.289716 
L 533.397595 218.412502 
L 538.158105 208.746187 
L 542.918615 198.20046 
L 547.679125 186.66981 
L 547.679125 186.66981 
" style="fill:none;stroke:#e78ac3;stroke-linecap:square;stroke-width:3;"/>
   </g>
   <g id="line2d_34">
    <path clip-path="url(#p5caf19cb03)" d="M 335.836428 327.459883 
" style="fill:none;stroke:#e78ac3;stroke-linecap:square;stroke-width:1.5;"/>
    <defs>
     <path d="M 0 4 
C 1.060812 4 2.078319 3.578535 2.828427 2.828427 
C 3.578535 2.078319 4 1.060812 4 0 
C 4 -1.060812 3.578535 -2.078319 2.828427 -2.828427 
C 2.078319 -3.578535 1.060812 -4 0 -4 
C -1.060812 -4 -2.078319 -3.578535 -2.828427 -2.828427 
C -3.578535 -2.078319 -4 -1.060812 -4 0 
C -4 1.060812 -3.578535 2.078319 -2.828427 2.828427 
C -2.078319 3.578535 -1.060812 4 0 4 
z
" id="m19c35688b8" style="stroke:#e78ac3;"/>
    </defs>
    <g clip-path="url(#p5caf19cb03)">
     <use style="fill:#e78ac3;stroke:#e78ac3;" x="335.836428" xlink:href="#m19c35688b8" y="327.459883"/>
    </g>
   </g>
   <g id="line2d_35">
    <path clip-path="url(#p5caf19cb03)" d="M 69.175 335.284848 
L 552.5125 335.284848 
" style="fill:none;stroke:#d3d3d3;stroke-linecap:square;stroke-width:3;"/>
   </g>
   <g id="patch_3">
    <path d="M 69.175 466.8 
L 69.175 32.8 
" style="fill:none;stroke:#000000;stroke-linecap:square;stroke-linejoin:miter;stroke-width:0.8;"/>
   </g>
   <g id="patch_4">
    <path d="M 552.5125 466.8 
L 552.5125 32.8 
" style="fill:none;stroke:#000000;stroke-linecap:square;stroke-linejoin:miter;stroke-width:0.8;"/>
   </g>
   <g id="patch_5">
    <path d="M 69.175 466.8 
L 552.5125 466.8 
" style="fill:none;stroke:#000000;stroke-linecap:square;stroke-linejoin:miter;stroke-width:0.8;"/>
   </g>
   <g id="patch_6">
    <path d="M 69.175 32.8 
L 552.5125 32.8 
" style="fill:none;stroke:#000000;stroke-linecap:square;stroke-linejoin:miter;stroke-width:0.8;"/>
   </g>
   <g id="text_16">
    <!-- Basic reproduction number $R_0$ vs. $\pi$  (fixed cost $\Lambda$) -->
    <g transform="translate(85.39375 26.8)scale(0.18 -0.18)">
     <defs>
      <path d="M 1259 2228 
L 1259 519 
L 2272 519 
Q 2781 519 3026 730 
Q 3272 941 3272 1375 
Q 3272 1813 3026 2020 
Q 2781 2228 2272 2228 
L 1259 2228 
z
M 1259 4147 
L 1259 2741 
L 2194 2741 
Q 2656 2741 2882 2914 
Q 3109 3088 3109 3444 
Q 3109 3797 2882 3972 
Q 2656 4147 2194 4147 
L 1259 4147 
z
M 628 4666 
L 2241 4666 
Q 2963 4666 3353 4366 
Q 3744 4066 3744 3513 
Q 3744 3084 3544 2831 
Q 3344 2578 2956 2516 
Q 3422 2416 3680 2098 
Q 3938 1781 3938 1306 
Q 3938 681 3513 340 
Q 3088 0 2303 0 
L 628 0 
L 628 4666 
z
" id="DejaVuSans-42" transform="scale(0.015625)"/>
      <path d="M 191 3500 
L 800 3500 
L 1894 563 
L 2988 3500 
L 3597 3500 
L 2284 0 
L 1503 0 
L 191 3500 
z
" id="DejaVuSans-76" transform="scale(0.015625)"/>
      <path d="M 1984 4856 
Q 1566 4138 1362 3434 
Q 1159 2731 1159 2009 
Q 1159 1288 1364 580 
Q 1569 -128 1984 -844 
L 1484 -844 
Q 1016 -109 783 600 
Q 550 1309 550 2009 
Q 550 2706 781 3412 
Q 1013 4119 1484 4856 
L 1984 4856 
z
" id="DejaVuSans-28" transform="scale(0.015625)"/>
      <path d="M 3513 3500 
L 2247 1797 
L 3578 0 
L 2900 0 
L 1881 1375 
L 863 0 
L 184 0 
L 1544 1831 
L 300 3500 
L 978 3500 
L 1906 2253 
L 2834 3500 
L 3513 3500 
z
" id="DejaVuSans-78" transform="scale(0.015625)"/>
      <path d="M 716 0 
L 50 0 
L 1831 4666 
L 2547 4666 
L 4325 0 
L 3669 0 
L 2188 4044 
L 716 0 
z
" id="DejaVuSans-39b" transform="scale(0.015625)"/>
      <path d="M 513 4856 
L 1013 4856 
Q 1481 4119 1714 3412 
Q 1947 2706 1947 2009 
Q 1947 1309 1714 600 
Q 1481 -109 1013 -844 
L 513 -844 
Q 928 -128 1133 580 
Q 1338 1288 1338 2009 
Q 1338 2731 1133 3434 
Q 928 4138 513 4856 
z
" id="DejaVuSans-29" transform="scale(0.015625)"/>
     </defs>
     <use transform="translate(0 0.015625)" xlink:href="#DejaVuSans-42"/>
     <use transform="translate(68.603516 0.015625)" xlink:href="#DejaVuSans-61"/>
     <use transform="translate(129.882812 0.015625)" xlink:href="#DejaVuSans-73"/>
     <use transform="translate(181.982422 0.015625)" xlink:href="#DejaVuSans-69"/>
     <use transform="translate(209.765625 0.015625)" xlink:href="#DejaVuSans-63"/>
     <use transform="translate(264.746094 0.015625)" xlink:href="#DejaVuSans-20"/>
     <use transform="translate(296.533203 0.015625)" xlink:href="#DejaVuSans-72"/>
     <use transform="translate(337.646484 0.015625)" xlink:href="#DejaVuSans-65"/>
     <use transform="translate(399.169922 0.015625)" xlink:href="#DejaVuSans-70"/>
     <use transform="translate(462.646484 0.015625)" xlink:href="#DejaVuSans-72"/>
     <use transform="translate(503.759766 0.015625)" xlink:href="#DejaVuSans-6f"/>
     <use transform="translate(564.941406 0.015625)" xlink:href="#DejaVuSans-64"/>
     <use transform="translate(628.417969 0.015625)" xlink:href="#DejaVuSans-75"/>
     <use transform="translate(691.796875 0.015625)" xlink:href="#DejaVuSans-63"/>
     <use transform="translate(746.777344 0.015625)" xlink:href="#DejaVuSans-74"/>
     <use transform="translate(785.986328 0.015625)" xlink:href="#DejaVuSans-69"/>
     <use transform="translate(813.769531 0.015625)" xlink:href="#DejaVuSans-6f"/>
     <use transform="translate(874.951172 0.015625)" xlink:href="#DejaVuSans-6e"/>
     <use transform="translate(938.330078 0.015625)" xlink:href="#DejaVuSans-20"/>
     <use transform="translate(970.117188 0.015625)" xlink:href="#DejaVuSans-6e"/>
     <use transform="translate(1033.496094 0.015625)" xlink:href="#DejaVuSans-75"/>
     <use transform="translate(1096.875 0.015625)" xlink:href="#DejaVuSans-6d"/>
     <use transform="translate(1194.287109 0.015625)" xlink:href="#DejaVuSans-62"/>
     <use transform="translate(1257.763672 0.015625)" xlink:href="#DejaVuSans-65"/>
     <use transform="translate(1319.287109 0.015625)" xlink:href="#DejaVuSans-72"/>
     <use transform="translate(1360.400391 0.015625)" xlink:href="#DejaVuSans-20"/>
     <use transform="translate(1392.1875 0.015625)" xlink:href="#DejaVuSans-Oblique-52"/>
     <use transform="translate(1461.669922 -16.390625)scale(0.7)" xlink:href="#DejaVuSans-30"/>
     <use transform="translate(1508.94043 0.015625)" xlink:href="#DejaVuSans-20"/>
     <use transform="translate(1540.727539 0.015625)" xlink:href="#DejaVuSans-76"/>
     <use transform="translate(1599.907227 0.015625)" xlink:href="#DejaVuSans-73"/>
     <use transform="translate(1652.006836 0.015625)" xlink:href="#DejaVuSans-2e"/>
     <use transform="translate(1683.793945 0.015625)" xlink:href="#DejaVuSans-20"/>
     <use transform="translate(1715.581055 0.015625)" xlink:href="#DejaVuSans-Oblique-3c0"/>
     <use transform="translate(1775.786133 0.015625)" xlink:href="#DejaVuSans-20"/>
     <use transform="translate(1807.573242 0.015625)" xlink:href="#DejaVuSans-20"/>
     <use transform="translate(1839.360352 0.015625)" xlink:href="#DejaVuSans-28"/>
     <use transform="translate(1878.374023 0.015625)" xlink:href="#DejaVuSans-66"/>
     <use transform="translate(1913.579102 0.015625)" xlink:href="#DejaVuSans-69"/>
     <use transform="translate(1941.362305 0.015625)" xlink:href="#DejaVuSans-78"/>
     <use transform="translate(2000.541992 0.015625)" xlink:href="#DejaVuSans-65"/>
     <use transform="translate(2062.06543 0.015625)" xlink:href="#DejaVuSans-64"/>
     <use transform="translate(2125.541992 0.015625)" xlink:href="#DejaVuSans-20"/>
     <use transform="translate(2157.329102 0.015625)" xlink:href="#DejaVuSans-63"/>
     <use transform="translate(2212.30957 0.015625)" xlink:href="#DejaVuSans-6f"/>
     <use transform="translate(2273.491211 0.015625)" xlink:href="#DejaVuSans-73"/>
     <use transform="translate(2325.59082 0.015625)" xlink:href="#DejaVuSans-74"/>
     <use transform="translate(2364.799805 0.015625)" xlink:href="#DejaVuSans-20"/>
     <use transform="translate(2396.586914 0.015625)" xlink:href="#DejaVuSans-39b"/>
     <use transform="translate(2464.995117 0.015625)" xlink:href="#DejaVuSans-29"/>
    </g>
   </g>
   <g id="legend_1">
    <g id="patch_7">
     <path d="M 424.6725 458.8 
L 541.3125 458.8 
Q 544.5125 458.8 544.5125 455.6 
L 544.5125 339.775 
Q 544.5125 336.575 541.3125 336.575 
L 424.6725 336.575 
Q 421.4725 336.575 421.4725 339.775 
L 421.4725 455.6 
Q 421.4725 458.8 424.6725 458.8 
z
" style="fill:#ffffff;opacity:0.8;stroke:#cccccc;stroke-linejoin:miter;"/>
    </g>
    <g id="line2d_36">
     <path d="M 427.8725 349.5325 
L 459.8725 349.5325 
" style="fill:none;stroke:#66c2a5;stroke-linecap:square;stroke-width:3;"/>
    </g>
    <g id="line2d_37"/>
    <g id="text_17">
     <!-- $\Lambda = 0.25$ -->
     <g transform="translate(472.6725 355.1325)scale(0.16 -0.16)">
      <defs>
       <path d="M 678 2906 
L 4684 2906 
L 4684 2381 
L 678 2381 
L 678 2906 
z
M 678 1631 
L 4684 1631 
L 4684 1100 
L 678 1100 
L 678 1631 
z
" id="DejaVuSans-3d" transform="scale(0.015625)"/>
      </defs>
      <use transform="translate(0 0.78125)" xlink:href="#DejaVuSans-39b"/>
      <use transform="translate(87.890625 0.78125)" xlink:href="#DejaVuSans-3d"/>
      <use transform="translate(191.162109 0.78125)" xlink:href="#DejaVuSans-30"/>
      <use transform="translate(254.785156 0.78125)" xlink:href="#DejaVuSans-2e"/>
      <use transform="translate(281.072266 0.78125)" xlink:href="#DejaVuSans-32"/>
      <use transform="translate(344.695312 0.78125)" xlink:href="#DejaVuSans-35"/>
     </g>
    </g>
    <g id="line2d_38">
     <path d="M 427.8725 373.0175 
L 459.8725 373.0175 
" style="fill:none;stroke:#fc8d62;stroke-linecap:square;stroke-width:3;"/>
    </g>
    <g id="line2d_39"/>
    <g id="text_18">
     <!-- $\Lambda = 0.5$ -->
     <g transform="translate(472.6725 378.6175)scale(0.16 -0.16)">
      <use transform="translate(0 0.78125)" xlink:href="#DejaVuSans-39b"/>
      <use transform="translate(87.890625 0.78125)" xlink:href="#DejaVuSans-3d"/>
      <use transform="translate(191.162109 0.78125)" xlink:href="#DejaVuSans-30"/>
      <use transform="translate(254.785156 0.78125)" xlink:href="#DejaVuSans-2e"/>
      <use transform="translate(286.572266 0.78125)" xlink:href="#DejaVuSans-35"/>
     </g>
    </g>
    <g id="line2d_40">
     <path d="M 427.8725 396.5025 
L 459.8725 396.5025 
" style="fill:none;stroke:#8da0cb;stroke-linecap:square;stroke-width:3;"/>
    </g>
    <g id="line2d_41"/>
    <g id="text_19">
     <!-- $\Lambda = 1.0$ -->
     <g transform="translate(472.6725 402.1025)scale(0.16 -0.16)">
      <use transform="translate(0 0.78125)" xlink:href="#DejaVuSans-39b"/>
      <use transform="translate(87.890625 0.78125)" xlink:href="#DejaVuSans-3d"/>
      <use transform="translate(191.162109 0.78125)" xlink:href="#DejaVuSans-31"/>
      <use transform="translate(254.785156 0.78125)" xlink:href="#DejaVuSans-2e"/>
      <use transform="translate(286.572266 0.78125)" xlink:href="#DejaVuSans-30"/>
     </g>
    </g>
    <g id="line2d_42">
     <path d="M 427.8725 419.9875 
L 459.8725 419.9875 
" style="fill:none;stroke:#e78ac3;stroke-linecap:square;stroke-width:3;"/>
    </g>
    <g id="line2d_43"/>
    <g id="text_20">
     <!-- $\Lambda = 1.5$ -->
     <g transform="translate(472.6725 425.5875)scale(0.16 -0.16)">
      <use transform="translate(0 0.09375)" xlink:href="#DejaVuSans-39b"/>
      <use transform="translate(87.890625 0.09375)" xlink:href="#DejaVuSans-3d"/>
      <use transform="translate(191.162109 0.09375)" xlink:href="#DejaVuSans-31"/>
      <use transform="translate(254.785156 0.09375)" xlink:href="#DejaVuSans-2e"/>
      <use transform="translate(286.572266 0.09375)" xlink:href="#DejaVuSans-35"/>
     </g>
    </g>
    <g id="line2d_44">
     <path d="M 427.8725 443.4725 
L 459.8725 443.4725 
" style="fill:none;stroke:#d3d3d3;stroke-linecap:square;stroke-width:3;"/>
    </g>
    <g id="line2d_45"/>
    <g id="text_21">
     <!-- $R_0 = 1$ -->
     <g transform="translate(472.6725 449.0725)scale(0.16 -0.16)">
      <use transform="translate(0 0.09375)" xlink:href="#DejaVuSans-Oblique-52"/>
      <use transform="translate(69.482422 -16.3125)scale(0.7)" xlink:href="#DejaVuSans-30"/>
      <use transform="translate(136.235352 0.09375)" xlink:href="#DejaVuSans-3d"/>
      <use transform="translate(239.506836 0.09375)" xlink:href="#DejaVuSans-31"/>
     </g>
    </g>
   </g>
  </g>
 </g>
 <defs>
  <clipPath id="p5caf19cb03">
   <rect height="434" width="483.3375" x="69.175" y="32.8"/>
  </clipPath>
 </defs>
</svg>
