<?xml version="1.0" encoding="utf-8" standalone="no"?>
<!DOCTYPE svg PUBLIC "-//W3C//DTD SVG 1.1//EN"
  "http://www.w3.org/Graphics/SVG/1.1/DTD/svg11.dtd">
<svg height="525.6pt" version="1.1" viewBox="0 0 576 525.6" width="576pt" xmlns="http://www.w3.org/2000/svg" xmlns:xlink="http://www.w3.org/1999/xlink">
 <metadata>
  <rdf:RDF xmlns:cc="http://creativecommons.org/ns#" xmlns:dc="http://purl.org/dc/elements/1.1/" xmlns:rdf="http://www.w3.org/1999/02/22-rdf-syntax-ns#">
   <cc:Work>
    <dc:type rdf:resource="http://purl.org/dc/dcmitype/StillImage"/>
    <dc:date>2025-11-01T12:19:03.188460</dc:date>
    <dc:format>image/svg+xml</dc:format>
    <dc:creator>
     <cc:Agent>
      <dc:title>Matplotlib v3.4.3, https://matplotlib.org/</dc:title>
     </cc:Agent>
    </dc:creator>
   </cc:Work>
  </rdf:RDF>
 </metadata>
 <defs>
  <style type="text/css">*{stroke-linecap:butt;stroke-linejoin:round;}</style>
 </defs>
 <g id="figure_1">
  <g id="patch_1">
   <path d="M 0 525.6 
L 576 525.6 
L 576 0 
L 0 0 
z
" style="fill:none;"/>
  </g>
  <g id="axes_1">
   <g id="patch_2">
    <path d="M 79.3 466.8 
L 552.5125 466.8 
L 552.5125 32.8 
L 79.3 32.8 
z
" style="fill:#ffffff;"/>
   </g>
   <g id="matplotlib.axis_1">
    <g id="xtick_1">
     <g id="line2d_1">
      <path clip-path="url(#p048276418d)" d="M 79.3 466.8 
L 79.3 32.8 
" style="fill:none;stroke:#b0b0b0;stroke-linecap:square;stroke-width:0.8;"/>
     </g>
     <g id="line2d_2">
      <defs>
       <path d="M 0 0 
L 0 3.5 
" id="m304cd143c8" style="stroke:#000000;stroke-width:0.8;"/>
      </defs>
      <g>
       <use style="stroke:#000000;stroke-width:0.8;" x="79.3" xlink:href="#m304cd143c8" y="466.8"/>
      </g>
     </g>
     <g id="text_1">
      <!-- 0.0 -->
      <g transform="translate(66.5775 485.9575)scale(0.16 -0.16)">
       <defs>
        <path d="M 2034 4250 
Q 1547 4250 1301 3770 
Q 1056 3291 1056 2328 
Q 1056 1369 1301 889 
Q 1547 409 2034 409 
Q 2525 409 2770 889 
Q 3016 1369 3016 2328 
Q 3016 3291 2770 3770 
Q 2525 4250 2034 4250 
z
M 2034 4750 
Q 2819 4750 3233 4129 
Q 3647 3509 3647 2328 
Q 3647 1150 3233 529 
Q 2819 -91 2034 -91 
Q 1250 -91 836 529 
Q 422 1150 422 2328 
Q 422 3509 836 4129 
Q 1250 4750 2034 4750 
z
" id="DejaVuSans-30" transform="scale(0.015625)"/>
        <path d="M 684 794 
L 1344 794 
L 1344 0 
L 684 0 
L 684 794 
z
" id="DejaVuSans-2e" transform="scale(0.015625)"/>
       </defs>
       <use xlink:href="#DejaVuSans-30"/>
       <use x="63.623047" xlink:href="#DejaVuSans-2e"/>
       <use x="95.410156" xlink:href="#DejaVuSans-30"/>
      </g>
     </g>
    </g>
    <g id="xtick_2">
     <g id="line2d_3">
      <path clip-path="url(#p048276418d)" d="M 173.9425 466.8 
L 173.9425 32.8 
" style="fill:none;stroke:#b0b0b0;stroke-linecap:square;stroke-width:0.8;"/>
     </g>
     <g id="line2d_4">
      <g>
       <use style="stroke:#000000;stroke-width:0.8;" x="173.9425" xlink:href="#m304cd143c8" y="466.8"/>
      </g>
     </g>
     <g id="text_2">
      <!-- 0.2 -->
      <g transform="translate(161.22 485.9575)scale(0.16 -0.16)">
       <defs>
        <path d="M 1228 531 
L 3431 531 
L 3431 0 
L 469 0 
L 469 531 
Q 828 903 1448 1529 
Q 2069 2156 2228 2338 
Q 2531 2678 2651 2914 
Q 2772 3150 2772 3378 
Q 2772 3750 2511 3984 
Q 2250 4219 1831 4219 
Q 1534 4219 1204 4116 
Q 875 4013 500 3803 
L 500 4441 
Q 881 4594 1212 4672 
Q 1544 4750 1819 4750 
Q 2544 4750 2975 4387 
Q 3406 4025 3406 3419 
Q 3406 3131 3298 2873 
Q 3191 2616 2906 2266 
Q 2828 2175 2409 1742 
Q 1991 1309 1228 531 
z
" id="DejaVuSans-32" transform="scale(0.015625)"/>
       </defs>
       <use xlink:href="#DejaVuSans-30"/>
       <use x="63.623047" xlink:href="#DejaVuSans-2e"/>
       <use x="95.410156" xlink:href="#DejaVuSans-32"/>
      </g>
     </g>
    </g>
    <g id="xtick_3">
     <g id="line2d_5">
      <path clip-path="url(#p048276418d)" d="M 268.585 466.8 
L 268.585 32.8 
" style="fill:none;stroke:#b0b0b0;stroke-linecap:square;stroke-width:0.8;"/>
     </g>
     <g id="line2d_6">
      <g>
       <use style="stroke:#000000;stroke-width:0.8;" x="268.585" xlink:href="#m304cd143c8" y="466.8"/>
      </g>
     </g>
     <g id="text_3">
      <!-- 0.4 -->
      <g transform="translate(255.8625 485.9575)scale(0.16 -0.16)">
       <defs>
        <path d="M 2419 4116 
L 825 1625 
L 2419 1625 
L 2419 4116 
z
M 2253 4666 
L 3047 4666 
L 3047 1625 
L 3713 1625 
L 3713 1100 
L 3047 1100 
L 3047 0 
L 2419 0 
L 2419 1100 
L 313 1100 
L 313 1709 
L 2253 4666 
z
" id="DejaVuSans-34" transform="scale(0.015625)"/>
       </defs>
       <use xlink:href="#DejaVuSans-30"/>
       <use x="63.623047" xlink:href="#DejaVuSans-2e"/>
       <use x="95.410156" xlink:href="#DejaVuSans-34"/>
      </g>
     </g>
    </g>
    <g id="xtick_4">
     <g id="line2d_7">
      <path clip-path="url(#p048276418d)" d="M 363.2275 466.8 
L 363.2275 32.8 
" style="fill:none;stroke:#b0b0b0;stroke-linecap:square;stroke-width:0.8;"/>
     </g>
     <g id="line2d_8">
      <g>
       <use style="stroke:#000000;stroke-width:0.8;" x="363.2275" xlink:href="#m304cd143c8" y="466.8"/>
      </g>
     </g>
     <g id="text_4">
      <!-- 0.6 -->
      <g transform="translate(350.505 485.9575)scale(0.16 -0.16)">
       <defs>
        <path d="M 2113 2584 
Q 1688 2584 1439 2293 
Q 1191 2003 1191 1497 
Q 1191 994 1439 701 
Q 1688 409 2113 409 
Q 2538 409 2786 701 
Q 3034 994 3034 1497 
Q 3034 2003 2786 2293 
Q 2538 2584 2113 2584 
z
M 3366 4563 
L 3366 3988 
Q 3128 4100 2886 4159 
Q 2644 4219 2406 4219 
Q 1781 4219 1451 3797 
Q 1122 3375 1075 2522 
Q 1259 2794 1537 2939 
Q 1816 3084 2150 3084 
Q 2853 3084 3261 2657 
Q 3669 2231 3669 1497 
Q 3669 778 3244 343 
Q 2819 -91 2113 -91 
Q 1303 -91 875 529 
Q 447 1150 447 2328 
Q 447 3434 972 4092 
Q 1497 4750 2381 4750 
Q 2619 4750 2861 4703 
Q 3103 4656 3366 4563 
z
" id="DejaVuSans-36" transform="scale(0.015625)"/>
       </defs>
       <use xlink:href="#DejaVuSans-30"/>
       <use x="63.623047" xlink:href="#DejaVuSans-2e"/>
       <use x="95.410156" xlink:href="#DejaVuSans-36"/>
      </g>
     </g>
    </g>
    <g id="xtick_5">
     <g id="line2d_9">
      <path clip-path="url(#p048276418d)" d="M 457.87 466.8 
L 457.87 32.8 
" style="fill:none;stroke:#b0b0b0;stroke-linecap:square;stroke-width:0.8;"/>
     </g>
     <g id="line2d_10">
      <g>
       <use style="stroke:#000000;stroke-width:0.8;" x="457.87" xlink:href="#m304cd143c8" y="466.8"/>
      </g>
     </g>
     <g id="text_5">
      <!-- 0.8 -->
      <g transform="translate(445.1475 485.9575)scale(0.16 -0.16)">
       <defs>
        <path d="M 2034 2216 
Q 1584 2216 1326 1975 
Q 1069 1734 1069 1313 
Q 1069 891 1326 650 
Q 1584 409 2034 409 
Q 2484 409 2743 651 
Q 3003 894 3003 1313 
Q 3003 1734 2745 1975 
Q 2488 2216 2034 2216 
z
M 1403 2484 
Q 997 2584 770 2862 
Q 544 3141 544 3541 
Q 544 4100 942 4425 
Q 1341 4750 2034 4750 
Q 2731 4750 3128 4425 
Q 3525 4100 3525 3541 
Q 3525 3141 3298 2862 
Q 3072 2584 2669 2484 
Q 3125 2378 3379 2068 
Q 3634 1759 3634 1313 
Q 3634 634 3220 271 
Q 2806 -91 2034 -91 
Q 1263 -91 848 271 
Q 434 634 434 1313 
Q 434 1759 690 2068 
Q 947 2378 1403 2484 
z
M 1172 3481 
Q 1172 3119 1398 2916 
Q 1625 2713 2034 2713 
Q 2441 2713 2670 2916 
Q 2900 3119 2900 3481 
Q 2900 3844 2670 4047 
Q 2441 4250 2034 4250 
Q 1625 4250 1398 4047 
Q 1172 3844 1172 3481 
z
" id="DejaVuSans-38" transform="scale(0.015625)"/>
       </defs>
       <use xlink:href="#DejaVuSans-30"/>
       <use x="63.623047" xlink:href="#DejaVuSans-2e"/>
       <use x="95.410156" xlink:href="#DejaVuSans-38"/>
      </g>
     </g>
    </g>
    <g id="xtick_6">
     <g id="line2d_11">
      <path clip-path="url(#p048276418d)" d="M 552.5125 466.8 
L 552.5125 32.8 
" style="fill:none;stroke:#b0b0b0;stroke-linecap:square;stroke-width:0.8;"/>
     </g>
     <g id="line2d_12">
      <g>
       <use style="stroke:#000000;stroke-width:0.8;" x="552.5125" xlink:href="#m304cd143c8" y="466.8"/>
      </g>
     </g>
     <g id="text_6">
      <!-- 1.0 -->
      <g transform="translate(539.79 485.9575)scale(0.16 -0.16)">
       <defs>
        <path d="M 794 531 
L 1825 531 
L 1825 4091 
L 703 3866 
L 703 4441 
L 1819 4666 
L 2450 4666 
L 2450 531 
L 3481 531 
L 3481 0 
L 794 0 
L 794 531 
z
" id="DejaVuSans-31" transform="scale(0.015625)"/>
       </defs>
       <use xlink:href="#DejaVuSans-31"/>
       <use x="63.623047" xlink:href="#DejaVuSans-2e"/>
       <use x="95.410156" xlink:href="#DejaVuSans-30"/>
      </g>
     </g>
    </g>
    <g id="text_7">
     <!-- proportion of cost allocated to crop $\pi$ -->
     <g transform="translate(148.68625 506.965)scale(0.18 -0.18)">
      <defs>
       <path d="M 1159 525 
L 1159 -1331 
L 581 -1331 
L 581 3500 
L 1159 3500 
L 1159 2969 
Q 1341 3281 1617 3432 
Q 1894 3584 2278 3584 
Q 2916 3584 3314 3078 
Q 3713 2572 3713 1747 
Q 3713 922 3314 415 
Q 2916 -91 2278 -91 
Q 1894 -91 1617 61 
Q 1341 213 1159 525 
z
M 3116 1747 
Q 3116 2381 2855 2742 
Q 2594 3103 2138 3103 
Q 1681 3103 1420 2742 
Q 1159 2381 1159 1747 
Q 1159 1113 1420 752 
Q 1681 391 2138 391 
Q 2594 391 2855 752 
Q 3116 1113 3116 1747 
z
" id="DejaVuSans-70" transform="scale(0.015625)"/>
       <path d="M 2631 2963 
Q 2534 3019 2420 3045 
Q 2306 3072 2169 3072 
Q 1681 3072 1420 2755 
Q 1159 2438 1159 1844 
L 1159 0 
L 581 0 
L 581 3500 
L 1159 3500 
L 1159 2956 
Q 1341 3275 1631 3429 
Q 1922 3584 2338 3584 
Q 2397 3584 2469 3576 
Q 2541 3569 2628 3553 
L 2631 2963 
z
" id="DejaVuSans-72" transform="scale(0.015625)"/>
       <path d="M 1959 3097 
Q 1497 3097 1228 2736 
Q 959 2375 959 1747 
Q 959 1119 1226 758 
Q 1494 397 1959 397 
Q 2419 397 2687 759 
Q 2956 1122 2956 1747 
Q 2956 2369 2687 2733 
Q 2419 3097 1959 3097 
z
M 1959 3584 
Q 2709 3584 3137 3096 
Q 3566 2609 3566 1747 
Q 3566 888 3137 398 
Q 2709 -91 1959 -91 
Q 1206 -91 779 398 
Q 353 888 353 1747 
Q 353 2609 779 3096 
Q 1206 3584 1959 3584 
z
" id="DejaVuSans-6f" transform="scale(0.015625)"/>
       <path d="M 1172 4494 
L 1172 3500 
L 2356 3500 
L 2356 3053 
L 1172 3053 
L 1172 1153 
Q 1172 725 1289 603 
Q 1406 481 1766 481 
L 2356 481 
L 2356 0 
L 1766 0 
Q 1100 0 847 248 
Q 594 497 594 1153 
L 594 3053 
L 172 3053 
L 172 3500 
L 594 3500 
L 594 4494 
L 1172 4494 
z
" id="DejaVuSans-74" transform="scale(0.015625)"/>
       <path d="M 603 3500 
L 1178 3500 
L 1178 0 
L 603 0 
L 603 3500 
z
M 603 4863 
L 1178 4863 
L 1178 4134 
L 603 4134 
L 603 4863 
z
" id="DejaVuSans-69" transform="scale(0.015625)"/>
       <path d="M 3513 2113 
L 3513 0 
L 2938 0 
L 2938 2094 
Q 2938 2591 2744 2837 
Q 2550 3084 2163 3084 
Q 1697 3084 1428 2787 
Q 1159 2491 1159 1978 
L 1159 0 
L 581 0 
L 581 3500 
L 1159 3500 
L 1159 2956 
Q 1366 3272 1645 3428 
Q 1925 3584 2291 3584 
Q 2894 3584 3203 3211 
Q 3513 2838 3513 2113 
z
" id="DejaVuSans-6e" transform="scale(0.015625)"/>
       <path id="DejaVuSans-20" transform="scale(0.015625)"/>
       <path d="M 2375 4863 
L 2375 4384 
L 1825 4384 
Q 1516 4384 1395 4259 
Q 1275 4134 1275 3809 
L 1275 3500 
L 2222 3500 
L 2222 3053 
L 1275 3053 
L 1275 0 
L 697 0 
L 697 3053 
L 147 3053 
L 147 3500 
L 697 3500 
L 697 3744 
Q 697 4328 969 4595 
Q 1241 4863 1831 4863 
L 2375 4863 
z
" id="DejaVuSans-66" transform="scale(0.015625)"/>
       <path d="M 3122 3366 
L 3122 2828 
Q 2878 2963 2633 3030 
Q 2388 3097 2138 3097 
Q 1578 3097 1268 2742 
Q 959 2388 959 1747 
Q 959 1106 1268 751 
Q 1578 397 2138 397 
Q 2388 397 2633 464 
Q 2878 531 3122 666 
L 3122 134 
Q 2881 22 2623 -34 
Q 2366 -91 2075 -91 
Q 1284 -91 818 406 
Q 353 903 353 1747 
Q 353 2603 823 3093 
Q 1294 3584 2113 3584 
Q 2378 3584 2631 3529 
Q 2884 3475 3122 3366 
z
" id="DejaVuSans-63" transform="scale(0.015625)"/>
       <path d="M 2834 3397 
L 2834 2853 
Q 2591 2978 2328 3040 
Q 2066 3103 1784 3103 
Q 1356 3103 1142 2972 
Q 928 2841 928 2578 
Q 928 2378 1081 2264 
Q 1234 2150 1697 2047 
L 1894 2003 
Q 2506 1872 2764 1633 
Q 3022 1394 3022 966 
Q 3022 478 2636 193 
Q 2250 -91 1575 -91 
Q 1294 -91 989 -36 
Q 684 19 347 128 
L 347 722 
Q 666 556 975 473 
Q 1284 391 1588 391 
Q 1994 391 2212 530 
Q 2431 669 2431 922 
Q 2431 1156 2273 1281 
Q 2116 1406 1581 1522 
L 1381 1569 
Q 847 1681 609 1914 
Q 372 2147 372 2553 
Q 372 3047 722 3315 
Q 1072 3584 1716 3584 
Q 2034 3584 2315 3537 
Q 2597 3491 2834 3397 
z
" id="DejaVuSans-73" transform="scale(0.015625)"/>
       <path d="M 2194 1759 
Q 1497 1759 1228 1600 
Q 959 1441 959 1056 
Q 959 750 1161 570 
Q 1363 391 1709 391 
Q 2188 391 2477 730 
Q 2766 1069 2766 1631 
L 2766 1759 
L 2194 1759 
z
M 3341 1997 
L 3341 0 
L 2766 0 
L 2766 531 
Q 2569 213 2275 61 
Q 1981 -91 1556 -91 
Q 1019 -91 701 211 
Q 384 513 384 1019 
Q 384 1609 779 1909 
Q 1175 2209 1959 2209 
L 2766 2209 
L 2766 2266 
Q 2766 2663 2505 2880 
Q 2244 3097 1772 3097 
Q 1472 3097 1187 3025 
Q 903 2953 641 2809 
L 641 3341 
Q 956 3463 1253 3523 
Q 1550 3584 1831 3584 
Q 2591 3584 2966 3190 
Q 3341 2797 3341 1997 
z
" id="DejaVuSans-61" transform="scale(0.015625)"/>
       <path d="M 603 4863 
L 1178 4863 
L 1178 0 
L 603 0 
L 603 4863 
z
" id="DejaVuSans-6c" transform="scale(0.015625)"/>
       <path d="M 3597 1894 
L 3597 1613 
L 953 1613 
Q 991 1019 1311 708 
Q 1631 397 2203 397 
Q 2534 397 2845 478 
Q 3156 559 3463 722 
L 3463 178 
Q 3153 47 2828 -22 
Q 2503 -91 2169 -91 
Q 1331 -91 842 396 
Q 353 884 353 1716 
Q 353 2575 817 3079 
Q 1281 3584 2069 3584 
Q 2775 3584 3186 3129 
Q 3597 2675 3597 1894 
z
M 3022 2063 
Q 3016 2534 2758 2815 
Q 2500 3097 2075 3097 
Q 1594 3097 1305 2825 
Q 1016 2553 972 2059 
L 3022 2063 
z
" id="DejaVuSans-65" transform="scale(0.015625)"/>
       <path d="M 2906 2969 
L 2906 4863 
L 3481 4863 
L 3481 0 
L 2906 0 
L 2906 525 
Q 2725 213 2448 61 
Q 2172 -91 1784 -91 
Q 1150 -91 751 415 
Q 353 922 353 1747 
Q 353 2572 751 3078 
Q 1150 3584 1784 3584 
Q 2172 3584 2448 3432 
Q 2725 3281 2906 2969 
z
M 947 1747 
Q 947 1113 1208 752 
Q 1469 391 1925 391 
Q 2381 391 2643 752 
Q 2906 1113 2906 1747 
Q 2906 2381 2643 2742 
Q 2381 3103 1925 3103 
Q 1469 3103 1208 2742 
Q 947 2381 947 1747 
z
" id="DejaVuSans-64" transform="scale(0.015625)"/>
       <path d="M 584 3500 
L 3938 3500 
L 3825 2925 
L 3384 2925 
L 2966 775 
Q 2922 550 2981 450 
Q 3038 353 3209 353 
Q 3256 353 3325 363 
Q 3397 369 3419 372 
L 3338 -44 
Q 3222 -84 3103 -103 
Q 2981 -122 2866 -122 
Q 2491 -122 2388 81 
Q 2284 288 2391 838 
L 2797 2925 
L 1506 2925 
L 938 0 
L 350 0 
L 919 2925 
L 472 2925 
L 584 3500 
z
" id="DejaVuSans-Oblique-3c0" transform="scale(0.015625)"/>
      </defs>
      <use transform="translate(0 0.015625)" xlink:href="#DejaVuSans-70"/>
      <use transform="translate(63.476562 0.015625)" xlink:href="#DejaVuSans-72"/>
      <use transform="translate(104.589844 0.015625)" xlink:href="#DejaVuSans-6f"/>
      <use transform="translate(165.771484 0.015625)" xlink:href="#DejaVuSans-70"/>
      <use transform="translate(229.248047 0.015625)" xlink:href="#DejaVuSans-6f"/>
      <use transform="translate(290.429688 0.015625)" xlink:href="#DejaVuSans-72"/>
      <use transform="translate(331.542969 0.015625)" xlink:href="#DejaVuSans-74"/>
      <use transform="translate(370.751953 0.015625)" xlink:href="#DejaVuSans-69"/>
      <use transform="translate(398.535156 0.015625)" xlink:href="#DejaVuSans-6f"/>
      <use transform="translate(459.716797 0.015625)" xlink:href="#DejaVuSans-6e"/>
      <use transform="translate(523.095703 0.015625)" xlink:href="#DejaVuSans-20"/>
      <use transform="translate(554.882812 0.015625)" xlink:href="#DejaVuSans-6f"/>
      <use transform="translate(616.064453 0.015625)" xlink:href="#DejaVuSans-66"/>
      <use transform="translate(651.269531 0.015625)" xlink:href="#DejaVuSans-20"/>
      <use transform="translate(683.056641 0.015625)" xlink:href="#DejaVuSans-63"/>
      <use transform="translate(738.037109 0.015625)" xlink:href="#DejaVuSans-6f"/>
      <use transform="translate(799.21875 0.015625)" xlink:href="#DejaVuSans-73"/>
      <use transform="translate(851.318359 0.015625)" xlink:href="#DejaVuSans-74"/>
      <use transform="translate(890.527344 0.015625)" xlink:href="#DejaVuSans-20"/>
      <use transform="translate(922.314453 0.015625)" xlink:href="#DejaVuSans-61"/>
      <use transform="translate(983.59375 0.015625)" xlink:href="#DejaVuSans-6c"/>
      <use transform="translate(1011.376953 0.015625)" xlink:href="#DejaVuSans-6c"/>
      <use transform="translate(1039.160156 0.015625)" xlink:href="#DejaVuSans-6f"/>
      <use transform="translate(1100.341797 0.015625)" xlink:href="#DejaVuSans-63"/>
      <use transform="translate(1155.322266 0.015625)" xlink:href="#DejaVuSans-61"/>
      <use transform="translate(1216.601562 0.015625)" xlink:href="#DejaVuSans-74"/>
      <use transform="translate(1255.810547 0.015625)" xlink:href="#DejaVuSans-65"/>
      <use transform="translate(1317.333984 0.015625)" xlink:href="#DejaVuSans-64"/>
      <use transform="translate(1380.810547 0.015625)" xlink:href="#DejaVuSans-20"/>
      <use transform="translate(1412.597656 0.015625)" xlink:href="#DejaVuSans-74"/>
      <use transform="translate(1451.806641 0.015625)" xlink:href="#DejaVuSans-6f"/>
      <use transform="translate(1512.988281 0.015625)" xlink:href="#DejaVuSans-20"/>
      <use transform="translate(1544.775391 0.015625)" xlink:href="#DejaVuSans-63"/>
      <use transform="translate(1599.755859 0.015625)" xlink:href="#DejaVuSans-72"/>
      <use transform="translate(1640.869141 0.015625)" xlink:href="#DejaVuSans-6f"/>
      <use transform="translate(1702.050781 0.015625)" xlink:href="#DejaVuSans-70"/>
      <use transform="translate(1765.527344 0.015625)" xlink:href="#DejaVuSans-20"/>
      <use transform="translate(1797.314453 0.015625)" xlink:href="#DejaVuSans-Oblique-3c0"/>
     </g>
    </g>
   </g>
   <g id="matplotlib.axis_2">
    <g id="ytick_1">
     <g id="line2d_13">
      <path clip-path="url(#p048276418d)" d="M 79.3 466.8 
L 552.5125 466.8 
" style="fill:none;stroke:#b0b0b0;stroke-linecap:square;stroke-width:0.8;"/>
     </g>
     <g id="line2d_14">
      <defs>
       <path d="M 0 0 
L -3.5 0 
" id="m52aadebfb2" style="stroke:#000000;stroke-width:0.8;"/>
      </defs>
      <g>
       <use style="stroke:#000000;stroke-width:0.8;" x="79.3" xlink:href="#m52aadebfb2" y="466.8"/>
      </g>
     </g>
     <g id="text_8">
      <!-- 0.00 -->
      <g transform="translate(36.675 472.87875)scale(0.16 -0.16)">
       <use xlink:href="#DejaVuSans-30"/>
       <use x="63.623047" xlink:href="#DejaVuSans-2e"/>
       <use x="95.410156" xlink:href="#DejaVuSans-30"/>
       <use x="159.033203" xlink:href="#DejaVuSans-30"/>
      </g>
     </g>
    </g>
    <g id="ytick_2">
     <g id="line2d_15">
      <path clip-path="url(#p048276418d)" d="M 79.3 406.522222 
L 552.5125 406.522222 
" style="fill:none;stroke:#b0b0b0;stroke-linecap:square;stroke-width:0.8;"/>
     </g>
     <g id="line2d_16">
      <g>
       <use style="stroke:#000000;stroke-width:0.8;" x="79.3" xlink:href="#m52aadebfb2" y="406.522222"/>
      </g>
     </g>
     <g id="text_9">
      <!-- 0.05 -->
      <g transform="translate(36.675 412.600972)scale(0.16 -0.16)">
       <defs>
        <path d="M 691 4666 
L 3169 4666 
L 3169 4134 
L 1269 4134 
L 1269 2991 
Q 1406 3038 1543 3061 
Q 1681 3084 1819 3084 
Q 2600 3084 3056 2656 
Q 3513 2228 3513 1497 
Q 3513 744 3044 326 
Q 2575 -91 1722 -91 
Q 1428 -91 1123 -41 
Q 819 9 494 109 
L 494 744 
Q 775 591 1075 516 
Q 1375 441 1709 441 
Q 2250 441 2565 725 
Q 2881 1009 2881 1497 
Q 2881 1984 2565 2268 
Q 2250 2553 1709 2553 
Q 1456 2553 1204 2497 
Q 953 2441 691 2322 
L 691 4666 
z
" id="DejaVuSans-35" transform="scale(0.015625)"/>
       </defs>
       <use xlink:href="#DejaVuSans-30"/>
       <use x="63.623047" xlink:href="#DejaVuSans-2e"/>
       <use x="95.410156" xlink:href="#DejaVuSans-30"/>
       <use x="159.033203" xlink:href="#DejaVuSans-35"/>
      </g>
     </g>
    </g>
    <g id="ytick_3">
     <g id="line2d_17">
      <path clip-path="url(#p048276418d)" d="M 79.3 346.244444 
L 552.5125 346.244444 
" style="fill:none;stroke:#b0b0b0;stroke-linecap:square;stroke-width:0.8;"/>
     </g>
     <g id="line2d_18">
      <g>
       <use style="stroke:#000000;stroke-width:0.8;" x="79.3" xlink:href="#m52aadebfb2" y="346.244444"/>
      </g>
     </g>
     <g id="text_10">
      <!-- 0.10 -->
      <g transform="translate(36.675 352.323194)scale(0.16 -0.16)">
       <use xlink:href="#DejaVuSans-30"/>
       <use x="63.623047" xlink:href="#DejaVuSans-2e"/>
       <use x="95.410156" xlink:href="#DejaVuSans-31"/>
       <use x="159.033203" xlink:href="#DejaVuSans-30"/>
      </g>
     </g>
    </g>
    <g id="ytick_4">
     <g id="line2d_19">
      <path clip-path="url(#p048276418d)" d="M 79.3 285.966667 
L 552.5125 285.966667 
" style="fill:none;stroke:#b0b0b0;stroke-linecap:square;stroke-width:0.8;"/>
     </g>
     <g id="line2d_20">
      <g>
       <use style="stroke:#000000;stroke-width:0.8;" x="79.3" xlink:href="#m52aadebfb2" y="285.966667"/>
      </g>
     </g>
     <g id="text_11">
      <!-- 0.15 -->
      <g transform="translate(36.675 292.045417)scale(0.16 -0.16)">
       <use xlink:href="#DejaVuSans-30"/>
       <use x="63.623047" xlink:href="#DejaVuSans-2e"/>
       <use x="95.410156" xlink:href="#DejaVuSans-31"/>
       <use x="159.033203" xlink:href="#DejaVuSans-35"/>
      </g>
     </g>
    </g>
    <g id="ytick_5">
     <g id="line2d_21">
      <path clip-path="url(#p048276418d)" d="M 79.3 225.688889 
L 552.5125 225.688889 
" style="fill:none;stroke:#b0b0b0;stroke-linecap:square;stroke-width:0.8;"/>
     </g>
     <g id="line2d_22">
      <g>
       <use style="stroke:#000000;stroke-width:0.8;" x="79.3" xlink:href="#m52aadebfb2" y="225.688889"/>
      </g>
     </g>
     <g id="text_12">
      <!-- 0.20 -->
      <g transform="translate(36.675 231.767639)scale(0.16 -0.16)">
       <use xlink:href="#DejaVuSans-30"/>
       <use x="63.623047" xlink:href="#DejaVuSans-2e"/>
       <use x="95.410156" xlink:href="#DejaVuSans-32"/>
       <use x="159.033203" xlink:href="#DejaVuSans-30"/>
      </g>
     </g>
    </g>
    <g id="ytick_6">
     <g id="line2d_23">
      <path clip-path="url(#p048276418d)" d="M 79.3 165.411111 
L 552.5125 165.411111 
" style="fill:none;stroke:#b0b0b0;stroke-linecap:square;stroke-width:0.8;"/>
     </g>
     <g id="line2d_24">
      <g>
       <use style="stroke:#000000;stroke-width:0.8;" x="79.3" xlink:href="#m52aadebfb2" y="165.411111"/>
      </g>
     </g>
     <g id="text_13">
      <!-- 0.25 -->
      <g transform="translate(36.675 171.489861)scale(0.16 -0.16)">
       <use xlink:href="#DejaVuSans-30"/>
       <use x="63.623047" xlink:href="#DejaVuSans-2e"/>
       <use x="95.410156" xlink:href="#DejaVuSans-32"/>
       <use x="159.033203" xlink:href="#DejaVuSans-35"/>
      </g>
     </g>
    </g>
    <g id="ytick_7">
     <g id="line2d_25">
      <path clip-path="url(#p048276418d)" d="M 79.3 105.133333 
L 552.5125 105.133333 
" style="fill:none;stroke:#b0b0b0;stroke-linecap:square;stroke-width:0.8;"/>
     </g>
     <g id="line2d_26">
      <g>
       <use style="stroke:#000000;stroke-width:0.8;" x="79.3" xlink:href="#m52aadebfb2" y="105.133333"/>
      </g>
     </g>
     <g id="text_14">
      <!-- 0.30 -->
      <g transform="translate(36.675 111.212083)scale(0.16 -0.16)">
       <defs>
        <path d="M 2597 2516 
Q 3050 2419 3304 2112 
Q 3559 1806 3559 1356 
Q 3559 666 3084 287 
Q 2609 -91 1734 -91 
Q 1441 -91 1130 -33 
Q 819 25 488 141 
L 488 750 
Q 750 597 1062 519 
Q 1375 441 1716 441 
Q 2309 441 2620 675 
Q 2931 909 2931 1356 
Q 2931 1769 2642 2001 
Q 2353 2234 1838 2234 
L 1294 2234 
L 1294 2753 
L 1863 2753 
Q 2328 2753 2575 2939 
Q 2822 3125 2822 3475 
Q 2822 3834 2567 4026 
Q 2313 4219 1838 4219 
Q 1578 4219 1281 4162 
Q 984 4106 628 3988 
L 628 4550 
Q 988 4650 1302 4700 
Q 1616 4750 1894 4750 
Q 2613 4750 3031 4423 
Q 3450 4097 3450 3541 
Q 3450 3153 3228 2886 
Q 3006 2619 2597 2516 
z
" id="DejaVuSans-33" transform="scale(0.015625)"/>
       </defs>
       <use xlink:href="#DejaVuSans-30"/>
       <use x="63.623047" xlink:href="#DejaVuSans-2e"/>
       <use x="95.410156" xlink:href="#DejaVuSans-33"/>
       <use x="159.033203" xlink:href="#DejaVuSans-30"/>
      </g>
     </g>
    </g>
    <g id="ytick_8">
     <g id="line2d_27">
      <path clip-path="url(#p048276418d)" d="M 79.3 44.855556 
L 552.5125 44.855556 
" style="fill:none;stroke:#b0b0b0;stroke-linecap:square;stroke-width:0.8;"/>
     </g>
     <g id="line2d_28">
      <g>
       <use style="stroke:#000000;stroke-width:0.8;" x="79.3" xlink:href="#m52aadebfb2" y="44.855556"/>
      </g>
     </g>
     <g id="text_15">
      <!-- 0.35 -->
      <g transform="translate(36.675 50.934306)scale(0.16 -0.16)">
       <use xlink:href="#DejaVuSans-30"/>
       <use x="63.623047" xlink:href="#DejaVuSans-2e"/>
       <use x="95.410156" xlink:href="#DejaVuSans-33"/>
       <use x="159.033203" xlink:href="#DejaVuSans-35"/>
      </g>
     </g>
    </g>
    <g id="text_16">
     <!-- yield $Y$ -->
     <g transform="translate(28.895 279.77)rotate(-90)scale(0.18 -0.18)">
      <defs>
       <path d="M 2059 -325 
Q 1816 -950 1584 -1140 
Q 1353 -1331 966 -1331 
L 506 -1331 
L 506 -850 
L 844 -850 
Q 1081 -850 1212 -737 
Q 1344 -625 1503 -206 
L 1606 56 
L 191 3500 
L 800 3500 
L 1894 763 
L 2988 3500 
L 3597 3500 
L 2059 -325 
z
" id="DejaVuSans-79" transform="scale(0.015625)"/>
       <path d="M 403 4666 
L 1081 4666 
L 1953 2747 
L 3616 4666 
L 4325 4666 
L 2209 2222 
L 1778 0 
L 1147 0 
L 1575 2222 
L 403 4666 
z
" id="DejaVuSans-Oblique-59" transform="scale(0.015625)"/>
      </defs>
      <use transform="translate(0 0.015625)" xlink:href="#DejaVuSans-79"/>
      <use transform="translate(59.179688 0.015625)" xlink:href="#DejaVuSans-69"/>
      <use transform="translate(86.962891 0.015625)" xlink:href="#DejaVuSans-65"/>
      <use transform="translate(148.486328 0.015625)" xlink:href="#DejaVuSans-6c"/>
      <use transform="translate(176.269531 0.015625)" xlink:href="#DejaVuSans-64"/>
      <use transform="translate(239.746094 0.015625)" xlink:href="#DejaVuSans-20"/>
      <use transform="translate(271.533203 0.015625)" xlink:href="#DejaVuSans-Oblique-59"/>
     </g>
    </g>
   </g>
   <g id="line2d_29">
    <path clip-path="url(#p048276418d)" d="M 79.3 225.280344 
L 87.320551 224.612846 
L 95.341102 223.966774 
L 103.361653 223.34273 
L 111.382203 222.741308 
L 119.402754 222.16312 
L 127.423305 221.60879 
L 135.443856 221.078939 
L 143.464407 220.574185 
L 151.484958 220.095136 
L 159.505508 219.642404 
L 167.526059 219.216616 
L 175.54661 218.818362 
L 183.567161 218.448282 
L 191.587712 218.106882 
L 199.608263 217.794901 
L 207.628814 217.512858 
L 215.649364 217.26127 
L 223.669915 217.040783 
L 231.690466 216.851926 
L 239.711017 216.695221 
L 247.731568 216.57123 
L 255.752119 216.480456 
L 263.772669 216.423383 
L 271.79322 216.400505 
L 279.813771 216.412252 
L 287.834322 216.459083 
L 295.854873 216.541419 
L 303.875424 216.65967 
L 311.895975 216.814189 
L 319.916525 217.005347 
L 327.937076 217.233423 
L 335.957627 217.498768 
L 343.978178 217.801647 
L 351.998729 218.142282 
L 360.01928 218.520888 
L 368.039831 218.937741 
L 376.060381 219.392925 
L 384.080932 219.886559 
L 392.101483 220.418788 
L 400.122034 220.989701 
L 408.142585 221.599325 
L 416.163136 222.247706 
L 424.183686 222.934829 
L 432.204237 223.660667 
L 440.224788 224.425154 
L 448.245339 225.228214 
L 456.26589 226.069743 
L 464.286441 226.949596 
L 472.306992 227.867637 
L 480.327542 228.823664 
L 488.348093 229.817468 
L 496.368644 230.848826 
L 504.389195 231.917512 
L 512.409746 233.023218 
L 520.430297 234.165778 
L 528.450847 235.344781 
L 536.471398 236.560002 
L 544.491949 237.811045 
L 552.5125 239.097612 
" style="fill:none;stroke:#66c2a5;stroke-linecap:square;stroke-width:3;"/>
   </g>
   <g id="line2d_30">
    <path clip-path="url(#p048276418d)" d="M 271.79322 216.400505 
" style="fill:none;stroke:#66c2a5;stroke-linecap:square;stroke-width:1.5;"/>
    <defs>
     <path d="M 0 4 
C 1.060812 4 2.078319 3.578535 2.828427 2.828427 
C 3.578535 2.078319 4 1.060812 4 0 
C 4 -1.060812 3.578535 -2.078319 2.828427 -2.828427 
C 2.078319 -3.578535 1.060812 -4 0 -4 
C -1.060812 -4 -2.078319 -3.578535 -2.828427 -2.828427 
C -3.578535 -2.078319 -4 -1.060812 -4 0 
C -4 1.060812 -3.578535 2.078319 -2.828427 2.828427 
C -2.078319 3.578535 -1.060812 4 0 4 
z
" id="ma081e4324c" style="stroke:#66c2a5;"/>
    </defs>
    <g clip-path="url(#p048276418d)">
     <use style="fill:#66c2a5;stroke:#66c2a5;" x="271.79322" xlink:href="#ma081e4324c" y="216.400505"/>
    </g>
   </g>
   <g id="line2d_31">
    <path clip-path="url(#p048276418d)" d="M 79.3 240.754131 
L 87.320551 237.550152 
L 95.341102 234.360085 
L 103.361653 231.18671 
L 111.382203 228.033082 
L 119.402754 224.902219 
L 127.423305 221.797606 
L 135.443856 218.722688 
L 143.464407 215.681235 
L 151.484958 212.677254 
L 159.505508 209.714854 
L 167.526059 206.798425 
L 175.54661 203.932556 
L 183.567161 201.122025 
L 191.587712 198.371824 
L 199.608263 195.687219 
L 207.628814 193.073601 
L 215.649364 190.536583 
L 223.669915 188.081901 
L 231.690466 185.715592 
L 239.711017 183.443704 
L 247.731568 181.272479 
L 255.752119 179.208114 
L 263.772669 177.257149 
L 271.79322 175.425872 
L 279.813771 173.720715 
L 287.834322 172.147883 
L 295.854873 170.713852 
L 303.875424 169.424386 
L 311.895975 168.285411 
L 319.916525 167.302475 
L 327.937076 166.480725 
L 335.957627 165.825001 
L 343.978178 165.339597 
L 351.998729 165.028391 
L 360.01928 164.894655 
L 368.039831 164.941012 
L 376.060381 165.169639 
L 384.080932 165.581857 
L 392.101483 166.17852 
L 400.122034 166.95964 
L 408.142585 167.924765 
L 416.163136 169.072704 
L 424.183686 170.4017 
L 432.204237 171.909448 
L 440.224788 173.593125 
L 448.245339 175.449433 
L 456.26589 177.474723 
L 464.286441 179.664936 
L 472.306992 182.015782 
L 480.327542 184.522647 
L 488.348093 187.180868 
L 496.368644 189.985554 
L 504.389195 192.931862 
L 512.409746 196.014776 
L 520.430297 199.229447 
L 528.450847 202.570978 
L 536.471398 206.034612 
L 544.491949 209.615755 
L 552.5125 213.309817 
" style="fill:none;stroke:#fc8d62;stroke-linecap:square;stroke-width:3;"/>
   </g>
   <g id="line2d_32">
    <path clip-path="url(#p048276418d)" d="M 360.01928 164.894655 
" style="fill:none;stroke:#fc8d62;stroke-linecap:square;stroke-width:1.5;"/>
    <defs>
     <path d="M 0 4 
C 1.060812 4 2.078319 3.578535 2.828427 2.828427 
C 3.578535 2.078319 4 1.060812 4 0 
C 4 -1.060812 3.578535 -2.078319 2.828427 -2.828427 
C 2.078319 -3.578535 1.060812 -4 0 -4 
C -1.060812 -4 -2.078319 -3.578535 -2.828427 -2.828427 
C -3.578535 -2.078319 -4 -1.060812 -4 0 
C -4 1.060812 -3.578535 2.078319 -2.828427 2.828427 
C -2.078319 3.578535 -1.060812 4 0 4 
z
" id="m47e94b99bb" style="stroke:#fc8d62;"/>
    </defs>
    <g clip-path="url(#p048276418d)">
     <use style="fill:#fc8d62;stroke:#fc8d62;" x="360.01928" xlink:href="#m47e94b99bb" y="164.894655"/>
    </g>
   </g>
   <g id="line2d_33">
    <path clip-path="url(#p048276418d)" d="M 79.3 347.856927 
L 87.320551 339.419506 
L 95.341102 330.885677 
L 103.361653 322.262889 
L 111.382203 313.559392 
L 119.402754 304.784223 
L 127.423305 295.947336 
L 135.443856 287.059586 
L 143.464407 278.132749 
L 151.484958 269.179487 
L 159.505508 260.213308 
L 167.526059 251.248524 
L 175.54661 242.300193 
L 183.567161 233.384076 
L 191.587712 224.516579 
L 199.608263 215.71472 
L 207.628814 206.996083 
L 215.649364 198.378806 
L 223.669915 189.881566 
L 231.690466 181.523592 
L 239.711017 173.324693 
L 247.731568 165.305312 
L 255.752119 157.486597 
L 263.772669 149.890497 
L 271.79322 142.539875 
L 279.813771 135.458636 
L 287.834322 128.671861 
L 295.854873 122.205932 
L 303.875424 116.08864 
L 311.895975 110.349247 
L 319.916525 105.018475 
L 327.937076 100.128391 
L 335.957627 95.712163 
L 343.978178 91.80363 
L 351.998729 88.436674 
L 360.01928 85.644383 
L 368.039831 83.458002 
L 376.060381 81.905732 
L 384.080932 81.011443 
L 392.101483 80.793436 
L 400.122034 81.263367 
L 408.142585 82.425495 
L 416.163136 84.276334 
L 424.183686 86.804771 
L 432.204237 89.992643 
L 440.224788 93.815686 
L 448.245339 98.24474 
L 456.26589 103.247086 
L 464.286441 108.787771 
L 472.306992 114.830826 
L 480.327542 121.340323 
L 488.348093 128.281221 
L 496.368644 135.620012 
L 504.389195 143.325177 
L 512.409746 151.367484 
L 520.430297 159.720163 
L 528.450847 168.358986 
L 536.471398 177.262308 
L 544.491949 186.411037 
L 552.5125 195.788658 
" style="fill:none;stroke:#8da0cb;stroke-linecap:square;stroke-width:3;"/>
   </g>
   <g id="line2d_34">
    <path clip-path="url(#p048276418d)" d="M 392.101483 80.793436 
" style="fill:none;stroke:#8da0cb;stroke-linecap:square;stroke-width:1.5;"/>
    <defs>
     <path d="M 0 4 
C 1.060812 4 2.078319 3.578535 2.828427 2.828427 
C 3.578535 2.078319 4 1.060812 4 0 
C 4 -1.060812 3.578535 -2.078319 2.828427 -2.828427 
C 2.078319 -3.578535 1.060812 -4 0 -4 
C -1.060812 -4 -2.078319 -3.578535 -2.828427 -2.828427 
C -3.578535 -2.078319 -4 -1.060812 -4 0 
C -4 1.060812 -3.578535 2.078319 -2.828427 2.828427 
C -2.078319 3.578535 -1.060812 4 0 4 
z
" id="maa4b72fefa" style="stroke:#8da0cb;"/>
    </defs>
    <g clip-path="url(#p048276418d)">
     <use style="fill:#8da0cb;stroke:#8da0cb;" x="392.101483" xlink:href="#maa4b72fefa" y="80.793436"/>
    </g>
   </g>
   <g id="line2d_35">
    <path clip-path="url(#p048276418d)" d="M 79.3 426.533976 
L 87.320551 423.356177 
L 95.341102 419.850016 
L 103.361653 415.753595 
L 111.382203 410.589247 
L 119.402754 403.720346 
L 127.423305 394.666864 
L 135.443856 383.480229 
L 143.464407 370.720332 
L 151.484958 357.064235 
L 159.505508 343.011576 
L 167.526059 328.8484 
L 175.54661 314.72331 
L 183.567161 300.717105 
L 191.587712 286.880987 
L 199.608263 273.25309 
L 207.628814 259.864611 
L 215.649364 246.741982 
L 223.669915 233.907634 
L 231.690466 221.380334 
L 239.711017 209.175465 
L 247.731568 197.305375 
L 255.752119 185.779796 
L 263.772669 174.606343 
L 271.79322 163.791081 
L 279.813771 153.339138 
L 287.834322 143.255372 
L 295.854873 133.545065 
L 303.875424 124.214668 
L 311.895975 115.272576 
L 319.916525 106.729954 
L 327.937076 98.601608 
L 335.957627 90.906911 
L 343.978178 83.67077 
L 351.998729 76.924615 
L 360.01928 70.707365 
L 368.039831 65.066272 
L 376.060381 60.05751 
L 384.080932 55.746292 
L 392.101483 52.206227 
L 400.122034 49.517604 
L 408.142585 47.764309 
L 416.163136 47.029224 
L 424.183686 47.388301 
L 432.204237 48.903935 
L 440.224788 51.61868 
L 448.245339 55.55058 
L 456.26589 60.69116 
L 464.286441 67.006513 
L 472.306992 74.441127 
L 480.327542 82.923493 
L 488.348093 92.372304 
L 496.368644 102.702241 
L 504.389195 113.828704 
L 512.409746 125.671277 
L 520.430297 138.156001 
L 528.450847 151.216694 
L 536.471398 164.795615 
L 544.491949 178.843764 
L 552.5125 193.321109 
" style="fill:none;stroke:#e78ac3;stroke-linecap:square;stroke-width:3;"/>
   </g>
   <g id="line2d_36">
    <path clip-path="url(#p048276418d)" d="M 416.163136 47.029224 
" style="fill:none;stroke:#e78ac3;stroke-linecap:square;stroke-width:1.5;"/>
    <defs>
     <path d="M 0 4 
C 1.060812 4 2.078319 3.578535 2.828427 2.828427 
C 3.578535 2.078319 4 1.060812 4 0 
C 4 -1.060812 3.578535 -2.078319 2.828427 -2.828427 
C 2.078319 -3.578535 1.060812 -4 0 -4 
C -1.060812 -4 -2.078319 -3.578535 -2.828427 -2.828427 
C -3.578535 -2.078319 -4 -1.060812 -4 0 
C -4 1.060812 -3.578535 2.078319 -2.828427 2.828427 
C -2.078319 3.578535 -1.060812 4 0 4 
z
" id="m70d1cfcaf8" style="stroke:#e78ac3;"/>
    </defs>
    <g clip-path="url(#p048276418d)">
     <use style="fill:#e78ac3;stroke:#e78ac3;" x="416.163136" xlink:href="#m70d1cfcaf8" y="47.029224"/>
    </g>
   </g>
   <g id="patch_3">
    <path d="M 79.3 466.8 
L 79.3 32.8 
" style="fill:none;stroke:#000000;stroke-linecap:square;stroke-linejoin:miter;stroke-width:0.8;"/>
   </g>
   <g id="patch_4">
    <path d="M 552.5125 466.8 
L 552.5125 32.8 
" style="fill:none;stroke:#000000;stroke-linecap:square;stroke-linejoin:miter;stroke-width:0.8;"/>
   </g>
   <g id="patch_5">
    <path d="M 79.3 466.8 
L 552.5125 466.8 
" style="fill:none;stroke:#000000;stroke-linecap:square;stroke-linejoin:miter;stroke-width:0.8;"/>
   </g>
   <g id="patch_6">
    <path d="M 79.3 32.8 
L 552.5125 32.8 
" style="fill:none;stroke:#000000;stroke-linecap:square;stroke-linejoin:miter;stroke-width:0.8;"/>
   </g>
   <g id="text_17">
    <!-- Yield $Y$ vs. $\pi$ (fixed cost $\Lambda$) -->
    <g transform="translate(199.08625 26.8)scale(0.18 -0.18)">
     <defs>
      <path d="M -13 4666 
L 666 4666 
L 1959 2747 
L 3244 4666 
L 3922 4666 
L 2272 2222 
L 2272 0 
L 1638 0 
L 1638 2222 
L -13 4666 
z
" id="DejaVuSans-59" transform="scale(0.015625)"/>
      <path d="M 191 3500 
L 800 3500 
L 1894 563 
L 2988 3500 
L 3597 3500 
L 2284 0 
L 1503 0 
L 191 3500 
z
" id="DejaVuSans-76" transform="scale(0.015625)"/>
      <path d="M 1984 4856 
Q 1566 4138 1362 3434 
Q 1159 2731 1159 2009 
Q 1159 1288 1364 580 
Q 1569 -128 1984 -844 
L 1484 -844 
Q 1016 -109 783 600 
Q 550 1309 550 2009 
Q 550 2706 781 3412 
Q 1013 4119 1484 4856 
L 1984 4856 
z
" id="DejaVuSans-28" transform="scale(0.015625)"/>
      <path d="M 3513 3500 
L 2247 1797 
L 3578 0 
L 2900 0 
L 1881 1375 
L 863 0 
L 184 0 
L 1544 1831 
L 300 3500 
L 978 3500 
L 1906 2253 
L 2834 3500 
L 3513 3500 
z
" id="DejaVuSans-78" transform="scale(0.015625)"/>
      <path d="M 716 0 
L 50 0 
L 1831 4666 
L 2547 4666 
L 4325 0 
L 3669 0 
L 2188 4044 
L 716 0 
z
" id="DejaVuSans-39b" transform="scale(0.015625)"/>
      <path d="M 513 4856 
L 1013 4856 
Q 1481 4119 1714 3412 
Q 1947 2706 1947 2009 
Q 1947 1309 1714 600 
Q 1481 -109 1013 -844 
L 513 -844 
Q 928 -128 1133 580 
Q 1338 1288 1338 2009 
Q 1338 2731 1133 3434 
Q 928 4138 513 4856 
z
" id="DejaVuSans-29" transform="scale(0.015625)"/>
     </defs>
     <use transform="translate(0 0.015625)" xlink:href="#DejaVuSans-59"/>
     <use transform="translate(61.083984 0.015625)" xlink:href="#DejaVuSans-69"/>
     <use transform="translate(88.867188 0.015625)" xlink:href="#DejaVuSans-65"/>
     <use transform="translate(150.390625 0.015625)" xlink:href="#DejaVuSans-6c"/>
     <use transform="translate(178.173828 0.015625)" xlink:href="#DejaVuSans-64"/>
     <use transform="translate(241.650391 0.015625)" xlink:href="#DejaVuSans-20"/>
     <use transform="translate(273.4375 0.015625)" xlink:href="#DejaVuSans-Oblique-59"/>
     <use transform="translate(334.521484 0.015625)" xlink:href="#DejaVuSans-20"/>
     <use transform="translate(366.308594 0.015625)" xlink:href="#DejaVuSans-76"/>
     <use transform="translate(425.488281 0.015625)" xlink:href="#DejaVuSans-73"/>
     <use transform="translate(477.587891 0.015625)" xlink:href="#DejaVuSans-2e"/>
     <use transform="translate(509.375 0.015625)" xlink:href="#DejaVuSans-20"/>
     <use transform="translate(541.162109 0.015625)" xlink:href="#DejaVuSans-Oblique-3c0"/>
     <use transform="translate(601.367188 0.015625)" xlink:href="#DejaVuSans-20"/>
     <use transform="translate(633.154297 0.015625)" xlink:href="#DejaVuSans-28"/>
     <use transform="translate(672.167969 0.015625)" xlink:href="#DejaVuSans-66"/>
     <use transform="translate(707.373047 0.015625)" xlink:href="#DejaVuSans-69"/>
     <use transform="translate(735.15625 0.015625)" xlink:href="#DejaVuSans-78"/>
     <use transform="translate(794.335938 0.015625)" xlink:href="#DejaVuSans-65"/>
     <use transform="translate(855.859375 0.015625)" xlink:href="#DejaVuSans-64"/>
     <use transform="translate(919.335938 0.015625)" xlink:href="#DejaVuSans-20"/>
     <use transform="translate(951.123047 0.015625)" xlink:href="#DejaVuSans-63"/>
     <use transform="translate(1006.103516 0.015625)" xlink:href="#DejaVuSans-6f"/>
     <use transform="translate(1067.285156 0.015625)" xlink:href="#DejaVuSans-73"/>
     <use transform="translate(1119.384766 0.015625)" xlink:href="#DejaVuSans-74"/>
     <use transform="translate(1158.59375 0.015625)" xlink:href="#DejaVuSans-20"/>
     <use transform="translate(1190.380859 0.015625)" xlink:href="#DejaVuSans-39b"/>
     <use transform="translate(1258.789062 0.015625)" xlink:href="#DejaVuSans-29"/>
    </g>
   </g>
   <g id="legend_1">
    <g id="patch_7">
     <path d="M 90.5 139.54 
L 210.98 139.54 
Q 214.18 139.54 214.18 136.34 
L 214.18 44 
Q 214.18 40.8 210.98 40.8 
L 90.5 40.8 
Q 87.3 40.8 87.3 44 
L 87.3 136.34 
Q 87.3 139.54 90.5 139.54 
z
" style="fill:#ffffff;opacity:0.8;stroke:#cccccc;stroke-linejoin:miter;"/>
    </g>
    <g id="line2d_37">
     <path d="M 93.7 53.7575 
L 125.7 53.7575 
" style="fill:none;stroke:#66c2a5;stroke-linecap:square;stroke-width:3;"/>
    </g>
    <g id="line2d_38"/>
    <g id="text_18">
     <!-- $\Lambda$ = 0.25 -->
     <g transform="translate(138.5 59.3575)scale(0.16 -0.16)">
      <defs>
       <path d="M 678 2906 
L 4684 2906 
L 4684 2381 
L 678 2381 
L 678 2906 
z
M 678 1631 
L 4684 1631 
L 4684 1100 
L 678 1100 
L 678 1631 
z
" id="DejaVuSans-3d" transform="scale(0.015625)"/>
      </defs>
      <use transform="translate(0 0.78125)" xlink:href="#DejaVuSans-39b"/>
      <use transform="translate(68.408203 0.78125)" xlink:href="#DejaVuSans-20"/>
      <use transform="translate(100.195312 0.78125)" xlink:href="#DejaVuSans-3d"/>
      <use transform="translate(183.984375 0.78125)" xlink:href="#DejaVuSans-20"/>
      <use transform="translate(215.771484 0.78125)" xlink:href="#DejaVuSans-30"/>
      <use transform="translate(279.394531 0.78125)" xlink:href="#DejaVuSans-2e"/>
      <use transform="translate(305.681641 0.78125)" xlink:href="#DejaVuSans-32"/>
      <use transform="translate(369.304688 0.78125)" xlink:href="#DejaVuSans-35"/>
     </g>
    </g>
    <g id="line2d_39">
     <path d="M 93.7 77.2425 
L 125.7 77.2425 
" style="fill:none;stroke:#fc8d62;stroke-linecap:square;stroke-width:3;"/>
    </g>
    <g id="line2d_40"/>
    <g id="text_19">
     <!-- $\Lambda$ = 0.5 -->
     <g transform="translate(138.5 82.8425)scale(0.16 -0.16)">
      <use transform="translate(0 0.78125)" xlink:href="#DejaVuSans-39b"/>
      <use transform="translate(68.408203 0.78125)" xlink:href="#DejaVuSans-20"/>
      <use transform="translate(100.195312 0.78125)" xlink:href="#DejaVuSans-3d"/>
      <use transform="translate(183.984375 0.78125)" xlink:href="#DejaVuSans-20"/>
      <use transform="translate(215.771484 0.78125)" xlink:href="#DejaVuSans-30"/>
      <use transform="translate(279.394531 0.78125)" xlink:href="#DejaVuSans-2e"/>
      <use transform="translate(311.181641 0.78125)" xlink:href="#DejaVuSans-35"/>
     </g>
    </g>
    <g id="line2d_41">
     <path d="M 93.7 100.7275 
L 125.7 100.7275 
" style="fill:none;stroke:#8da0cb;stroke-linecap:square;stroke-width:3;"/>
    </g>
    <g id="line2d_42"/>
    <g id="text_20">
     <!-- $\Lambda$ = 1.0 -->
     <g transform="translate(138.5 106.3275)scale(0.16 -0.16)">
      <use transform="translate(0 0.78125)" xlink:href="#DejaVuSans-39b"/>
      <use transform="translate(68.408203 0.78125)" xlink:href="#DejaVuSans-20"/>
      <use transform="translate(100.195312 0.78125)" xlink:href="#DejaVuSans-3d"/>
      <use transform="translate(183.984375 0.78125)" xlink:href="#DejaVuSans-20"/>
      <use transform="translate(215.771484 0.78125)" xlink:href="#DejaVuSans-31"/>
      <use transform="translate(279.394531 0.78125)" xlink:href="#DejaVuSans-2e"/>
      <use transform="translate(311.181641 0.78125)" xlink:href="#DejaVuSans-30"/>
     </g>
    </g>
    <g id="line2d_43">
     <path d="M 93.7 124.2125 
L 125.7 124.2125 
" style="fill:none;stroke:#e78ac3;stroke-linecap:square;stroke-width:3;"/>
    </g>
    <g id="line2d_44"/>
    <g id="text_21">
     <!-- $\Lambda$ = 1.5 -->
     <g transform="translate(138.5 129.8125)scale(0.16 -0.16)">
      <use transform="translate(0 0.09375)" xlink:href="#DejaVuSans-39b"/>
      <use transform="translate(68.408203 0.09375)" xlink:href="#DejaVuSans-20"/>
      <use transform="translate(100.195312 0.09375)" xlink:href="#DejaVuSans-3d"/>
      <use transform="translate(183.984375 0.09375)" xlink:href="#DejaVuSans-20"/>
      <use transform="translate(215.771484 0.09375)" xlink:href="#DejaVuSans-31"/>
      <use transform="translate(279.394531 0.09375)" xlink:href="#DejaVuSans-2e"/>
      <use transform="translate(311.181641 0.09375)" xlink:href="#DejaVuSans-35"/>
     </g>
    </g>
   </g>
  </g>
 </g>
 <defs>
  <clipPath id="p048276418d">
   <rect height="434" width="473.2125" x="79.3" y="32.8"/>
  </clipPath>
 </defs>
</svg>
