<?xml version="1.0" encoding="utf-8" standalone="no"?>
<!DOCTYPE svg PUBLIC "-//W3C//DTD SVG 1.1//EN"
  "http://www.w3.org/Graphics/SVG/1.1/DTD/svg11.dtd">
<svg height="504pt" version="1.1" viewBox="0 0 576 504" width="576pt" xmlns="http://www.w3.org/2000/svg" xmlns:xlink="http://www.w3.org/1999/xlink">
 <metadata>
  <rdf:RDF xmlns:cc="http://creativecommons.org/ns#" xmlns:dc="http://purl.org/dc/elements/1.1/" xmlns:rdf="http://www.w3.org/1999/02/22-rdf-syntax-ns#">
   <cc:Work>
    <dc:type rdf:resource="http://purl.org/dc/dcmitype/StillImage"/>
    <dc:date>2025-11-01T12:55:51.518074</dc:date>
    <dc:format>image/svg+xml</dc:format>
    <dc:creator>
     <cc:Agent>
      <dc:title>Matplotlib v3.4.3, https://matplotlib.org/</dc:title>
     </cc:Agent>
    </dc:creator>
   </cc:Work>
  </rdf:RDF>
 </metadata>
 <defs>
  <style type="text/css">*{stroke-linecap:butt;stroke-linejoin:round;}</style>
 </defs>
 <g id="figure_1">
  <g id="patch_1">
   <path d="M 0 504 
L 576 504 
L 576 0 
L 0 0 
z
" style="fill:none;"/>
  </g>
  <g id="axes_1">
   <g id="patch_2">
    <path d="M 79.3 445.2 
L 552.5125 445.2 
L 552.5125 32.8 
L 79.3 32.8 
z
" style="fill:#ffffff;"/>
   </g>
   <g id="matplotlib.axis_1">
    <g id="xtick_1">
     <g id="line2d_1">
      <path clip-path="url(#pe37bb3c62c)" d="M 79.3 445.2 
L 79.3 32.8 
" style="fill:none;stroke:#b0b0b0;stroke-linecap:square;stroke-width:0.8;"/>
     </g>
     <g id="line2d_2">
      <defs>
       <path d="M 0 0 
L 0 3.5 
" id="m84bbe4e741" style="stroke:#000000;stroke-width:0.8;"/>
      </defs>
      <g>
       <use style="stroke:#000000;stroke-width:0.8;" x="79.3" xlink:href="#m84bbe4e741" y="445.2"/>
      </g>
     </g>
     <g id="text_1">
      <!-- 0.0 -->
      <g transform="translate(66.5775 464.3575)scale(0.16 -0.16)">
       <defs>
        <path d="M 2034 4250 
Q 1547 4250 1301 3770 
Q 1056 3291 1056 2328 
Q 1056 1369 1301 889 
Q 1547 409 2034 409 
Q 2525 409 2770 889 
Q 3016 1369 3016 2328 
Q 3016 3291 2770 3770 
Q 2525 4250 2034 4250 
z
M 2034 4750 
Q 2819 4750 3233 4129 
Q 3647 3509 3647 2328 
Q 3647 1150 3233 529 
Q 2819 -91 2034 -91 
Q 1250 -91 836 529 
Q 422 1150 422 2328 
Q 422 3509 836 4129 
Q 1250 4750 2034 4750 
z
" id="DejaVuSans-30" transform="scale(0.015625)"/>
        <path d="M 684 794 
L 1344 794 
L 1344 0 
L 684 0 
L 684 794 
z
" id="DejaVuSans-2e" transform="scale(0.015625)"/>
       </defs>
       <use xlink:href="#DejaVuSans-30"/>
       <use x="63.623047" xlink:href="#DejaVuSans-2e"/>
       <use x="95.410156" xlink:href="#DejaVuSans-30"/>
      </g>
     </g>
    </g>
    <g id="xtick_2">
     <g id="line2d_3">
      <path clip-path="url(#pe37bb3c62c)" d="M 173.9425 445.2 
L 173.9425 32.8 
" style="fill:none;stroke:#b0b0b0;stroke-linecap:square;stroke-width:0.8;"/>
     </g>
     <g id="line2d_4">
      <g>
       <use style="stroke:#000000;stroke-width:0.8;" x="173.9425" xlink:href="#m84bbe4e741" y="445.2"/>
      </g>
     </g>
     <g id="text_2">
      <!-- 0.2 -->
      <g transform="translate(161.22 464.3575)scale(0.16 -0.16)">
       <defs>
        <path d="M 1228 531 
L 3431 531 
L 3431 0 
L 469 0 
L 469 531 
Q 828 903 1448 1529 
Q 2069 2156 2228 2338 
Q 2531 2678 2651 2914 
Q 2772 3150 2772 3378 
Q 2772 3750 2511 3984 
Q 2250 4219 1831 4219 
Q 1534 4219 1204 4116 
Q 875 4013 500 3803 
L 500 4441 
Q 881 4594 1212 4672 
Q 1544 4750 1819 4750 
Q 2544 4750 2975 4387 
Q 3406 4025 3406 3419 
Q 3406 3131 3298 2873 
Q 3191 2616 2906 2266 
Q 2828 2175 2409 1742 
Q 1991 1309 1228 531 
z
" id="DejaVuSans-32" transform="scale(0.015625)"/>
       </defs>
       <use xlink:href="#DejaVuSans-30"/>
       <use x="63.623047" xlink:href="#DejaVuSans-2e"/>
       <use x="95.410156" xlink:href="#DejaVuSans-32"/>
      </g>
     </g>
    </g>
    <g id="xtick_3">
     <g id="line2d_5">
      <path clip-path="url(#pe37bb3c62c)" d="M 268.585 445.2 
L 268.585 32.8 
" style="fill:none;stroke:#b0b0b0;stroke-linecap:square;stroke-width:0.8;"/>
     </g>
     <g id="line2d_6">
      <g>
       <use style="stroke:#000000;stroke-width:0.8;" x="268.585" xlink:href="#m84bbe4e741" y="445.2"/>
      </g>
     </g>
     <g id="text_3">
      <!-- 0.4 -->
      <g transform="translate(255.8625 464.3575)scale(0.16 -0.16)">
       <defs>
        <path d="M 2419 4116 
L 825 1625 
L 2419 1625 
L 2419 4116 
z
M 2253 4666 
L 3047 4666 
L 3047 1625 
L 3713 1625 
L 3713 1100 
L 3047 1100 
L 3047 0 
L 2419 0 
L 2419 1100 
L 313 1100 
L 313 1709 
L 2253 4666 
z
" id="DejaVuSans-34" transform="scale(0.015625)"/>
       </defs>
       <use xlink:href="#DejaVuSans-30"/>
       <use x="63.623047" xlink:href="#DejaVuSans-2e"/>
       <use x="95.410156" xlink:href="#DejaVuSans-34"/>
      </g>
     </g>
    </g>
    <g id="xtick_4">
     <g id="line2d_7">
      <path clip-path="url(#pe37bb3c62c)" d="M 363.2275 445.2 
L 363.2275 32.8 
" style="fill:none;stroke:#b0b0b0;stroke-linecap:square;stroke-width:0.8;"/>
     </g>
     <g id="line2d_8">
      <g>
       <use style="stroke:#000000;stroke-width:0.8;" x="363.2275" xlink:href="#m84bbe4e741" y="445.2"/>
      </g>
     </g>
     <g id="text_4">
      <!-- 0.6 -->
      <g transform="translate(350.505 464.3575)scale(0.16 -0.16)">
       <defs>
        <path d="M 2113 2584 
Q 1688 2584 1439 2293 
Q 1191 2003 1191 1497 
Q 1191 994 1439 701 
Q 1688 409 2113 409 
Q 2538 409 2786 701 
Q 3034 994 3034 1497 
Q 3034 2003 2786 2293 
Q 2538 2584 2113 2584 
z
M 3366 4563 
L 3366 3988 
Q 3128 4100 2886 4159 
Q 2644 4219 2406 4219 
Q 1781 4219 1451 3797 
Q 1122 3375 1075 2522 
Q 1259 2794 1537 2939 
Q 1816 3084 2150 3084 
Q 2853 3084 3261 2657 
Q 3669 2231 3669 1497 
Q 3669 778 3244 343 
Q 2819 -91 2113 -91 
Q 1303 -91 875 529 
Q 447 1150 447 2328 
Q 447 3434 972 4092 
Q 1497 4750 2381 4750 
Q 2619 4750 2861 4703 
Q 3103 4656 3366 4563 
z
" id="DejaVuSans-36" transform="scale(0.015625)"/>
       </defs>
       <use xlink:href="#DejaVuSans-30"/>
       <use x="63.623047" xlink:href="#DejaVuSans-2e"/>
       <use x="95.410156" xlink:href="#DejaVuSans-36"/>
      </g>
     </g>
    </g>
    <g id="xtick_5">
     <g id="line2d_9">
      <path clip-path="url(#pe37bb3c62c)" d="M 457.87 445.2 
L 457.87 32.8 
" style="fill:none;stroke:#b0b0b0;stroke-linecap:square;stroke-width:0.8;"/>
     </g>
     <g id="line2d_10">
      <g>
       <use style="stroke:#000000;stroke-width:0.8;" x="457.87" xlink:href="#m84bbe4e741" y="445.2"/>
      </g>
     </g>
     <g id="text_5">
      <!-- 0.8 -->
      <g transform="translate(445.1475 464.3575)scale(0.16 -0.16)">
       <defs>
        <path d="M 2034 2216 
Q 1584 2216 1326 1975 
Q 1069 1734 1069 1313 
Q 1069 891 1326 650 
Q 1584 409 2034 409 
Q 2484 409 2743 651 
Q 3003 894 3003 1313 
Q 3003 1734 2745 1975 
Q 2488 2216 2034 2216 
z
M 1403 2484 
Q 997 2584 770 2862 
Q 544 3141 544 3541 
Q 544 4100 942 4425 
Q 1341 4750 2034 4750 
Q 2731 4750 3128 4425 
Q 3525 4100 3525 3541 
Q 3525 3141 3298 2862 
Q 3072 2584 2669 2484 
Q 3125 2378 3379 2068 
Q 3634 1759 3634 1313 
Q 3634 634 3220 271 
Q 2806 -91 2034 -91 
Q 1263 -91 848 271 
Q 434 634 434 1313 
Q 434 1759 690 2068 
Q 947 2378 1403 2484 
z
M 1172 3481 
Q 1172 3119 1398 2916 
Q 1625 2713 2034 2713 
Q 2441 2713 2670 2916 
Q 2900 3119 2900 3481 
Q 2900 3844 2670 4047 
Q 2441 4250 2034 4250 
Q 1625 4250 1398 4047 
Q 1172 3844 1172 3481 
z
" id="DejaVuSans-38" transform="scale(0.015625)"/>
       </defs>
       <use xlink:href="#DejaVuSans-30"/>
       <use x="63.623047" xlink:href="#DejaVuSans-2e"/>
       <use x="95.410156" xlink:href="#DejaVuSans-38"/>
      </g>
     </g>
    </g>
    <g id="xtick_6">
     <g id="line2d_11">
      <path clip-path="url(#pe37bb3c62c)" d="M 552.5125 445.2 
L 552.5125 32.8 
" style="fill:none;stroke:#b0b0b0;stroke-linecap:square;stroke-width:0.8;"/>
     </g>
     <g id="line2d_12">
      <g>
       <use style="stroke:#000000;stroke-width:0.8;" x="552.5125" xlink:href="#m84bbe4e741" y="445.2"/>
      </g>
     </g>
     <g id="text_6">
      <!-- 1.0 -->
      <g transform="translate(539.79 464.3575)scale(0.16 -0.16)">
       <defs>
        <path d="M 794 531 
L 1825 531 
L 1825 4091 
L 703 3866 
L 703 4441 
L 1819 4666 
L 2450 4666 
L 2450 531 
L 3481 531 
L 3481 0 
L 794 0 
L 794 531 
z
" id="DejaVuSans-31" transform="scale(0.015625)"/>
       </defs>
       <use xlink:href="#DejaVuSans-31"/>
       <use x="63.623047" xlink:href="#DejaVuSans-2e"/>
       <use x="95.410156" xlink:href="#DejaVuSans-30"/>
      </g>
     </g>
    </g>
    <g id="text_7">
     <!-- proportion of cost allocated to crop $\pi$ -->
     <g transform="translate(148.68625 485.365)scale(0.18 -0.18)">
      <defs>
       <path d="M 1159 525 
L 1159 -1331 
L 581 -1331 
L 581 3500 
L 1159 3500 
L 1159 2969 
Q 1341 3281 1617 3432 
Q 1894 3584 2278 3584 
Q 2916 3584 3314 3078 
Q 3713 2572 3713 1747 
Q 3713 922 3314 415 
Q 2916 -91 2278 -91 
Q 1894 -91 1617 61 
Q 1341 213 1159 525 
z
M 3116 1747 
Q 3116 2381 2855 2742 
Q 2594 3103 2138 3103 
Q 1681 3103 1420 2742 
Q 1159 2381 1159 1747 
Q 1159 1113 1420 752 
Q 1681 391 2138 391 
Q 2594 391 2855 752 
Q 3116 1113 3116 1747 
z
" id="DejaVuSans-70" transform="scale(0.015625)"/>
       <path d="M 2631 2963 
Q 2534 3019 2420 3045 
Q 2306 3072 2169 3072 
Q 1681 3072 1420 2755 
Q 1159 2438 1159 1844 
L 1159 0 
L 581 0 
L 581 3500 
L 1159 3500 
L 1159 2956 
Q 1341 3275 1631 3429 
Q 1922 3584 2338 3584 
Q 2397 3584 2469 3576 
Q 2541 3569 2628 3553 
L 2631 2963 
z
" id="DejaVuSans-72" transform="scale(0.015625)"/>
       <path d="M 1959 3097 
Q 1497 3097 1228 2736 
Q 959 2375 959 1747 
Q 959 1119 1226 758 
Q 1494 397 1959 397 
Q 2419 397 2687 759 
Q 2956 1122 2956 1747 
Q 2956 2369 2687 2733 
Q 2419 3097 1959 3097 
z
M 1959 3584 
Q 2709 3584 3137 3096 
Q 3566 2609 3566 1747 
Q 3566 888 3137 398 
Q 2709 -91 1959 -91 
Q 1206 -91 779 398 
Q 353 888 353 1747 
Q 353 2609 779 3096 
Q 1206 3584 1959 3584 
z
" id="DejaVuSans-6f" transform="scale(0.015625)"/>
       <path d="M 1172 4494 
L 1172 3500 
L 2356 3500 
L 2356 3053 
L 1172 3053 
L 1172 1153 
Q 1172 725 1289 603 
Q 1406 481 1766 481 
L 2356 481 
L 2356 0 
L 1766 0 
Q 1100 0 847 248 
Q 594 497 594 1153 
L 594 3053 
L 172 3053 
L 172 3500 
L 594 3500 
L 594 4494 
L 1172 4494 
z
" id="DejaVuSans-74" transform="scale(0.015625)"/>
       <path d="M 603 3500 
L 1178 3500 
L 1178 0 
L 603 0 
L 603 3500 
z
M 603 4863 
L 1178 4863 
L 1178 4134 
L 603 4134 
L 603 4863 
z
" id="DejaVuSans-69" transform="scale(0.015625)"/>
       <path d="M 3513 2113 
L 3513 0 
L 2938 0 
L 2938 2094 
Q 2938 2591 2744 2837 
Q 2550 3084 2163 3084 
Q 1697 3084 1428 2787 
Q 1159 2491 1159 1978 
L 1159 0 
L 581 0 
L 581 3500 
L 1159 3500 
L 1159 2956 
Q 1366 3272 1645 3428 
Q 1925 3584 2291 3584 
Q 2894 3584 3203 3211 
Q 3513 2838 3513 2113 
z
" id="DejaVuSans-6e" transform="scale(0.015625)"/>
       <path id="DejaVuSans-20" transform="scale(0.015625)"/>
       <path d="M 2375 4863 
L 2375 4384 
L 1825 4384 
Q 1516 4384 1395 4259 
Q 1275 4134 1275 3809 
L 1275 3500 
L 2222 3500 
L 2222 3053 
L 1275 3053 
L 1275 0 
L 697 0 
L 697 3053 
L 147 3053 
L 147 3500 
L 697 3500 
L 697 3744 
Q 697 4328 969 4595 
Q 1241 4863 1831 4863 
L 2375 4863 
z
" id="DejaVuSans-66" transform="scale(0.015625)"/>
       <path d="M 3122 3366 
L 3122 2828 
Q 2878 2963 2633 3030 
Q 2388 3097 2138 3097 
Q 1578 3097 1268 2742 
Q 959 2388 959 1747 
Q 959 1106 1268 751 
Q 1578 397 2138 397 
Q 2388 397 2633 464 
Q 2878 531 3122 666 
L 3122 134 
Q 2881 22 2623 -34 
Q 2366 -91 2075 -91 
Q 1284 -91 818 406 
Q 353 903 353 1747 
Q 353 2603 823 3093 
Q 1294 3584 2113 3584 
Q 2378 3584 2631 3529 
Q 2884 3475 3122 3366 
z
" id="DejaVuSans-63" transform="scale(0.015625)"/>
       <path d="M 2834 3397 
L 2834 2853 
Q 2591 2978 2328 3040 
Q 2066 3103 1784 3103 
Q 1356 3103 1142 2972 
Q 928 2841 928 2578 
Q 928 2378 1081 2264 
Q 1234 2150 1697 2047 
L 1894 2003 
Q 2506 1872 2764 1633 
Q 3022 1394 3022 966 
Q 3022 478 2636 193 
Q 2250 -91 1575 -91 
Q 1294 -91 989 -36 
Q 684 19 347 128 
L 347 722 
Q 666 556 975 473 
Q 1284 391 1588 391 
Q 1994 391 2212 530 
Q 2431 669 2431 922 
Q 2431 1156 2273 1281 
Q 2116 1406 1581 1522 
L 1381 1569 
Q 847 1681 609 1914 
Q 372 2147 372 2553 
Q 372 3047 722 3315 
Q 1072 3584 1716 3584 
Q 2034 3584 2315 3537 
Q 2597 3491 2834 3397 
z
" id="DejaVuSans-73" transform="scale(0.015625)"/>
       <path d="M 2194 1759 
Q 1497 1759 1228 1600 
Q 959 1441 959 1056 
Q 959 750 1161 570 
Q 1363 391 1709 391 
Q 2188 391 2477 730 
Q 2766 1069 2766 1631 
L 2766 1759 
L 2194 1759 
z
M 3341 1997 
L 3341 0 
L 2766 0 
L 2766 531 
Q 2569 213 2275 61 
Q 1981 -91 1556 -91 
Q 1019 -91 701 211 
Q 384 513 384 1019 
Q 384 1609 779 1909 
Q 1175 2209 1959 2209 
L 2766 2209 
L 2766 2266 
Q 2766 2663 2505 2880 
Q 2244 3097 1772 3097 
Q 1472 3097 1187 3025 
Q 903 2953 641 2809 
L 641 3341 
Q 956 3463 1253 3523 
Q 1550 3584 1831 3584 
Q 2591 3584 2966 3190 
Q 3341 2797 3341 1997 
z
" id="DejaVuSans-61" transform="scale(0.015625)"/>
       <path d="M 603 4863 
L 1178 4863 
L 1178 0 
L 603 0 
L 603 4863 
z
" id="DejaVuSans-6c" transform="scale(0.015625)"/>
       <path d="M 3597 1894 
L 3597 1613 
L 953 1613 
Q 991 1019 1311 708 
Q 1631 397 2203 397 
Q 2534 397 2845 478 
Q 3156 559 3463 722 
L 3463 178 
Q 3153 47 2828 -22 
Q 2503 -91 2169 -91 
Q 1331 -91 842 396 
Q 353 884 353 1716 
Q 353 2575 817 3079 
Q 1281 3584 2069 3584 
Q 2775 3584 3186 3129 
Q 3597 2675 3597 1894 
z
M 3022 2063 
Q 3016 2534 2758 2815 
Q 2500 3097 2075 3097 
Q 1594 3097 1305 2825 
Q 1016 2553 972 2059 
L 3022 2063 
z
" id="DejaVuSans-65" transform="scale(0.015625)"/>
       <path d="M 2906 2969 
L 2906 4863 
L 3481 4863 
L 3481 0 
L 2906 0 
L 2906 525 
Q 2725 213 2448 61 
Q 2172 -91 1784 -91 
Q 1150 -91 751 415 
Q 353 922 353 1747 
Q 353 2572 751 3078 
Q 1150 3584 1784 3584 
Q 2172 3584 2448 3432 
Q 2725 3281 2906 2969 
z
M 947 1747 
Q 947 1113 1208 752 
Q 1469 391 1925 391 
Q 2381 391 2643 752 
Q 2906 1113 2906 1747 
Q 2906 2381 2643 2742 
Q 2381 3103 1925 3103 
Q 1469 3103 1208 2742 
Q 947 2381 947 1747 
z
" id="DejaVuSans-64" transform="scale(0.015625)"/>
       <path d="M 584 3500 
L 3938 3500 
L 3825 2925 
L 3384 2925 
L 2966 775 
Q 2922 550 2981 450 
Q 3038 353 3209 353 
Q 3256 353 3325 363 
Q 3397 369 3419 372 
L 3338 -44 
Q 3222 -84 3103 -103 
Q 2981 -122 2866 -122 
Q 2491 -122 2388 81 
Q 2284 288 2391 838 
L 2797 2925 
L 1506 2925 
L 938 0 
L 350 0 
L 919 2925 
L 472 2925 
L 584 3500 
z
" id="DejaVuSans-Oblique-3c0" transform="scale(0.015625)"/>
      </defs>
      <use transform="translate(0 0.015625)" xlink:href="#DejaVuSans-70"/>
      <use transform="translate(63.476562 0.015625)" xlink:href="#DejaVuSans-72"/>
      <use transform="translate(104.589844 0.015625)" xlink:href="#DejaVuSans-6f"/>
      <use transform="translate(165.771484 0.015625)" xlink:href="#DejaVuSans-70"/>
      <use transform="translate(229.248047 0.015625)" xlink:href="#DejaVuSans-6f"/>
      <use transform="translate(290.429688 0.015625)" xlink:href="#DejaVuSans-72"/>
      <use transform="translate(331.542969 0.015625)" xlink:href="#DejaVuSans-74"/>
      <use transform="translate(370.751953 0.015625)" xlink:href="#DejaVuSans-69"/>
      <use transform="translate(398.535156 0.015625)" xlink:href="#DejaVuSans-6f"/>
      <use transform="translate(459.716797 0.015625)" xlink:href="#DejaVuSans-6e"/>
      <use transform="translate(523.095703 0.015625)" xlink:href="#DejaVuSans-20"/>
      <use transform="translate(554.882812 0.015625)" xlink:href="#DejaVuSans-6f"/>
      <use transform="translate(616.064453 0.015625)" xlink:href="#DejaVuSans-66"/>
      <use transform="translate(651.269531 0.015625)" xlink:href="#DejaVuSans-20"/>
      <use transform="translate(683.056641 0.015625)" xlink:href="#DejaVuSans-63"/>
      <use transform="translate(738.037109 0.015625)" xlink:href="#DejaVuSans-6f"/>
      <use transform="translate(799.21875 0.015625)" xlink:href="#DejaVuSans-73"/>
      <use transform="translate(851.318359 0.015625)" xlink:href="#DejaVuSans-74"/>
      <use transform="translate(890.527344 0.015625)" xlink:href="#DejaVuSans-20"/>
      <use transform="translate(922.314453 0.015625)" xlink:href="#DejaVuSans-61"/>
      <use transform="translate(983.59375 0.015625)" xlink:href="#DejaVuSans-6c"/>
      <use transform="translate(1011.376953 0.015625)" xlink:href="#DejaVuSans-6c"/>
      <use transform="translate(1039.160156 0.015625)" xlink:href="#DejaVuSans-6f"/>
      <use transform="translate(1100.341797 0.015625)" xlink:href="#DejaVuSans-63"/>
      <use transform="translate(1155.322266 0.015625)" xlink:href="#DejaVuSans-61"/>
      <use transform="translate(1216.601562 0.015625)" xlink:href="#DejaVuSans-74"/>
      <use transform="translate(1255.810547 0.015625)" xlink:href="#DejaVuSans-65"/>
      <use transform="translate(1317.333984 0.015625)" xlink:href="#DejaVuSans-64"/>
      <use transform="translate(1380.810547 0.015625)" xlink:href="#DejaVuSans-20"/>
      <use transform="translate(1412.597656 0.015625)" xlink:href="#DejaVuSans-74"/>
      <use transform="translate(1451.806641 0.015625)" xlink:href="#DejaVuSans-6f"/>
      <use transform="translate(1512.988281 0.015625)" xlink:href="#DejaVuSans-20"/>
      <use transform="translate(1544.775391 0.015625)" xlink:href="#DejaVuSans-63"/>
      <use transform="translate(1599.755859 0.015625)" xlink:href="#DejaVuSans-72"/>
      <use transform="translate(1640.869141 0.015625)" xlink:href="#DejaVuSans-6f"/>
      <use transform="translate(1702.050781 0.015625)" xlink:href="#DejaVuSans-70"/>
      <use transform="translate(1765.527344 0.015625)" xlink:href="#DejaVuSans-20"/>
      <use transform="translate(1797.314453 0.015625)" xlink:href="#DejaVuSans-Oblique-3c0"/>
     </g>
    </g>
   </g>
   <g id="matplotlib.axis_2">
    <g id="ytick_1">
     <g id="line2d_13">
      <path clip-path="url(#pe37bb3c62c)" d="M 79.3 445.2 
L 552.5125 445.2 
" style="fill:none;stroke:#b0b0b0;stroke-linecap:square;stroke-width:0.8;"/>
     </g>
     <g id="line2d_14">
      <defs>
       <path d="M 0 0 
L -3.5 0 
" id="md25a8eb98c" style="stroke:#000000;stroke-width:0.8;"/>
      </defs>
      <g>
       <use style="stroke:#000000;stroke-width:0.8;" x="79.3" xlink:href="#md25a8eb98c" y="445.2"/>
      </g>
     </g>
     <g id="text_8">
      <!-- 0.00 -->
      <g transform="translate(36.675 451.27875)scale(0.16 -0.16)">
       <use xlink:href="#DejaVuSans-30"/>
       <use x="63.623047" xlink:href="#DejaVuSans-2e"/>
       <use x="95.410156" xlink:href="#DejaVuSans-30"/>
       <use x="159.033203" xlink:href="#DejaVuSans-30"/>
      </g>
     </g>
    </g>
    <g id="ytick_2">
     <g id="line2d_15">
      <path clip-path="url(#pe37bb3c62c)" d="M 79.3 399.377778 
L 552.5125 399.377778 
" style="fill:none;stroke:#b0b0b0;stroke-linecap:square;stroke-width:0.8;"/>
     </g>
     <g id="line2d_16">
      <g>
       <use style="stroke:#000000;stroke-width:0.8;" x="79.3" xlink:href="#md25a8eb98c" y="399.377778"/>
      </g>
     </g>
     <g id="text_9">
      <!-- 0.05 -->
      <g transform="translate(36.675 405.456528)scale(0.16 -0.16)">
       <defs>
        <path d="M 691 4666 
L 3169 4666 
L 3169 4134 
L 1269 4134 
L 1269 2991 
Q 1406 3038 1543 3061 
Q 1681 3084 1819 3084 
Q 2600 3084 3056 2656 
Q 3513 2228 3513 1497 
Q 3513 744 3044 326 
Q 2575 -91 1722 -91 
Q 1428 -91 1123 -41 
Q 819 9 494 109 
L 494 744 
Q 775 591 1075 516 
Q 1375 441 1709 441 
Q 2250 441 2565 725 
Q 2881 1009 2881 1497 
Q 2881 1984 2565 2268 
Q 2250 2553 1709 2553 
Q 1456 2553 1204 2497 
Q 953 2441 691 2322 
L 691 4666 
z
" id="DejaVuSans-35" transform="scale(0.015625)"/>
       </defs>
       <use xlink:href="#DejaVuSans-30"/>
       <use x="63.623047" xlink:href="#DejaVuSans-2e"/>
       <use x="95.410156" xlink:href="#DejaVuSans-30"/>
       <use x="159.033203" xlink:href="#DejaVuSans-35"/>
      </g>
     </g>
    </g>
    <g id="ytick_3">
     <g id="line2d_17">
      <path clip-path="url(#pe37bb3c62c)" d="M 79.3 353.555556 
L 552.5125 353.555556 
" style="fill:none;stroke:#b0b0b0;stroke-linecap:square;stroke-width:0.8;"/>
     </g>
     <g id="line2d_18">
      <g>
       <use style="stroke:#000000;stroke-width:0.8;" x="79.3" xlink:href="#md25a8eb98c" y="353.555556"/>
      </g>
     </g>
     <g id="text_10">
      <!-- 0.10 -->
      <g transform="translate(36.675 359.634306)scale(0.16 -0.16)">
       <use xlink:href="#DejaVuSans-30"/>
       <use x="63.623047" xlink:href="#DejaVuSans-2e"/>
       <use x="95.410156" xlink:href="#DejaVuSans-31"/>
       <use x="159.033203" xlink:href="#DejaVuSans-30"/>
      </g>
     </g>
    </g>
    <g id="ytick_4">
     <g id="line2d_19">
      <path clip-path="url(#pe37bb3c62c)" d="M 79.3 307.733333 
L 552.5125 307.733333 
" style="fill:none;stroke:#b0b0b0;stroke-linecap:square;stroke-width:0.8;"/>
     </g>
     <g id="line2d_20">
      <g>
       <use style="stroke:#000000;stroke-width:0.8;" x="79.3" xlink:href="#md25a8eb98c" y="307.733333"/>
      </g>
     </g>
     <g id="text_11">
      <!-- 0.15 -->
      <g transform="translate(36.675 313.812083)scale(0.16 -0.16)">
       <use xlink:href="#DejaVuSans-30"/>
       <use x="63.623047" xlink:href="#DejaVuSans-2e"/>
       <use x="95.410156" xlink:href="#DejaVuSans-31"/>
       <use x="159.033203" xlink:href="#DejaVuSans-35"/>
      </g>
     </g>
    </g>
    <g id="ytick_5">
     <g id="line2d_21">
      <path clip-path="url(#pe37bb3c62c)" d="M 79.3 261.911111 
L 552.5125 261.911111 
" style="fill:none;stroke:#b0b0b0;stroke-linecap:square;stroke-width:0.8;"/>
     </g>
     <g id="line2d_22">
      <g>
       <use style="stroke:#000000;stroke-width:0.8;" x="79.3" xlink:href="#md25a8eb98c" y="261.911111"/>
      </g>
     </g>
     <g id="text_12">
      <!-- 0.20 -->
      <g transform="translate(36.675 267.989861)scale(0.16 -0.16)">
       <use xlink:href="#DejaVuSans-30"/>
       <use x="63.623047" xlink:href="#DejaVuSans-2e"/>
       <use x="95.410156" xlink:href="#DejaVuSans-32"/>
       <use x="159.033203" xlink:href="#DejaVuSans-30"/>
      </g>
     </g>
    </g>
    <g id="ytick_6">
     <g id="line2d_23">
      <path clip-path="url(#pe37bb3c62c)" d="M 79.3 216.088889 
L 552.5125 216.088889 
" style="fill:none;stroke:#b0b0b0;stroke-linecap:square;stroke-width:0.8;"/>
     </g>
     <g id="line2d_24">
      <g>
       <use style="stroke:#000000;stroke-width:0.8;" x="79.3" xlink:href="#md25a8eb98c" y="216.088889"/>
      </g>
     </g>
     <g id="text_13">
      <!-- 0.25 -->
      <g transform="translate(36.675 222.167639)scale(0.16 -0.16)">
       <use xlink:href="#DejaVuSans-30"/>
       <use x="63.623047" xlink:href="#DejaVuSans-2e"/>
       <use x="95.410156" xlink:href="#DejaVuSans-32"/>
       <use x="159.033203" xlink:href="#DejaVuSans-35"/>
      </g>
     </g>
    </g>
    <g id="ytick_7">
     <g id="line2d_25">
      <path clip-path="url(#pe37bb3c62c)" d="M 79.3 170.266667 
L 552.5125 170.266667 
" style="fill:none;stroke:#b0b0b0;stroke-linecap:square;stroke-width:0.8;"/>
     </g>
     <g id="line2d_26">
      <g>
       <use style="stroke:#000000;stroke-width:0.8;" x="79.3" xlink:href="#md25a8eb98c" y="170.266667"/>
      </g>
     </g>
     <g id="text_14">
      <!-- 0.30 -->
      <g transform="translate(36.675 176.345417)scale(0.16 -0.16)">
       <defs>
        <path d="M 2597 2516 
Q 3050 2419 3304 2112 
Q 3559 1806 3559 1356 
Q 3559 666 3084 287 
Q 2609 -91 1734 -91 
Q 1441 -91 1130 -33 
Q 819 25 488 141 
L 488 750 
Q 750 597 1062 519 
Q 1375 441 1716 441 
Q 2309 441 2620 675 
Q 2931 909 2931 1356 
Q 2931 1769 2642 2001 
Q 2353 2234 1838 2234 
L 1294 2234 
L 1294 2753 
L 1863 2753 
Q 2328 2753 2575 2939 
Q 2822 3125 2822 3475 
Q 2822 3834 2567 4026 
Q 2313 4219 1838 4219 
Q 1578 4219 1281 4162 
Q 984 4106 628 3988 
L 628 4550 
Q 988 4650 1302 4700 
Q 1616 4750 1894 4750 
Q 2613 4750 3031 4423 
Q 3450 4097 3450 3541 
Q 3450 3153 3228 2886 
Q 3006 2619 2597 2516 
z
" id="DejaVuSans-33" transform="scale(0.015625)"/>
       </defs>
       <use xlink:href="#DejaVuSans-30"/>
       <use x="63.623047" xlink:href="#DejaVuSans-2e"/>
       <use x="95.410156" xlink:href="#DejaVuSans-33"/>
       <use x="159.033203" xlink:href="#DejaVuSans-30"/>
      </g>
     </g>
    </g>
    <g id="ytick_8">
     <g id="line2d_27">
      <path clip-path="url(#pe37bb3c62c)" d="M 79.3 124.444444 
L 552.5125 124.444444 
" style="fill:none;stroke:#b0b0b0;stroke-linecap:square;stroke-width:0.8;"/>
     </g>
     <g id="line2d_28">
      <g>
       <use style="stroke:#000000;stroke-width:0.8;" x="79.3" xlink:href="#md25a8eb98c" y="124.444444"/>
      </g>
     </g>
     <g id="text_15">
      <!-- 0.35 -->
      <g transform="translate(36.675 130.523194)scale(0.16 -0.16)">
       <use xlink:href="#DejaVuSans-30"/>
       <use x="63.623047" xlink:href="#DejaVuSans-2e"/>
       <use x="95.410156" xlink:href="#DejaVuSans-33"/>
       <use x="159.033203" xlink:href="#DejaVuSans-35"/>
      </g>
     </g>
    </g>
    <g id="ytick_9">
     <g id="line2d_29">
      <path clip-path="url(#pe37bb3c62c)" d="M 79.3 78.622222 
L 552.5125 78.622222 
" style="fill:none;stroke:#b0b0b0;stroke-linecap:square;stroke-width:0.8;"/>
     </g>
     <g id="line2d_30">
      <g>
       <use style="stroke:#000000;stroke-width:0.8;" x="79.3" xlink:href="#md25a8eb98c" y="78.622222"/>
      </g>
     </g>
     <g id="text_16">
      <!-- 0.40 -->
      <g transform="translate(36.675 84.700972)scale(0.16 -0.16)">
       <use xlink:href="#DejaVuSans-30"/>
       <use x="63.623047" xlink:href="#DejaVuSans-2e"/>
       <use x="95.410156" xlink:href="#DejaVuSans-34"/>
       <use x="159.033203" xlink:href="#DejaVuSans-30"/>
      </g>
     </g>
    </g>
    <g id="ytick_10">
     <g id="line2d_31">
      <path clip-path="url(#pe37bb3c62c)" d="M 79.3 32.8 
L 552.5125 32.8 
" style="fill:none;stroke:#b0b0b0;stroke-linecap:square;stroke-width:0.8;"/>
     </g>
     <g id="line2d_32">
      <g>
       <use style="stroke:#000000;stroke-width:0.8;" x="79.3" xlink:href="#md25a8eb98c" y="32.8"/>
      </g>
     </g>
     <g id="text_17">
      <!-- 0.45 -->
      <g transform="translate(36.675 38.87875)scale(0.16 -0.16)">
       <use xlink:href="#DejaVuSans-30"/>
       <use x="63.623047" xlink:href="#DejaVuSans-2e"/>
       <use x="95.410156" xlink:href="#DejaVuSans-34"/>
       <use x="159.033203" xlink:href="#DejaVuSans-35"/>
      </g>
     </g>
    </g>
    <g id="text_18">
     <!-- yield $Y$ -->
     <g transform="translate(28.895 268.97)rotate(-90)scale(0.18 -0.18)">
      <defs>
       <path d="M 2059 -325 
Q 1816 -950 1584 -1140 
Q 1353 -1331 966 -1331 
L 506 -1331 
L 506 -850 
L 844 -850 
Q 1081 -850 1212 -737 
Q 1344 -625 1503 -206 
L 1606 56 
L 191 3500 
L 800 3500 
L 1894 763 
L 2988 3500 
L 3597 3500 
L 2059 -325 
z
" id="DejaVuSans-79" transform="scale(0.015625)"/>
       <path d="M 403 4666 
L 1081 4666 
L 1953 2747 
L 3616 4666 
L 4325 4666 
L 2209 2222 
L 1778 0 
L 1147 0 
L 1575 2222 
L 403 4666 
z
" id="DejaVuSans-Oblique-59" transform="scale(0.015625)"/>
      </defs>
      <use transform="translate(0 0.015625)" xlink:href="#DejaVuSans-79"/>
      <use transform="translate(59.179688 0.015625)" xlink:href="#DejaVuSans-69"/>
      <use transform="translate(86.962891 0.015625)" xlink:href="#DejaVuSans-65"/>
      <use transform="translate(148.486328 0.015625)" xlink:href="#DejaVuSans-6c"/>
      <use transform="translate(176.269531 0.015625)" xlink:href="#DejaVuSans-64"/>
      <use transform="translate(239.746094 0.015625)" xlink:href="#DejaVuSans-20"/>
      <use transform="translate(271.533203 0.015625)" xlink:href="#DejaVuSans-Oblique-59"/>
     </g>
    </g>
   </g>
   <g id="line2d_33">
    <path clip-path="url(#pe37bb3c62c)" d="M 84.032125 261.299216 
L 91.892265 260.811154 
L 99.752405 260.338955 
L 107.612544 259.883095 
L 115.472684 259.444006 
L 123.332824 259.022094 
L 131.192964 258.61783 
L 139.053104 258.231625 
L 146.913244 257.863973 
L 154.773383 257.515278 
L 162.633523 257.185979 
L 170.493663 256.876501 
L 178.353803 256.587312 
L 186.213943 256.318833 
L 194.074083 256.071472 
L 201.934222 255.84569 
L 209.794362 255.641886 
L 217.654502 255.46045 
L 225.514642 255.301799 
L 233.374782 255.166324 
L 241.234922 255.054439 
L 249.095061 254.966491 
L 256.955201 254.902848 
L 264.815341 254.863881 
L 272.675481 254.849906 
L 280.535621 254.861265 
L 288.395761 254.898252 
L 296.2559 254.961197 
L 304.11604 255.050358 
L 311.97618 255.166025 
L 319.83632 255.308427 
L 327.69646 255.477786 
L 335.5566 255.674354 
L 343.416739 255.898278 
L 351.276879 256.149803 
L 359.137019 256.429051 
L 366.997159 256.736157 
L 374.857299 257.07124 
L 382.717439 257.434367 
L 390.577578 257.82573 
L 398.437718 258.245284 
L 406.297858 258.693075 
L 414.157998 259.169196 
L 422.018138 259.673534 
L 429.878278 260.206252 
L 437.738417 260.767149 
L 445.598557 261.356223 
L 453.458697 261.973417 
L 461.318837 262.618625 
L 469.178977 263.29175 
L 477.039117 263.992653 
L 484.899256 264.721184 
L 492.759396 265.477268 
L 500.619536 266.260653 
L 508.479676 267.07119 
L 516.339816 267.908688 
L 524.199956 268.772922 
L 532.060095 269.663681 
L 539.920235 270.580779 
L 547.780375 271.523917 
" style="fill:none;stroke:#66c2a5;stroke-linecap:square;stroke-width:2.5;"/>
   </g>
   <g id="line2d_34">
    <path clip-path="url(#pe37bb3c62c)" d="M 84.032125 104.55705 
L 91.892265 103.253628 
L 99.752405 102.198751 
L 107.612544 102.40522 
L 115.472684 104.005862 
L 123.332824 105.874414 
L 131.192964 107.748964 
L 139.053104 109.62114 
L 146.913244 111.491018 
L 154.773383 113.358624 
L 162.633523 115.223984 
L 170.493663 117.087173 
L 178.353803 118.948208 
L 186.213943 120.807129 
L 194.074083 122.664006 
L 201.934222 124.518873 
L 209.794362 126.371764 
L 217.654502 128.222706 
L 225.514642 130.07178 
L 233.374782 131.919024 
L 241.234922 133.764485 
L 249.095061 135.608242 
L 256.955201 137.450328 
L 264.815341 139.290725 
L 272.675481 141.129619 
L 280.535621 142.966986 
L 288.395761 144.802919 
L 296.2559 146.637389 
L 304.11604 148.470524 
L 311.97618 150.302405 
L 319.83632 152.133032 
L 327.69646 153.962496 
L 335.5566 155.790867 
L 343.416739 157.618147 
L 351.276879 159.444457 
L 359.137019 161.269853 
L 366.997159 163.094363 
L 374.857299 164.918085 
L 382.717439 166.74105 
L 390.577578 168.563347 
L 398.437718 170.385041 
L 406.297858 172.206154 
L 414.157998 174.026803 
L 422.018138 175.847042 
L 429.878278 177.666907 
L 437.738417 179.486547 
L 445.598557 181.305976 
L 453.458697 183.125123 
L 461.318837 184.944263 
L 469.178977 186.763396 
L 477.039117 188.58251 
L 484.899256 190.401785 
L 492.759396 192.221225 
L 500.619536 194.040857 
L 508.479676 195.860816 
L 516.339816 197.681153 
L 524.199956 199.501918 
L 532.060095 201.323192 
L 539.920235 203.145014 
L 547.780375 204.967438 
" style="fill:none;stroke:#66c2a5;stroke-dasharray:9.25,4;stroke-dashoffset:0;stroke-width:2.5;"/>
   </g>
   <g id="line2d_35">
    <path clip-path="url(#pe37bb3c62c)" d="M 272.675481 254.849906 
" style="fill:none;stroke:#66c2a5;stroke-linecap:square;stroke-width:1.5;"/>
    <defs>
     <path d="M 0 4 
C 1.060812 4 2.078319 3.578535 2.828427 2.828427 
C 3.578535 2.078319 4 1.060812 4 0 
C 4 -1.060812 3.578535 -2.078319 2.828427 -2.828427 
C 2.078319 -3.578535 1.060812 -4 0 -4 
C -1.060812 -4 -2.078319 -3.578535 -2.828427 -2.828427 
C -3.578535 -2.078319 -4 -1.060812 -4 0 
C -4 1.060812 -3.578535 2.078319 -2.828427 2.828427 
C -2.078319 3.578535 -1.060812 4 0 4 
z
" id="mb253a91e1f" style="stroke:#66c2a5;"/>
    </defs>
    <g clip-path="url(#pe37bb3c62c)">
     <use style="fill:#66c2a5;stroke:#66c2a5;" x="272.675481" xlink:href="#mb253a91e1f" y="254.849906"/>
    </g>
   </g>
   <g id="line2d_36">
    <path clip-path="url(#pe37bb3c62c)" d="M 99.752405 102.198751 
" style="fill:none;stroke:#66c2a5;stroke-linecap:square;stroke-width:1.5;"/>
    <g clip-path="url(#pe37bb3c62c)">
     <use style="fill:#66c2a5;stroke:#66c2a5;" x="99.752405" xlink:href="#mb253a91e1f" y="102.198751"/>
    </g>
   </g>
   <g id="line2d_37">
    <path clip-path="url(#pe37bb3c62c)" d="M 84.032125 271.925304 
L 91.892265 269.544161 
L 99.752405 267.174329 
L 107.612544 264.817863 
L 115.472684 262.476981 
L 123.332824 260.153986 
L 131.192964 257.851374 
L 139.053104 255.571758 
L 146.913244 253.317866 
L 154.773383 251.092548 
L 162.633523 248.898909 
L 170.493663 246.740134 
L 178.353803 244.619509 
L 186.213943 242.54058 
L 194.074083 240.506949 
L 201.934222 238.522387 
L 209.794362 236.59085 
L 217.654502 234.716345 
L 225.514642 232.903042 
L 233.374782 231.155247 
L 241.234922 229.477347 
L 249.095061 227.873788 
L 256.955201 226.349071 
L 264.815341 224.907826 
L 272.675481 223.554577 
L 280.535621 222.293905 
L 288.395761 221.130325 
L 296.2559 220.068275 
L 304.11604 219.112065 
L 311.97618 218.265815 
L 319.83632 217.533538 
L 327.69646 216.918909 
L 335.5566 216.425387 
L 343.416739 216.056076 
L 351.276879 215.813761 
L 359.137019 215.700792 
L 366.997159 215.719153 
L 374.857299 215.870367 
L 382.717439 216.155536 
L 390.577578 216.575269 
L 398.437718 217.129735 
L 406.297858 217.818631 
L 414.157998 218.641228 
L 422.018138 219.596423 
L 429.878278 220.682559 
L 437.738417 221.89779 
L 445.598557 223.23985 
L 453.458697 224.706189 
L 461.318837 226.293976 
L 469.178977 228.000224 
L 477.039117 229.821721 
L 484.899256 231.755157 
L 492.759396 233.796992 
L 500.619536 235.943896 
L 508.479676 238.192224 
L 516.339816 240.538474 
L 524.199956 242.979156 
L 532.060095 245.510788 
L 539.920235 248.130088 
L 547.780375 250.833696 
" style="fill:none;stroke:#fc8d62;stroke-linecap:square;stroke-width:2.5;"/>
   </g>
   <g id="line2d_38">
    <path clip-path="url(#pe37bb3c62c)" d="M 84.032125 161.036736 
L 91.892265 158.382857 
L 99.752405 155.719112 
L 107.612544 153.045797 
L 115.472684 150.363135 
L 123.332824 147.671546 
L 131.192964 144.971333 
L 139.053104 142.262722 
L 146.913244 139.546221 
L 154.773383 136.822099 
L 162.633523 134.090784 
L 170.493663 131.352674 
L 178.353803 128.608243 
L 186.213943 125.85784 
L 194.074083 123.101979 
L 201.934222 120.341103 
L 209.794362 117.575692 
L 217.654502 114.806248 
L 225.514642 112.03322 
L 233.374782 109.257117 
L 241.234922 106.478491 
L 249.095061 103.697824 
L 256.955201 100.915674 
L 264.815341 98.132443 
L 272.675481 95.348804 
L 280.535621 92.565173 
L 288.395761 89.782217 
L 296.2559 87.000354 
L 304.11604 84.220103 
L 311.97618 81.442004 
L 319.83632 78.670454 
L 327.69646 76.577537 
L 335.5566 79.158021 
L 343.416739 82.814452 
L 351.276879 86.476643 
L 359.137019 90.143924 
L 366.997159 93.816784 
L 374.857299 97.495679 
L 382.717439 101.181052 
L 390.577578 104.87327 
L 398.437718 108.572803 
L 406.297858 112.280006 
L 414.157998 115.995247 
L 422.018138 119.718887 
L 429.878278 123.45129 
L 437.738417 127.192714 
L 445.598557 130.943516 
L 453.458697 134.703961 
L 461.318837 138.47414 
L 469.178977 142.254839 
L 477.039117 146.045719 
L 484.899256 149.847208 
L 492.759396 153.659467 
L 500.619536 157.482677 
L 508.479676 161.317029 
L 516.339816 165.162605 
L 524.199956 169.019551 
L 532.060095 172.88795 
L 539.920235 176.767877 
L 547.780375 180.659432 
" style="fill:none;stroke:#fc8d62;stroke-dasharray:9.25,4;stroke-dashoffset:0;stroke-width:2.5;"/>
   </g>
   <g id="line2d_39">
    <path clip-path="url(#pe37bb3c62c)" d="M 359.137019 215.700792 
" style="fill:none;stroke:#fc8d62;stroke-linecap:square;stroke-width:1.5;"/>
    <defs>
     <path d="M 0 4 
C 1.060812 4 2.078319 3.578535 2.828427 2.828427 
C 3.578535 2.078319 4 1.060812 4 0 
C 4 -1.060812 3.578535 -2.078319 2.828427 -2.828427 
C 2.078319 -3.578535 1.060812 -4 0 -4 
C -1.060812 -4 -2.078319 -3.578535 -2.828427 -2.828427 
C -3.578535 -2.078319 -4 -1.060812 -4 0 
C -4 1.060812 -3.578535 2.078319 -2.828427 2.828427 
C -2.078319 3.578535 -1.060812 4 0 4 
z
" id="mdae38ad7ce" style="stroke:#fc8d62;"/>
    </defs>
    <g clip-path="url(#pe37bb3c62c)">
     <use style="fill:#fc8d62;stroke:#fc8d62;" x="359.137019" xlink:href="#mdae38ad7ce" y="215.700792"/>
    </g>
   </g>
   <g id="line2d_40">
    <path clip-path="url(#pe37bb3c62c)" d="M 327.69646 76.577537 
" style="fill:none;stroke:#fc8d62;stroke-linecap:square;stroke-width:1.5;"/>
    <g clip-path="url(#pe37bb3c62c)">
     <use style="fill:#fc8d62;stroke:#fc8d62;" x="327.69646" xlink:href="#mdae38ad7ce" y="76.577537"/>
    </g>
   </g>
   <g id="line2d_41">
    <path clip-path="url(#pe37bb3c62c)" d="M 84.032125 351.006239 
L 91.892265 344.67821 
L 99.752405 338.282821 
L 107.612544 331.825745 
L 115.472684 325.313155 
L 123.332824 318.751857 
L 131.192964 312.149293 
L 139.053104 305.513552 
L 146.913244 298.853352 
L 154.773383 292.178026 
L 162.633523 285.497482 
L 170.493663 278.82218 
L 178.353803 272.163088 
L 186.213943 265.531653 
L 194.074083 258.939766 
L 201.934222 252.399735 
L 209.794362 245.924261 
L 217.654502 239.526429 
L 225.514642 233.219703 
L 233.374782 227.017939 
L 241.234922 220.935406 
L 249.095061 214.986826 
L 256.955201 209.187427 
L 264.815341 203.553012 
L 272.675481 198.100037 
L 280.535621 192.845701 
L 288.395761 187.808038 
L 296.2559 183.006 
L 304.11604 178.459536 
L 311.97618 174.189621 
L 319.83632 170.218259 
L 327.69646 166.568395 
L 335.5566 163.263747 
L 343.416739 160.328513 
L 351.276879 157.786961 
L 359.137019 155.662832 
L 366.997159 153.978655 
L 374.857299 152.754922 
L 382.717439 152.009207 
L 390.577578 151.755299 
L 398.437718 152.002446 
L 406.297858 152.754783 
L 414.157998 154.011041 
L 422.018138 155.764551 
L 429.878278 158.00357 
L 437.738417 160.711873 
L 445.598557 163.869549 
L 453.458697 167.453889 
L 461.318837 171.440327 
L 469.178977 175.803277 
L 477.039117 180.516957 
L 484.899256 185.555968 
L 492.759396 190.895825 
L 500.619536 196.51332 
L 508.479676 202.386764 
L 516.339816 208.496144 
L 524.199956 214.823213 
L 532.060095 221.351523 
L 539.920235 228.066427 
L 547.780375 234.955081 
" style="fill:none;stroke:#8da0cb;stroke-linecap:square;stroke-width:2.5;"/>
   </g>
   <g id="line2d_42">
    <path clip-path="url(#pe37bb3c62c)" d="M 84.032125 273.99573 
L 91.892265 268.666343 
L 99.752405 263.299329 
L 107.612544 257.897163 
L 115.472684 252.46262 
L 123.332824 246.998681 
L 131.192964 241.508629 
L 139.053104 235.995965 
L 146.913244 230.464393 
L 154.773383 224.917792 
L 162.633523 219.360181 
L 170.493663 213.795683 
L 178.353803 208.228486 
L 186.213943 202.662788 
L 194.074083 197.102838 
L 201.934222 191.552731 
L 209.794362 186.016535 
L 217.654502 180.498174 
L 225.514642 175.001402 
L 233.374782 169.529782 
L 241.234922 164.086651 
L 249.095061 158.6751 
L 256.955201 153.297952 
L 264.815341 147.957735 
L 272.675481 142.656756 
L 280.535621 137.396917 
L 288.395761 132.179896 
L 296.2559 127.007059 
L 304.11604 121.87948 
L 311.97618 116.797969 
L 319.83632 111.76302 
L 327.69646 106.774944 
L 335.5566 101.833771 
L 343.416739 96.939322 
L 351.276879 92.091219 
L 359.137019 87.288903 
L 366.997159 82.531654 
L 374.857299 77.818608 
L 382.717439 73.148782 
L 390.577578 68.521082 
L 398.437718 63.934327 
L 406.297858 59.387268 
L 414.157998 54.878589 
L 422.018138 50.41788 
L 429.878278 46.356141 
L 437.738417 42.584606 
L 445.598557 47.328155 
L 453.458697 56.366473 
L 461.318837 65.404643 
L 469.178977 74.442887 
L 477.039117 83.48112 
L 484.899256 92.519322 
L 492.759396 101.557609 
L 500.619536 110.59567 
L 508.479676 119.63407 
L 516.339816 128.672257 
L 524.199956 137.710346 
L 532.060095 146.74885 
L 539.920235 155.786967 
L 547.780375 164.825165 
" style="fill:none;stroke:#8da0cb;stroke-dasharray:9.25,4;stroke-dashoffset:0;stroke-width:2.5;"/>
   </g>
   <g id="line2d_43">
    <path clip-path="url(#pe37bb3c62c)" d="M 390.577578 151.755299 
" style="fill:none;stroke:#8da0cb;stroke-linecap:square;stroke-width:1.5;"/>
    <defs>
     <path d="M 0 4 
C 1.060812 4 2.078319 3.578535 2.828427 2.828427 
C 3.578535 2.078319 4 1.060812 4 0 
C 4 -1.060812 3.578535 -2.078319 2.828427 -2.828427 
C 2.078319 -3.578535 1.060812 -4 0 -4 
C -1.060812 -4 -2.078319 -3.578535 -2.828427 -2.828427 
C -3.578535 -2.078319 -4 -1.060812 -4 0 
C -4 1.060812 -3.578535 2.078319 -2.828427 2.828427 
C -2.078319 3.578535 -1.060812 4 0 4 
z
" id="mb948e5ade3" style="stroke:#8da0cb;"/>
    </defs>
    <g clip-path="url(#pe37bb3c62c)">
     <use style="fill:#8da0cb;stroke:#8da0cb;" x="390.577578" xlink:href="#mb948e5ade3" y="151.755299"/>
    </g>
   </g>
   <g id="line2d_44">
    <path clip-path="url(#pe37bb3c62c)" d="M 437.738417 42.584606 
" style="fill:none;stroke:#8da0cb;stroke-linecap:square;stroke-width:1.5;"/>
    <g clip-path="url(#pe37bb3c62c)">
     <use style="fill:#8da0cb;stroke:#8da0cb;" x="437.738417" xlink:href="#mb948e5ade3" y="42.584606"/>
    </g>
   </g>
   <g id="patch_3">
    <path d="M 79.3 445.2 
L 79.3 32.8 
" style="fill:none;stroke:#000000;stroke-linecap:square;stroke-linejoin:miter;stroke-width:0.8;"/>
   </g>
   <g id="patch_4">
    <path d="M 552.5125 445.2 
L 552.5125 32.8 
" style="fill:none;stroke:#000000;stroke-linecap:square;stroke-linejoin:miter;stroke-width:0.8;"/>
   </g>
   <g id="patch_5">
    <path d="M 79.3 445.2 
L 552.5125 445.2 
" style="fill:none;stroke:#000000;stroke-linecap:square;stroke-linejoin:miter;stroke-width:0.8;"/>
   </g>
   <g id="patch_6">
    <path d="M 79.3 32.8 
L 552.5125 32.8 
" style="fill:none;stroke:#000000;stroke-linecap:square;stroke-linejoin:miter;stroke-width:0.8;"/>
   </g>
   <g id="text_19">
    <!-- Yield $Y$ vs. $\pi$ (fixed cost $\Lambda$) -->
    <g transform="translate(199.08625 26.8)scale(0.18 -0.18)">
     <defs>
      <path d="M -13 4666 
L 666 4666 
L 1959 2747 
L 3244 4666 
L 3922 4666 
L 2272 2222 
L 2272 0 
L 1638 0 
L 1638 2222 
L -13 4666 
z
" id="DejaVuSans-59" transform="scale(0.015625)"/>
      <path d="M 191 3500 
L 800 3500 
L 1894 563 
L 2988 3500 
L 3597 3500 
L 2284 0 
L 1503 0 
L 191 3500 
z
" id="DejaVuSans-76" transform="scale(0.015625)"/>
      <path d="M 1984 4856 
Q 1566 4138 1362 3434 
Q 1159 2731 1159 2009 
Q 1159 1288 1364 580 
Q 1569 -128 1984 -844 
L 1484 -844 
Q 1016 -109 783 600 
Q 550 1309 550 2009 
Q 550 2706 781 3412 
Q 1013 4119 1484 4856 
L 1984 4856 
z
" id="DejaVuSans-28" transform="scale(0.015625)"/>
      <path d="M 3513 3500 
L 2247 1797 
L 3578 0 
L 2900 0 
L 1881 1375 
L 863 0 
L 184 0 
L 1544 1831 
L 300 3500 
L 978 3500 
L 1906 2253 
L 2834 3500 
L 3513 3500 
z
" id="DejaVuSans-78" transform="scale(0.015625)"/>
      <path d="M 716 0 
L 50 0 
L 1831 4666 
L 2547 4666 
L 4325 0 
L 3669 0 
L 2188 4044 
L 716 0 
z
" id="DejaVuSans-39b" transform="scale(0.015625)"/>
      <path d="M 513 4856 
L 1013 4856 
Q 1481 4119 1714 3412 
Q 1947 2706 1947 2009 
Q 1947 1309 1714 600 
Q 1481 -109 1013 -844 
L 513 -844 
Q 928 -128 1133 580 
Q 1338 1288 1338 2009 
Q 1338 2731 1133 3434 
Q 928 4138 513 4856 
z
" id="DejaVuSans-29" transform="scale(0.015625)"/>
     </defs>
     <use transform="translate(0 0.015625)" xlink:href="#DejaVuSans-59"/>
     <use transform="translate(61.083984 0.015625)" xlink:href="#DejaVuSans-69"/>
     <use transform="translate(88.867188 0.015625)" xlink:href="#DejaVuSans-65"/>
     <use transform="translate(150.390625 0.015625)" xlink:href="#DejaVuSans-6c"/>
     <use transform="translate(178.173828 0.015625)" xlink:href="#DejaVuSans-64"/>
     <use transform="translate(241.650391 0.015625)" xlink:href="#DejaVuSans-20"/>
     <use transform="translate(273.4375 0.015625)" xlink:href="#DejaVuSans-Oblique-59"/>
     <use transform="translate(334.521484 0.015625)" xlink:href="#DejaVuSans-20"/>
     <use transform="translate(366.308594 0.015625)" xlink:href="#DejaVuSans-76"/>
     <use transform="translate(425.488281 0.015625)" xlink:href="#DejaVuSans-73"/>
     <use transform="translate(477.587891 0.015625)" xlink:href="#DejaVuSans-2e"/>
     <use transform="translate(509.375 0.015625)" xlink:href="#DejaVuSans-20"/>
     <use transform="translate(541.162109 0.015625)" xlink:href="#DejaVuSans-Oblique-3c0"/>
     <use transform="translate(601.367188 0.015625)" xlink:href="#DejaVuSans-20"/>
     <use transform="translate(633.154297 0.015625)" xlink:href="#DejaVuSans-28"/>
     <use transform="translate(672.167969 0.015625)" xlink:href="#DejaVuSans-66"/>
     <use transform="translate(707.373047 0.015625)" xlink:href="#DejaVuSans-69"/>
     <use transform="translate(735.15625 0.015625)" xlink:href="#DejaVuSans-78"/>
     <use transform="translate(794.335938 0.015625)" xlink:href="#DejaVuSans-65"/>
     <use transform="translate(855.859375 0.015625)" xlink:href="#DejaVuSans-64"/>
     <use transform="translate(919.335938 0.015625)" xlink:href="#DejaVuSans-20"/>
     <use transform="translate(951.123047 0.015625)" xlink:href="#DejaVuSans-63"/>
     <use transform="translate(1006.103516 0.015625)" xlink:href="#DejaVuSans-6f"/>
     <use transform="translate(1067.285156 0.015625)" xlink:href="#DejaVuSans-73"/>
     <use transform="translate(1119.384766 0.015625)" xlink:href="#DejaVuSans-74"/>
     <use transform="translate(1158.59375 0.015625)" xlink:href="#DejaVuSans-20"/>
     <use transform="translate(1190.380859 0.015625)" xlink:href="#DejaVuSans-39b"/>
     <use transform="translate(1258.789062 0.015625)" xlink:href="#DejaVuSans-29"/>
    </g>
   </g>
  </g>
 </g>
 <defs>
  <clipPath id="pe37bb3c62c">
   <rect height="412.4" width="473.2125" x="79.3" y="32.8"/>
  </clipPath>
 </defs>
</svg>
