<?xml version="1.0" encoding="utf-8" standalone="no"?>
<!DOCTYPE svg PUBLIC "-//W3C//DTD SVG 1.1//EN"
  "http://www.w3.org/Graphics/SVG/1.1/DTD/svg11.dtd">
<svg height="432pt" version="1.1" viewBox="0 0 1008 432" width="1008pt" xmlns="http://www.w3.org/2000/svg" xmlns:xlink="http://www.w3.org/1999/xlink">
 <metadata>
  <rdf:RDF xmlns:cc="http://creativecommons.org/ns#" xmlns:dc="http://purl.org/dc/elements/1.1/" xmlns:rdf="http://www.w3.org/1999/02/22-rdf-syntax-ns#">
   <cc:Work>
    <dc:type rdf:resource="http://purl.org/dc/dcmitype/StillImage"/>
    <dc:date>2025-11-01T12:51:05.544331</dc:date>
    <dc:format>image/svg+xml</dc:format>
    <dc:creator>
     <cc:Agent>
      <dc:title>Matplotlib v3.4.3, https://matplotlib.org/</dc:title>
     </cc:Agent>
    </dc:creator>
   </cc:Work>
  </rdf:RDF>
 </metadata>
 <defs>
  <style type="text/css">*{stroke-linecap:butt;stroke-linejoin:round;}</style>
 </defs>
 <g id="figure_1">
  <g id="patch_1">
   <path d="M 0 432 
L 1008 432 
L 1008 0 
L 0 0 
z
" style="fill:none;"/>
  </g>
  <g id="axes_1">
   <g id="patch_2">
    <path d="M 67.925 377.2 
L 510.475 377.2 
L 510.475 29.8 
L 67.925 29.8 
z
" style="fill:#ffffff;"/>
   </g>
   <g id="matplotlib.axis_1">
    <g id="xtick_1">
     <g id="line2d_1">
      <path clip-path="url(#p9431188cf7)" d="M 67.925 377.2 
L 67.925 29.8 
" style="fill:none;stroke:#b0b0b0;stroke-linecap:square;stroke-width:0.8;"/>
     </g>
     <g id="line2d_2">
      <defs>
       <path d="M 0 0 
L 0 3.5 
" id="m4d6f3c9b64" style="stroke:#000000;stroke-width:0.8;"/>
      </defs>
      <g>
       <use style="stroke:#000000;stroke-width:0.8;" x="67.925" xlink:href="#m4d6f3c9b64" y="377.2"/>
      </g>
     </g>
     <g id="text_1">
      <!-- 0.0 -->
      <g transform="translate(56.792813 394.837812)scale(0.14 -0.14)">
       <defs>
        <path d="M 2034 4250 
Q 1547 4250 1301 3770 
Q 1056 3291 1056 2328 
Q 1056 1369 1301 889 
Q 1547 409 2034 409 
Q 2525 409 2770 889 
Q 3016 1369 3016 2328 
Q 3016 3291 2770 3770 
Q 2525 4250 2034 4250 
z
M 2034 4750 
Q 2819 4750 3233 4129 
Q 3647 3509 3647 2328 
Q 3647 1150 3233 529 
Q 2819 -91 2034 -91 
Q 1250 -91 836 529 
Q 422 1150 422 2328 
Q 422 3509 836 4129 
Q 1250 4750 2034 4750 
z
" id="DejaVuSans-30" transform="scale(0.015625)"/>
        <path d="M 684 794 
L 1344 794 
L 1344 0 
L 684 0 
L 684 794 
z
" id="DejaVuSans-2e" transform="scale(0.015625)"/>
       </defs>
       <use xlink:href="#DejaVuSans-30"/>
       <use x="63.623047" xlink:href="#DejaVuSans-2e"/>
       <use x="95.410156" xlink:href="#DejaVuSans-30"/>
      </g>
     </g>
    </g>
    <g id="xtick_2">
     <g id="line2d_3">
      <path clip-path="url(#p9431188cf7)" d="M 156.435 377.2 
L 156.435 29.8 
" style="fill:none;stroke:#b0b0b0;stroke-linecap:square;stroke-width:0.8;"/>
     </g>
     <g id="line2d_4">
      <g>
       <use style="stroke:#000000;stroke-width:0.8;" x="156.435" xlink:href="#m4d6f3c9b64" y="377.2"/>
      </g>
     </g>
     <g id="text_2">
      <!-- 0.2 -->
      <g transform="translate(145.302813 394.837812)scale(0.14 -0.14)">
       <defs>
        <path d="M 1228 531 
L 3431 531 
L 3431 0 
L 469 0 
L 469 531 
Q 828 903 1448 1529 
Q 2069 2156 2228 2338 
Q 2531 2678 2651 2914 
Q 2772 3150 2772 3378 
Q 2772 3750 2511 3984 
Q 2250 4219 1831 4219 
Q 1534 4219 1204 4116 
Q 875 4013 500 3803 
L 500 4441 
Q 881 4594 1212 4672 
Q 1544 4750 1819 4750 
Q 2544 4750 2975 4387 
Q 3406 4025 3406 3419 
Q 3406 3131 3298 2873 
Q 3191 2616 2906 2266 
Q 2828 2175 2409 1742 
Q 1991 1309 1228 531 
z
" id="DejaVuSans-32" transform="scale(0.015625)"/>
       </defs>
       <use xlink:href="#DejaVuSans-30"/>
       <use x="63.623047" xlink:href="#DejaVuSans-2e"/>
       <use x="95.410156" xlink:href="#DejaVuSans-32"/>
      </g>
     </g>
    </g>
    <g id="xtick_3">
     <g id="line2d_5">
      <path clip-path="url(#p9431188cf7)" d="M 244.945 377.2 
L 244.945 29.8 
" style="fill:none;stroke:#b0b0b0;stroke-linecap:square;stroke-width:0.8;"/>
     </g>
     <g id="line2d_6">
      <g>
       <use style="stroke:#000000;stroke-width:0.8;" x="244.945" xlink:href="#m4d6f3c9b64" y="377.2"/>
      </g>
     </g>
     <g id="text_3">
      <!-- 0.4 -->
      <g transform="translate(233.812813 394.837812)scale(0.14 -0.14)">
       <defs>
        <path d="M 2419 4116 
L 825 1625 
L 2419 1625 
L 2419 4116 
z
M 2253 4666 
L 3047 4666 
L 3047 1625 
L 3713 1625 
L 3713 1100 
L 3047 1100 
L 3047 0 
L 2419 0 
L 2419 1100 
L 313 1100 
L 313 1709 
L 2253 4666 
z
" id="DejaVuSans-34" transform="scale(0.015625)"/>
       </defs>
       <use xlink:href="#DejaVuSans-30"/>
       <use x="63.623047" xlink:href="#DejaVuSans-2e"/>
       <use x="95.410156" xlink:href="#DejaVuSans-34"/>
      </g>
     </g>
    </g>
    <g id="xtick_4">
     <g id="line2d_7">
      <path clip-path="url(#p9431188cf7)" d="M 333.455 377.2 
L 333.455 29.8 
" style="fill:none;stroke:#b0b0b0;stroke-linecap:square;stroke-width:0.8;"/>
     </g>
     <g id="line2d_8">
      <g>
       <use style="stroke:#000000;stroke-width:0.8;" x="333.455" xlink:href="#m4d6f3c9b64" y="377.2"/>
      </g>
     </g>
     <g id="text_4">
      <!-- 0.6 -->
      <g transform="translate(322.322813 394.837812)scale(0.14 -0.14)">
       <defs>
        <path d="M 2113 2584 
Q 1688 2584 1439 2293 
Q 1191 2003 1191 1497 
Q 1191 994 1439 701 
Q 1688 409 2113 409 
Q 2538 409 2786 701 
Q 3034 994 3034 1497 
Q 3034 2003 2786 2293 
Q 2538 2584 2113 2584 
z
M 3366 4563 
L 3366 3988 
Q 3128 4100 2886 4159 
Q 2644 4219 2406 4219 
Q 1781 4219 1451 3797 
Q 1122 3375 1075 2522 
Q 1259 2794 1537 2939 
Q 1816 3084 2150 3084 
Q 2853 3084 3261 2657 
Q 3669 2231 3669 1497 
Q 3669 778 3244 343 
Q 2819 -91 2113 -91 
Q 1303 -91 875 529 
Q 447 1150 447 2328 
Q 447 3434 972 4092 
Q 1497 4750 2381 4750 
Q 2619 4750 2861 4703 
Q 3103 4656 3366 4563 
z
" id="DejaVuSans-36" transform="scale(0.015625)"/>
       </defs>
       <use xlink:href="#DejaVuSans-30"/>
       <use x="63.623047" xlink:href="#DejaVuSans-2e"/>
       <use x="95.410156" xlink:href="#DejaVuSans-36"/>
      </g>
     </g>
    </g>
    <g id="xtick_5">
     <g id="line2d_9">
      <path clip-path="url(#p9431188cf7)" d="M 421.965 377.2 
L 421.965 29.8 
" style="fill:none;stroke:#b0b0b0;stroke-linecap:square;stroke-width:0.8;"/>
     </g>
     <g id="line2d_10">
      <g>
       <use style="stroke:#000000;stroke-width:0.8;" x="421.965" xlink:href="#m4d6f3c9b64" y="377.2"/>
      </g>
     </g>
     <g id="text_5">
      <!-- 0.8 -->
      <g transform="translate(410.832813 394.837812)scale(0.14 -0.14)">
       <defs>
        <path d="M 2034 2216 
Q 1584 2216 1326 1975 
Q 1069 1734 1069 1313 
Q 1069 891 1326 650 
Q 1584 409 2034 409 
Q 2484 409 2743 651 
Q 3003 894 3003 1313 
Q 3003 1734 2745 1975 
Q 2488 2216 2034 2216 
z
M 1403 2484 
Q 997 2584 770 2862 
Q 544 3141 544 3541 
Q 544 4100 942 4425 
Q 1341 4750 2034 4750 
Q 2731 4750 3128 4425 
Q 3525 4100 3525 3541 
Q 3525 3141 3298 2862 
Q 3072 2584 2669 2484 
Q 3125 2378 3379 2068 
Q 3634 1759 3634 1313 
Q 3634 634 3220 271 
Q 2806 -91 2034 -91 
Q 1263 -91 848 271 
Q 434 634 434 1313 
Q 434 1759 690 2068 
Q 947 2378 1403 2484 
z
M 1172 3481 
Q 1172 3119 1398 2916 
Q 1625 2713 2034 2713 
Q 2441 2713 2670 2916 
Q 2900 3119 2900 3481 
Q 2900 3844 2670 4047 
Q 2441 4250 2034 4250 
Q 1625 4250 1398 4047 
Q 1172 3844 1172 3481 
z
" id="DejaVuSans-38" transform="scale(0.015625)"/>
       </defs>
       <use xlink:href="#DejaVuSans-30"/>
       <use x="63.623047" xlink:href="#DejaVuSans-2e"/>
       <use x="95.410156" xlink:href="#DejaVuSans-38"/>
      </g>
     </g>
    </g>
    <g id="xtick_6">
     <g id="line2d_11">
      <path clip-path="url(#p9431188cf7)" d="M 510.475 377.2 
L 510.475 29.8 
" style="fill:none;stroke:#b0b0b0;stroke-linecap:square;stroke-width:0.8;"/>
     </g>
     <g id="line2d_12">
      <g>
       <use style="stroke:#000000;stroke-width:0.8;" x="510.475" xlink:href="#m4d6f3c9b64" y="377.2"/>
      </g>
     </g>
     <g id="text_6">
      <!-- 1.0 -->
      <g transform="translate(499.342813 394.837812)scale(0.14 -0.14)">
       <defs>
        <path d="M 794 531 
L 1825 531 
L 1825 4091 
L 703 3866 
L 703 4441 
L 1819 4666 
L 2450 4666 
L 2450 531 
L 3481 531 
L 3481 0 
L 794 0 
L 794 531 
z
" id="DejaVuSans-31" transform="scale(0.015625)"/>
       </defs>
       <use xlink:href="#DejaVuSans-31"/>
       <use x="63.623047" xlink:href="#DejaVuSans-2e"/>
       <use x="95.410156" xlink:href="#DejaVuSans-30"/>
      </g>
     </g>
    </g>
    <g id="text_7">
     <!-- proportion of cost allocated to crop $\pi$ -->
     <g transform="translate(140.56 413.909375)scale(0.16 -0.16)">
      <defs>
       <path d="M 1159 525 
L 1159 -1331 
L 581 -1331 
L 581 3500 
L 1159 3500 
L 1159 2969 
Q 1341 3281 1617 3432 
Q 1894 3584 2278 3584 
Q 2916 3584 3314 3078 
Q 3713 2572 3713 1747 
Q 3713 922 3314 415 
Q 2916 -91 2278 -91 
Q 1894 -91 1617 61 
Q 1341 213 1159 525 
z
M 3116 1747 
Q 3116 2381 2855 2742 
Q 2594 3103 2138 3103 
Q 1681 3103 1420 2742 
Q 1159 2381 1159 1747 
Q 1159 1113 1420 752 
Q 1681 391 2138 391 
Q 2594 391 2855 752 
Q 3116 1113 3116 1747 
z
" id="DejaVuSans-70" transform="scale(0.015625)"/>
       <path d="M 2631 2963 
Q 2534 3019 2420 3045 
Q 2306 3072 2169 3072 
Q 1681 3072 1420 2755 
Q 1159 2438 1159 1844 
L 1159 0 
L 581 0 
L 581 3500 
L 1159 3500 
L 1159 2956 
Q 1341 3275 1631 3429 
Q 1922 3584 2338 3584 
Q 2397 3584 2469 3576 
Q 2541 3569 2628 3553 
L 2631 2963 
z
" id="DejaVuSans-72" transform="scale(0.015625)"/>
       <path d="M 1959 3097 
Q 1497 3097 1228 2736 
Q 959 2375 959 1747 
Q 959 1119 1226 758 
Q 1494 397 1959 397 
Q 2419 397 2687 759 
Q 2956 1122 2956 1747 
Q 2956 2369 2687 2733 
Q 2419 3097 1959 3097 
z
M 1959 3584 
Q 2709 3584 3137 3096 
Q 3566 2609 3566 1747 
Q 3566 888 3137 398 
Q 2709 -91 1959 -91 
Q 1206 -91 779 398 
Q 353 888 353 1747 
Q 353 2609 779 3096 
Q 1206 3584 1959 3584 
z
" id="DejaVuSans-6f" transform="scale(0.015625)"/>
       <path d="M 1172 4494 
L 1172 3500 
L 2356 3500 
L 2356 3053 
L 1172 3053 
L 1172 1153 
Q 1172 725 1289 603 
Q 1406 481 1766 481 
L 2356 481 
L 2356 0 
L 1766 0 
Q 1100 0 847 248 
Q 594 497 594 1153 
L 594 3053 
L 172 3053 
L 172 3500 
L 594 3500 
L 594 4494 
L 1172 4494 
z
" id="DejaVuSans-74" transform="scale(0.015625)"/>
       <path d="M 603 3500 
L 1178 3500 
L 1178 0 
L 603 0 
L 603 3500 
z
M 603 4863 
L 1178 4863 
L 1178 4134 
L 603 4134 
L 603 4863 
z
" id="DejaVuSans-69" transform="scale(0.015625)"/>
       <path d="M 3513 2113 
L 3513 0 
L 2938 0 
L 2938 2094 
Q 2938 2591 2744 2837 
Q 2550 3084 2163 3084 
Q 1697 3084 1428 2787 
Q 1159 2491 1159 1978 
L 1159 0 
L 581 0 
L 581 3500 
L 1159 3500 
L 1159 2956 
Q 1366 3272 1645 3428 
Q 1925 3584 2291 3584 
Q 2894 3584 3203 3211 
Q 3513 2838 3513 2113 
z
" id="DejaVuSans-6e" transform="scale(0.015625)"/>
       <path id="DejaVuSans-20" transform="scale(0.015625)"/>
       <path d="M 2375 4863 
L 2375 4384 
L 1825 4384 
Q 1516 4384 1395 4259 
Q 1275 4134 1275 3809 
L 1275 3500 
L 2222 3500 
L 2222 3053 
L 1275 3053 
L 1275 0 
L 697 0 
L 697 3053 
L 147 3053 
L 147 3500 
L 697 3500 
L 697 3744 
Q 697 4328 969 4595 
Q 1241 4863 1831 4863 
L 2375 4863 
z
" id="DejaVuSans-66" transform="scale(0.015625)"/>
       <path d="M 3122 3366 
L 3122 2828 
Q 2878 2963 2633 3030 
Q 2388 3097 2138 3097 
Q 1578 3097 1268 2742 
Q 959 2388 959 1747 
Q 959 1106 1268 751 
Q 1578 397 2138 397 
Q 2388 397 2633 464 
Q 2878 531 3122 666 
L 3122 134 
Q 2881 22 2623 -34 
Q 2366 -91 2075 -91 
Q 1284 -91 818 406 
Q 353 903 353 1747 
Q 353 2603 823 3093 
Q 1294 3584 2113 3584 
Q 2378 3584 2631 3529 
Q 2884 3475 3122 3366 
z
" id="DejaVuSans-63" transform="scale(0.015625)"/>
       <path d="M 2834 3397 
L 2834 2853 
Q 2591 2978 2328 3040 
Q 2066 3103 1784 3103 
Q 1356 3103 1142 2972 
Q 928 2841 928 2578 
Q 928 2378 1081 2264 
Q 1234 2150 1697 2047 
L 1894 2003 
Q 2506 1872 2764 1633 
Q 3022 1394 3022 966 
Q 3022 478 2636 193 
Q 2250 -91 1575 -91 
Q 1294 -91 989 -36 
Q 684 19 347 128 
L 347 722 
Q 666 556 975 473 
Q 1284 391 1588 391 
Q 1994 391 2212 530 
Q 2431 669 2431 922 
Q 2431 1156 2273 1281 
Q 2116 1406 1581 1522 
L 1381 1569 
Q 847 1681 609 1914 
Q 372 2147 372 2553 
Q 372 3047 722 3315 
Q 1072 3584 1716 3584 
Q 2034 3584 2315 3537 
Q 2597 3491 2834 3397 
z
" id="DejaVuSans-73" transform="scale(0.015625)"/>
       <path d="M 2194 1759 
Q 1497 1759 1228 1600 
Q 959 1441 959 1056 
Q 959 750 1161 570 
Q 1363 391 1709 391 
Q 2188 391 2477 730 
Q 2766 1069 2766 1631 
L 2766 1759 
L 2194 1759 
z
M 3341 1997 
L 3341 0 
L 2766 0 
L 2766 531 
Q 2569 213 2275 61 
Q 1981 -91 1556 -91 
Q 1019 -91 701 211 
Q 384 513 384 1019 
Q 384 1609 779 1909 
Q 1175 2209 1959 2209 
L 2766 2209 
L 2766 2266 
Q 2766 2663 2505 2880 
Q 2244 3097 1772 3097 
Q 1472 3097 1187 3025 
Q 903 2953 641 2809 
L 641 3341 
Q 956 3463 1253 3523 
Q 1550 3584 1831 3584 
Q 2591 3584 2966 3190 
Q 3341 2797 3341 1997 
z
" id="DejaVuSans-61" transform="scale(0.015625)"/>
       <path d="M 603 4863 
L 1178 4863 
L 1178 0 
L 603 0 
L 603 4863 
z
" id="DejaVuSans-6c" transform="scale(0.015625)"/>
       <path d="M 3597 1894 
L 3597 1613 
L 953 1613 
Q 991 1019 1311 708 
Q 1631 397 2203 397 
Q 2534 397 2845 478 
Q 3156 559 3463 722 
L 3463 178 
Q 3153 47 2828 -22 
Q 2503 -91 2169 -91 
Q 1331 -91 842 396 
Q 353 884 353 1716 
Q 353 2575 817 3079 
Q 1281 3584 2069 3584 
Q 2775 3584 3186 3129 
Q 3597 2675 3597 1894 
z
M 3022 2063 
Q 3016 2534 2758 2815 
Q 2500 3097 2075 3097 
Q 1594 3097 1305 2825 
Q 1016 2553 972 2059 
L 3022 2063 
z
" id="DejaVuSans-65" transform="scale(0.015625)"/>
       <path d="M 2906 2969 
L 2906 4863 
L 3481 4863 
L 3481 0 
L 2906 0 
L 2906 525 
Q 2725 213 2448 61 
Q 2172 -91 1784 -91 
Q 1150 -91 751 415 
Q 353 922 353 1747 
Q 353 2572 751 3078 
Q 1150 3584 1784 3584 
Q 2172 3584 2448 3432 
Q 2725 3281 2906 2969 
z
M 947 1747 
Q 947 1113 1208 752 
Q 1469 391 1925 391 
Q 2381 391 2643 752 
Q 2906 1113 2906 1747 
Q 2906 2381 2643 2742 
Q 2381 3103 1925 3103 
Q 1469 3103 1208 2742 
Q 947 2381 947 1747 
z
" id="DejaVuSans-64" transform="scale(0.015625)"/>
       <path d="M 584 3500 
L 3938 3500 
L 3825 2925 
L 3384 2925 
L 2966 775 
Q 2922 550 2981 450 
Q 3038 353 3209 353 
Q 3256 353 3325 363 
Q 3397 369 3419 372 
L 3338 -44 
Q 3222 -84 3103 -103 
Q 2981 -122 2866 -122 
Q 2491 -122 2388 81 
Q 2284 288 2391 838 
L 2797 2925 
L 1506 2925 
L 938 0 
L 350 0 
L 919 2925 
L 472 2925 
L 584 3500 
z
" id="DejaVuSans-Oblique-3c0" transform="scale(0.015625)"/>
      </defs>
      <use transform="translate(0 0.015625)" xlink:href="#DejaVuSans-70"/>
      <use transform="translate(63.476562 0.015625)" xlink:href="#DejaVuSans-72"/>
      <use transform="translate(104.589844 0.015625)" xlink:href="#DejaVuSans-6f"/>
      <use transform="translate(165.771484 0.015625)" xlink:href="#DejaVuSans-70"/>
      <use transform="translate(229.248047 0.015625)" xlink:href="#DejaVuSans-6f"/>
      <use transform="translate(290.429688 0.015625)" xlink:href="#DejaVuSans-72"/>
      <use transform="translate(331.542969 0.015625)" xlink:href="#DejaVuSans-74"/>
      <use transform="translate(370.751953 0.015625)" xlink:href="#DejaVuSans-69"/>
      <use transform="translate(398.535156 0.015625)" xlink:href="#DejaVuSans-6f"/>
      <use transform="translate(459.716797 0.015625)" xlink:href="#DejaVuSans-6e"/>
      <use transform="translate(523.095703 0.015625)" xlink:href="#DejaVuSans-20"/>
      <use transform="translate(554.882812 0.015625)" xlink:href="#DejaVuSans-6f"/>
      <use transform="translate(616.064453 0.015625)" xlink:href="#DejaVuSans-66"/>
      <use transform="translate(651.269531 0.015625)" xlink:href="#DejaVuSans-20"/>
      <use transform="translate(683.056641 0.015625)" xlink:href="#DejaVuSans-63"/>
      <use transform="translate(738.037109 0.015625)" xlink:href="#DejaVuSans-6f"/>
      <use transform="translate(799.21875 0.015625)" xlink:href="#DejaVuSans-73"/>
      <use transform="translate(851.318359 0.015625)" xlink:href="#DejaVuSans-74"/>
      <use transform="translate(890.527344 0.015625)" xlink:href="#DejaVuSans-20"/>
      <use transform="translate(922.314453 0.015625)" xlink:href="#DejaVuSans-61"/>
      <use transform="translate(983.59375 0.015625)" xlink:href="#DejaVuSans-6c"/>
      <use transform="translate(1011.376953 0.015625)" xlink:href="#DejaVuSans-6c"/>
      <use transform="translate(1039.160156 0.015625)" xlink:href="#DejaVuSans-6f"/>
      <use transform="translate(1100.341797 0.015625)" xlink:href="#DejaVuSans-63"/>
      <use transform="translate(1155.322266 0.015625)" xlink:href="#DejaVuSans-61"/>
      <use transform="translate(1216.601562 0.015625)" xlink:href="#DejaVuSans-74"/>
      <use transform="translate(1255.810547 0.015625)" xlink:href="#DejaVuSans-65"/>
      <use transform="translate(1317.333984 0.015625)" xlink:href="#DejaVuSans-64"/>
      <use transform="translate(1380.810547 0.015625)" xlink:href="#DejaVuSans-20"/>
      <use transform="translate(1412.597656 0.015625)" xlink:href="#DejaVuSans-74"/>
      <use transform="translate(1451.806641 0.015625)" xlink:href="#DejaVuSans-6f"/>
      <use transform="translate(1512.988281 0.015625)" xlink:href="#DejaVuSans-20"/>
      <use transform="translate(1544.775391 0.015625)" xlink:href="#DejaVuSans-63"/>
      <use transform="translate(1599.755859 0.015625)" xlink:href="#DejaVuSans-72"/>
      <use transform="translate(1640.869141 0.015625)" xlink:href="#DejaVuSans-6f"/>
      <use transform="translate(1702.050781 0.015625)" xlink:href="#DejaVuSans-70"/>
      <use transform="translate(1765.527344 0.015625)" xlink:href="#DejaVuSans-20"/>
      <use transform="translate(1797.314453 0.015625)" xlink:href="#DejaVuSans-Oblique-3c0"/>
     </g>
    </g>
   </g>
   <g id="matplotlib.axis_2">
    <g id="ytick_1">
     <g id="line2d_13">
      <path clip-path="url(#p9431188cf7)" d="M 67.925 377.2 
L 510.475 377.2 
" style="fill:none;stroke:#b0b0b0;stroke-linecap:square;stroke-width:0.8;"/>
     </g>
     <g id="line2d_14">
      <defs>
       <path d="M 0 0 
L -3.5 0 
" id="mef383f7ba0" style="stroke:#000000;stroke-width:0.8;"/>
      </defs>
      <g>
       <use style="stroke:#000000;stroke-width:0.8;" x="67.925" xlink:href="#mef383f7ba0" y="377.2"/>
      </g>
     </g>
     <g id="text_8">
      <!-- 0.00 -->
      <g transform="translate(29.753125 382.518906)scale(0.14 -0.14)">
       <use xlink:href="#DejaVuSans-30"/>
       <use x="63.623047" xlink:href="#DejaVuSans-2e"/>
       <use x="95.410156" xlink:href="#DejaVuSans-30"/>
       <use x="159.033203" xlink:href="#DejaVuSans-30"/>
      </g>
     </g>
    </g>
    <g id="ytick_2">
     <g id="line2d_15">
      <path clip-path="url(#p9431188cf7)" d="M 67.925 338.6 
L 510.475 338.6 
" style="fill:none;stroke:#b0b0b0;stroke-linecap:square;stroke-width:0.8;"/>
     </g>
     <g id="line2d_16">
      <g>
       <use style="stroke:#000000;stroke-width:0.8;" x="67.925" xlink:href="#mef383f7ba0" y="338.6"/>
      </g>
     </g>
     <g id="text_9">
      <!-- 0.05 -->
      <g transform="translate(29.753125 343.918906)scale(0.14 -0.14)">
       <defs>
        <path d="M 691 4666 
L 3169 4666 
L 3169 4134 
L 1269 4134 
L 1269 2991 
Q 1406 3038 1543 3061 
Q 1681 3084 1819 3084 
Q 2600 3084 3056 2656 
Q 3513 2228 3513 1497 
Q 3513 744 3044 326 
Q 2575 -91 1722 -91 
Q 1428 -91 1123 -41 
Q 819 9 494 109 
L 494 744 
Q 775 591 1075 516 
Q 1375 441 1709 441 
Q 2250 441 2565 725 
Q 2881 1009 2881 1497 
Q 2881 1984 2565 2268 
Q 2250 2553 1709 2553 
Q 1456 2553 1204 2497 
Q 953 2441 691 2322 
L 691 4666 
z
" id="DejaVuSans-35" transform="scale(0.015625)"/>
       </defs>
       <use xlink:href="#DejaVuSans-30"/>
       <use x="63.623047" xlink:href="#DejaVuSans-2e"/>
       <use x="95.410156" xlink:href="#DejaVuSans-30"/>
       <use x="159.033203" xlink:href="#DejaVuSans-35"/>
      </g>
     </g>
    </g>
    <g id="ytick_3">
     <g id="line2d_17">
      <path clip-path="url(#p9431188cf7)" d="M 67.925 300 
L 510.475 300 
" style="fill:none;stroke:#b0b0b0;stroke-linecap:square;stroke-width:0.8;"/>
     </g>
     <g id="line2d_18">
      <g>
       <use style="stroke:#000000;stroke-width:0.8;" x="67.925" xlink:href="#mef383f7ba0" y="300"/>
      </g>
     </g>
     <g id="text_10">
      <!-- 0.10 -->
      <g transform="translate(29.753125 305.318906)scale(0.14 -0.14)">
       <use xlink:href="#DejaVuSans-30"/>
       <use x="63.623047" xlink:href="#DejaVuSans-2e"/>
       <use x="95.410156" xlink:href="#DejaVuSans-31"/>
       <use x="159.033203" xlink:href="#DejaVuSans-30"/>
      </g>
     </g>
    </g>
    <g id="ytick_4">
     <g id="line2d_19">
      <path clip-path="url(#p9431188cf7)" d="M 67.925 261.4 
L 510.475 261.4 
" style="fill:none;stroke:#b0b0b0;stroke-linecap:square;stroke-width:0.8;"/>
     </g>
     <g id="line2d_20">
      <g>
       <use style="stroke:#000000;stroke-width:0.8;" x="67.925" xlink:href="#mef383f7ba0" y="261.4"/>
      </g>
     </g>
     <g id="text_11">
      <!-- 0.15 -->
      <g transform="translate(29.753125 266.718906)scale(0.14 -0.14)">
       <use xlink:href="#DejaVuSans-30"/>
       <use x="63.623047" xlink:href="#DejaVuSans-2e"/>
       <use x="95.410156" xlink:href="#DejaVuSans-31"/>
       <use x="159.033203" xlink:href="#DejaVuSans-35"/>
      </g>
     </g>
    </g>
    <g id="ytick_5">
     <g id="line2d_21">
      <path clip-path="url(#p9431188cf7)" d="M 67.925 222.8 
L 510.475 222.8 
" style="fill:none;stroke:#b0b0b0;stroke-linecap:square;stroke-width:0.8;"/>
     </g>
     <g id="line2d_22">
      <g>
       <use style="stroke:#000000;stroke-width:0.8;" x="67.925" xlink:href="#mef383f7ba0" y="222.8"/>
      </g>
     </g>
     <g id="text_12">
      <!-- 0.20 -->
      <g transform="translate(29.753125 228.118906)scale(0.14 -0.14)">
       <use xlink:href="#DejaVuSans-30"/>
       <use x="63.623047" xlink:href="#DejaVuSans-2e"/>
       <use x="95.410156" xlink:href="#DejaVuSans-32"/>
       <use x="159.033203" xlink:href="#DejaVuSans-30"/>
      </g>
     </g>
    </g>
    <g id="ytick_6">
     <g id="line2d_23">
      <path clip-path="url(#p9431188cf7)" d="M 67.925 184.2 
L 510.475 184.2 
" style="fill:none;stroke:#b0b0b0;stroke-linecap:square;stroke-width:0.8;"/>
     </g>
     <g id="line2d_24">
      <g>
       <use style="stroke:#000000;stroke-width:0.8;" x="67.925" xlink:href="#mef383f7ba0" y="184.2"/>
      </g>
     </g>
     <g id="text_13">
      <!-- 0.25 -->
      <g transform="translate(29.753125 189.518906)scale(0.14 -0.14)">
       <use xlink:href="#DejaVuSans-30"/>
       <use x="63.623047" xlink:href="#DejaVuSans-2e"/>
       <use x="95.410156" xlink:href="#DejaVuSans-32"/>
       <use x="159.033203" xlink:href="#DejaVuSans-35"/>
      </g>
     </g>
    </g>
    <g id="ytick_7">
     <g id="line2d_25">
      <path clip-path="url(#p9431188cf7)" d="M 67.925 145.6 
L 510.475 145.6 
" style="fill:none;stroke:#b0b0b0;stroke-linecap:square;stroke-width:0.8;"/>
     </g>
     <g id="line2d_26">
      <g>
       <use style="stroke:#000000;stroke-width:0.8;" x="67.925" xlink:href="#mef383f7ba0" y="145.6"/>
      </g>
     </g>
     <g id="text_14">
      <!-- 0.30 -->
      <g transform="translate(29.753125 150.918906)scale(0.14 -0.14)">
       <defs>
        <path d="M 2597 2516 
Q 3050 2419 3304 2112 
Q 3559 1806 3559 1356 
Q 3559 666 3084 287 
Q 2609 -91 1734 -91 
Q 1441 -91 1130 -33 
Q 819 25 488 141 
L 488 750 
Q 750 597 1062 519 
Q 1375 441 1716 441 
Q 2309 441 2620 675 
Q 2931 909 2931 1356 
Q 2931 1769 2642 2001 
Q 2353 2234 1838 2234 
L 1294 2234 
L 1294 2753 
L 1863 2753 
Q 2328 2753 2575 2939 
Q 2822 3125 2822 3475 
Q 2822 3834 2567 4026 
Q 2313 4219 1838 4219 
Q 1578 4219 1281 4162 
Q 984 4106 628 3988 
L 628 4550 
Q 988 4650 1302 4700 
Q 1616 4750 1894 4750 
Q 2613 4750 3031 4423 
Q 3450 4097 3450 3541 
Q 3450 3153 3228 2886 
Q 3006 2619 2597 2516 
z
" id="DejaVuSans-33" transform="scale(0.015625)"/>
       </defs>
       <use xlink:href="#DejaVuSans-30"/>
       <use x="63.623047" xlink:href="#DejaVuSans-2e"/>
       <use x="95.410156" xlink:href="#DejaVuSans-33"/>
       <use x="159.033203" xlink:href="#DejaVuSans-30"/>
      </g>
     </g>
    </g>
    <g id="ytick_8">
     <g id="line2d_27">
      <path clip-path="url(#p9431188cf7)" d="M 67.925 107 
L 510.475 107 
" style="fill:none;stroke:#b0b0b0;stroke-linecap:square;stroke-width:0.8;"/>
     </g>
     <g id="line2d_28">
      <g>
       <use style="stroke:#000000;stroke-width:0.8;" x="67.925" xlink:href="#mef383f7ba0" y="107"/>
      </g>
     </g>
     <g id="text_15">
      <!-- 0.35 -->
      <g transform="translate(29.753125 112.318906)scale(0.14 -0.14)">
       <use xlink:href="#DejaVuSans-30"/>
       <use x="63.623047" xlink:href="#DejaVuSans-2e"/>
       <use x="95.410156" xlink:href="#DejaVuSans-33"/>
       <use x="159.033203" xlink:href="#DejaVuSans-35"/>
      </g>
     </g>
    </g>
    <g id="ytick_9">
     <g id="line2d_29">
      <path clip-path="url(#p9431188cf7)" d="M 67.925 68.4 
L 510.475 68.4 
" style="fill:none;stroke:#b0b0b0;stroke-linecap:square;stroke-width:0.8;"/>
     </g>
     <g id="line2d_30">
      <g>
       <use style="stroke:#000000;stroke-width:0.8;" x="67.925" xlink:href="#mef383f7ba0" y="68.4"/>
      </g>
     </g>
     <g id="text_16">
      <!-- 0.40 -->
      <g transform="translate(29.753125 73.718906)scale(0.14 -0.14)">
       <use xlink:href="#DejaVuSans-30"/>
       <use x="63.623047" xlink:href="#DejaVuSans-2e"/>
       <use x="95.410156" xlink:href="#DejaVuSans-34"/>
       <use x="159.033203" xlink:href="#DejaVuSans-30"/>
      </g>
     </g>
    </g>
    <g id="ytick_10">
     <g id="line2d_31">
      <path clip-path="url(#p9431188cf7)" d="M 67.925 29.8 
L 510.475 29.8 
" style="fill:none;stroke:#b0b0b0;stroke-linecap:square;stroke-width:0.8;"/>
     </g>
     <g id="line2d_32">
      <g>
       <use style="stroke:#000000;stroke-width:0.8;" x="67.925" xlink:href="#mef383f7ba0" y="29.8"/>
      </g>
     </g>
     <g id="text_17">
      <!-- 0.45 -->
      <g transform="translate(29.753125 35.118906)scale(0.14 -0.14)">
       <use xlink:href="#DejaVuSans-30"/>
       <use x="63.623047" xlink:href="#DejaVuSans-2e"/>
       <use x="95.410156" xlink:href="#DejaVuSans-34"/>
       <use x="159.033203" xlink:href="#DejaVuSans-35"/>
      </g>
     </g>
    </g>
    <g id="text_18">
     <!-- overall system performance -->
     <g transform="translate(22.425625 315.93125)rotate(-90)scale(0.16 -0.16)">
      <defs>
       <path d="M 191 3500 
L 800 3500 
L 1894 563 
L 2988 3500 
L 3597 3500 
L 2284 0 
L 1503 0 
L 191 3500 
z
" id="DejaVuSans-76" transform="scale(0.015625)"/>
       <path d="M 2059 -325 
Q 1816 -950 1584 -1140 
Q 1353 -1331 966 -1331 
L 506 -1331 
L 506 -850 
L 844 -850 
Q 1081 -850 1212 -737 
Q 1344 -625 1503 -206 
L 1606 56 
L 191 3500 
L 800 3500 
L 1894 763 
L 2988 3500 
L 3597 3500 
L 2059 -325 
z
" id="DejaVuSans-79" transform="scale(0.015625)"/>
       <path d="M 3328 2828 
Q 3544 3216 3844 3400 
Q 4144 3584 4550 3584 
Q 5097 3584 5394 3201 
Q 5691 2819 5691 2113 
L 5691 0 
L 5113 0 
L 5113 2094 
Q 5113 2597 4934 2840 
Q 4756 3084 4391 3084 
Q 3944 3084 3684 2787 
Q 3425 2491 3425 1978 
L 3425 0 
L 2847 0 
L 2847 2094 
Q 2847 2600 2669 2842 
Q 2491 3084 2119 3084 
Q 1678 3084 1418 2786 
Q 1159 2488 1159 1978 
L 1159 0 
L 581 0 
L 581 3500 
L 1159 3500 
L 1159 2956 
Q 1356 3278 1631 3431 
Q 1906 3584 2284 3584 
Q 2666 3584 2933 3390 
Q 3200 3197 3328 2828 
z
" id="DejaVuSans-6d" transform="scale(0.015625)"/>
      </defs>
      <use xlink:href="#DejaVuSans-6f"/>
      <use x="61.181641" xlink:href="#DejaVuSans-76"/>
      <use x="120.361328" xlink:href="#DejaVuSans-65"/>
      <use x="181.884766" xlink:href="#DejaVuSans-72"/>
      <use x="222.998047" xlink:href="#DejaVuSans-61"/>
      <use x="284.277344" xlink:href="#DejaVuSans-6c"/>
      <use x="312.060547" xlink:href="#DejaVuSans-6c"/>
      <use x="339.84375" xlink:href="#DejaVuSans-20"/>
      <use x="371.630859" xlink:href="#DejaVuSans-73"/>
      <use x="423.730469" xlink:href="#DejaVuSans-79"/>
      <use x="482.910156" xlink:href="#DejaVuSans-73"/>
      <use x="535.009766" xlink:href="#DejaVuSans-74"/>
      <use x="574.21875" xlink:href="#DejaVuSans-65"/>
      <use x="635.742188" xlink:href="#DejaVuSans-6d"/>
      <use x="733.154297" xlink:href="#DejaVuSans-20"/>
      <use x="764.941406" xlink:href="#DejaVuSans-70"/>
      <use x="828.417969" xlink:href="#DejaVuSans-65"/>
      <use x="889.941406" xlink:href="#DejaVuSans-72"/>
      <use x="931.054688" xlink:href="#DejaVuSans-66"/>
      <use x="966.259766" xlink:href="#DejaVuSans-6f"/>
      <use x="1027.441406" xlink:href="#DejaVuSans-72"/>
      <use x="1066.804688" xlink:href="#DejaVuSans-6d"/>
      <use x="1164.216797" xlink:href="#DejaVuSans-61"/>
      <use x="1225.496094" xlink:href="#DejaVuSans-6e"/>
      <use x="1288.875" xlink:href="#DejaVuSans-63"/>
      <use x="1343.855469" xlink:href="#DejaVuSans-65"/>
     </g>
    </g>
   </g>
   <g id="line2d_33">
    <path clip-path="url(#p9431188cf7)" d="M 72.3505 231.235817 
L 79.701331 229.229974 
L 87.052161 227.233662 
L 94.402992 225.248607 
L 101.753822 223.276681 
L 109.104653 221.319823 
L 116.455483 219.380134 
L 123.806314 217.459817 
L 131.157144 215.56117 
L 138.507975 213.686594 
L 145.858805 211.838703 
L 153.209636 210.020181 
L 160.560466 208.233796 
L 167.911297 206.482535 
L 175.262127 204.769432 
L 182.612958 203.097666 
L 189.963788 201.470566 
L 197.314619 199.891509 
L 204.665449 198.364008 
L 212.01628 196.891689 
L 219.36711 195.47825 
L 226.717941 194.127434 
L 234.068771 192.843034 
L 241.419602 191.628949 
L 248.770432 190.488992 
L 256.121263 189.427019 
L 263.472093 188.446835 
L 270.822924 187.552179 
L 278.173754 186.746681 
L 285.524585 186.033812 
L 292.875415 185.416952 
L 300.226246 184.899197 
L 307.577076 184.483461 
L 314.927907 184.172359 
L 322.278737 183.968236 
L 329.629568 183.873073 
L 336.980398 183.88854 
L 344.331229 184.01592 
L 351.682059 184.256143 
L 359.03289 184.60972 
L 366.38372 185.076794 
L 373.734551 185.657111 
L 381.085381 186.350055 
L 388.436212 187.154698 
L 395.787042 188.069644 
L 403.137873 189.093337 
L 410.488703 190.22387 
L 417.839534 191.459093 
L 425.190364 192.796623 
L 432.541195 194.233942 
L 439.892025 195.768346 
L 447.242856 197.397045 
L 454.593686 199.117059 
L 461.944517 200.92558 
L 469.295347 202.819541 
L 476.646178 204.795989 
L 483.997008 206.851986 
L 491.347839 208.984597 
L 498.698669 211.191058 
L 506.0495 213.46854 
" style="fill:none;stroke:#fc8d62;stroke-linecap:square;stroke-width:2.5;"/>
   </g>
   <g id="line2d_34">
    <path clip-path="url(#p9431188cf7)" d="M 72.3505 352.983085 
L 79.701331 352.45578 
L 87.052161 351.925628 
L 94.402992 351.393096 
L 101.753822 350.858714 
L 109.104653 350.322989 
L 116.455483 349.786502 
L 123.806314 349.249845 
L 131.157144 348.71361 
L 138.507975 348.178388 
L 145.858805 347.644887 
L 153.209636 347.113775 
L 160.560466 346.585707 
L 167.911297 346.061443 
L 175.262127 345.54168 
L 182.612958 345.02716 
L 189.963788 344.518671 
L 197.314619 344.016945 
L 204.665449 343.522751 
L 212.01628 343.036882 
L 219.36711 342.560118 
L 226.717941 342.093221 
L 234.068771 341.636921 
L 241.419602 341.192018 
L 248.770432 340.759212 
L 256.121263 340.339215 
L 263.472093 339.932699 
L 270.822924 339.54032 
L 278.173754 339.162679 
L 285.524585 338.800311 
L 292.875415 338.45375 
L 300.226246 338.12344 
L 307.577076 337.809787 
L 314.927907 337.513122 
L 322.278737 337.233715 
L 329.629568 336.971748 
L 336.980398 336.727375 
L 344.331229 336.500657 
L 351.682059 336.291609 
L 359.03289 336.10016 
L 366.38372 335.926193 
L 373.734551 335.769518 
L 381.085381 335.629911 
L 388.436212 335.507141 
L 395.787042 335.400805 
L 403.137873 335.310619 
L 410.488703 335.236194 
L 417.839534 335.177138 
L 425.190364 335.133021 
L 432.541195 335.103458 
L 439.892025 335.088022 
L 447.242856 335.08633 
L 454.593686 335.0979 
L 461.944517 335.122478 
L 469.295347 335.159619 
L 476.646178 335.209008 
L 483.997008 335.270347 
L 491.347839 335.343336 
L 498.698669 335.427811 
L 506.0495 335.523509 
" style="fill:none;stroke:#fc8d62;stroke-dasharray:9.25,4;stroke-dashoffset:0;stroke-width:2.5;"/>
   </g>
   <g id="line2d_35">
    <path clip-path="url(#p9431188cf7)" d="M 72.3505 255.452732 
L 79.701331 253.974195 
L 87.052161 252.508034 
L 94.402992 251.055511 
L 101.753822 249.617967 
L 109.104653 248.196834 
L 116.455483 246.793632 
L 123.806314 245.409973 
L 131.157144 244.04756 
L 138.507975 242.708205 
L 145.858805 241.393816 
L 153.209636 240.106406 
L 160.560466 238.848088 
L 167.911297 237.621092 
L 175.262127 236.427753 
L 182.612958 235.270505 
L 189.963788 234.151894 
L 197.314619 233.074564 
L 204.665449 232.041257 
L 212.01628 231.054807 
L 219.36711 230.118132 
L 226.717941 229.234214 
L 234.068771 228.406113 
L 241.419602 227.636931 
L 248.770432 226.92978 
L 256.121263 226.287804 
L 263.472093 225.714136 
L 270.822924 225.211859 
L 278.173754 224.784002 
L 285.524585 224.433502 
L 292.875415 224.163202 
L 300.226246 223.975758 
L 307.577076 223.873675 
L 314.927907 223.859237 
L 322.278737 223.934521 
L 329.629568 224.101325 
L 336.980398 224.361165 
L 344.331229 224.715263 
L 351.682059 225.164534 
L 359.03289 225.70956 
L 366.38372 226.350601 
L 373.734551 227.087593 
L 381.085381 227.920144 
L 388.436212 228.847557 
L 395.787042 229.868838 
L 403.137873 230.982718 
L 410.488703 232.187676 
L 417.839534 233.481955 
L 425.190364 234.863602 
L 432.541195 236.330485 
L 439.892025 237.880324 
L 447.242856 239.510715 
L 454.593686 241.219159 
L 461.944517 243.003102 
L 469.295347 244.859922 
L 476.646178 246.786981 
L 483.997008 248.781639 
L 491.347839 250.841261 
L 498.698669 252.963248 
L 506.0495 255.145031 
" style="fill:none;stroke:#fc8d62;stroke-dasharray:2.5,4.125;stroke-dashoffset:0;stroke-width:2.5;"/>
   </g>
   <g id="line2d_36">
    <defs>
     <path d="M 0 4 
C 1.060812 4 2.078319 3.578535 2.828427 2.828427 
C 3.578535 2.078319 4 1.060812 4 0 
C 4 -1.060812 3.578535 -2.078319 2.828427 -2.828427 
C 2.078319 -3.578535 1.060812 -4 0 -4 
C -1.060812 -4 -2.078319 -3.578535 -2.828427 -2.828427 
C -3.578535 -2.078319 -4 -1.060812 -4 0 
C -4 1.060812 -3.578535 2.078319 -2.828427 2.828427 
C -2.078319 3.578535 -1.060812 4 0 4 
z
" id="m3869ceadef" style="stroke:#fc8d62;"/>
    </defs>
    <g clip-path="url(#p9431188cf7)">
     <use style="fill:#fc8d62;stroke:#fc8d62;" x="329.629568" xlink:href="#m3869ceadef" y="183.873073"/>
    </g>
   </g>
   <g id="line2d_37">
    <g clip-path="url(#p9431188cf7)">
     <use style="fill:#fc8d62;stroke:#fc8d62;" x="447.242856" xlink:href="#m3869ceadef" y="335.08633"/>
    </g>
   </g>
   <g id="line2d_38">
    <g clip-path="url(#p9431188cf7)">
     <use style="fill:#fc8d62;stroke:#fc8d62;" x="314.927907" xlink:href="#m3869ceadef" y="223.859237"/>
    </g>
   </g>
   <g id="patch_3">
    <path d="M 67.925 377.2 
L 67.925 29.8 
" style="fill:none;stroke:#000000;stroke-linecap:square;stroke-linejoin:miter;stroke-width:0.8;"/>
   </g>
   <g id="patch_4">
    <path d="M 510.475 377.2 
L 510.475 29.8 
" style="fill:none;stroke:#000000;stroke-linecap:square;stroke-linejoin:miter;stroke-width:0.8;"/>
   </g>
   <g id="patch_5">
    <path d="M 67.925 377.2 
L 510.475 377.2 
" style="fill:none;stroke:#000000;stroke-linecap:square;stroke-linejoin:miter;stroke-width:0.8;"/>
   </g>
   <g id="patch_6">
    <path d="M 67.925 29.8 
L 510.475 29.8 
" style="fill:none;stroke:#000000;stroke-linecap:square;stroke-linejoin:miter;stroke-width:0.8;"/>
   </g>
   <g id="text_19">
    <!-- (A) -->
    <g transform="translate(76.776 65.840875)scale(0.2 -0.2)">
     <defs>
      <path d="M 2413 -844 
L 1484 -844 
Q 1006 -72 778 623 
Q 550 1319 550 2003 
Q 550 2688 779 3389 
Q 1009 4091 1484 4856 
L 2413 4856 
Q 2013 4116 1813 3408 
Q 1613 2700 1613 2009 
Q 1613 1319 1811 609 
Q 2009 -100 2413 -844 
z
" id="DejaVuSans-Bold-28" transform="scale(0.015625)"/>
      <path d="M 3419 850 
L 1538 850 
L 1241 0 
L 31 0 
L 1759 4666 
L 3194 4666 
L 4922 0 
L 3713 0 
L 3419 850 
z
M 1838 1716 
L 3116 1716 
L 2478 3572 
L 1838 1716 
z
" id="DejaVuSans-Bold-41" transform="scale(0.015625)"/>
      <path d="M 513 -844 
Q 913 -100 1113 609 
Q 1313 1319 1313 2009 
Q 1313 2700 1113 3408 
Q 913 4116 513 4856 
L 1441 4856 
Q 1916 4091 2145 3389 
Q 2375 2688 2375 2003 
Q 2375 1319 2147 623 
Q 1919 -72 1441 -844 
L 513 -844 
z
" id="DejaVuSans-Bold-29" transform="scale(0.015625)"/>
     </defs>
     <use xlink:href="#DejaVuSans-Bold-28"/>
     <use x="45.703125" xlink:href="#DejaVuSans-Bold-41"/>
     <use x="123.095703" xlink:href="#DejaVuSans-Bold-29"/>
    </g>
   </g>
   <g id="text_20">
    <!-- fixed cost $\Lambda=0.5$ -->
    <g transform="translate(219.68 23.8)scale(0.16 -0.16)">
     <defs>
      <path d="M 3513 3500 
L 2247 1797 
L 3578 0 
L 2900 0 
L 1881 1375 
L 863 0 
L 184 0 
L 1544 1831 
L 300 3500 
L 978 3500 
L 1906 2253 
L 2834 3500 
L 3513 3500 
z
" id="DejaVuSans-78" transform="scale(0.015625)"/>
      <path d="M 716 0 
L 50 0 
L 1831 4666 
L 2547 4666 
L 4325 0 
L 3669 0 
L 2188 4044 
L 716 0 
z
" id="DejaVuSans-39b" transform="scale(0.015625)"/>
      <path d="M 678 2906 
L 4684 2906 
L 4684 2381 
L 678 2381 
L 678 2906 
z
M 678 1631 
L 4684 1631 
L 4684 1100 
L 678 1100 
L 678 1631 
z
" id="DejaVuSans-3d" transform="scale(0.015625)"/>
     </defs>
     <use transform="translate(0 0.015625)" xlink:href="#DejaVuSans-66"/>
     <use transform="translate(35.205078 0.015625)" xlink:href="#DejaVuSans-69"/>
     <use transform="translate(62.988281 0.015625)" xlink:href="#DejaVuSans-78"/>
     <use transform="translate(122.167969 0.015625)" xlink:href="#DejaVuSans-65"/>
     <use transform="translate(183.691406 0.015625)" xlink:href="#DejaVuSans-64"/>
     <use transform="translate(247.167969 0.015625)" xlink:href="#DejaVuSans-20"/>
     <use transform="translate(278.955078 0.015625)" xlink:href="#DejaVuSans-63"/>
     <use transform="translate(333.935547 0.015625)" xlink:href="#DejaVuSans-6f"/>
     <use transform="translate(395.117188 0.015625)" xlink:href="#DejaVuSans-73"/>
     <use transform="translate(447.216797 0.015625)" xlink:href="#DejaVuSans-74"/>
     <use transform="translate(486.425781 0.015625)" xlink:href="#DejaVuSans-20"/>
     <use transform="translate(518.212891 0.015625)" xlink:href="#DejaVuSans-39b"/>
     <use transform="translate(606.103516 0.015625)" xlink:href="#DejaVuSans-3d"/>
     <use transform="translate(709.375 0.015625)" xlink:href="#DejaVuSans-30"/>
     <use transform="translate(772.998047 0.015625)" xlink:href="#DejaVuSans-2e"/>
     <use transform="translate(804.785156 0.015625)" xlink:href="#DejaVuSans-35"/>
    </g>
   </g>
   <g id="legend_1">
    <g id="patch_7">
     <path d="M 259.120313 102.648125 
L 500.675 102.648125 
Q 503.475 102.648125 503.475 99.848125 
L 503.475 39.6 
Q 503.475 36.8 500.675 36.8 
L 259.120313 36.8 
Q 256.320313 36.8 256.320313 39.6 
L 256.320313 99.848125 
Q 256.320313 102.648125 259.120313 102.648125 
z
" style="fill:#ffffff;opacity:0.8;stroke:#cccccc;stroke-linejoin:miter;"/>
    </g>
    <g id="line2d_39">
     <path d="M 261.920313 48.137812 
L 289.920313 48.137812 
" style="fill:none;stroke:#fc8d62;stroke-linecap:square;stroke-width:2.5;"/>
    </g>
    <g id="line2d_40"/>
    <g id="text_21">
     <!-- overall system performance -->
     <g transform="translate(301.120313 53.037812)scale(0.14 -0.14)">
      <use xlink:href="#DejaVuSans-6f"/>
      <use x="61.181641" xlink:href="#DejaVuSans-76"/>
      <use x="120.361328" xlink:href="#DejaVuSans-65"/>
      <use x="181.884766" xlink:href="#DejaVuSans-72"/>
      <use x="222.998047" xlink:href="#DejaVuSans-61"/>
      <use x="284.277344" xlink:href="#DejaVuSans-6c"/>
      <use x="312.060547" xlink:href="#DejaVuSans-6c"/>
      <use x="339.84375" xlink:href="#DejaVuSans-20"/>
      <use x="371.630859" xlink:href="#DejaVuSans-73"/>
      <use x="423.730469" xlink:href="#DejaVuSans-79"/>
      <use x="482.910156" xlink:href="#DejaVuSans-73"/>
      <use x="535.009766" xlink:href="#DejaVuSans-74"/>
      <use x="574.21875" xlink:href="#DejaVuSans-65"/>
      <use x="635.742188" xlink:href="#DejaVuSans-6d"/>
      <use x="733.154297" xlink:href="#DejaVuSans-20"/>
      <use x="764.941406" xlink:href="#DejaVuSans-70"/>
      <use x="828.417969" xlink:href="#DejaVuSans-65"/>
      <use x="889.941406" xlink:href="#DejaVuSans-72"/>
      <use x="931.054688" xlink:href="#DejaVuSans-66"/>
      <use x="966.259766" xlink:href="#DejaVuSans-6f"/>
      <use x="1027.441406" xlink:href="#DejaVuSans-72"/>
      <use x="1066.804688" xlink:href="#DejaVuSans-6d"/>
      <use x="1164.216797" xlink:href="#DejaVuSans-61"/>
      <use x="1225.496094" xlink:href="#DejaVuSans-6e"/>
      <use x="1288.875" xlink:href="#DejaVuSans-63"/>
      <use x="1343.855469" xlink:href="#DejaVuSans-65"/>
     </g>
    </g>
    <g id="line2d_41">
     <path d="M 261.920313 68.687187 
L 289.920313 68.687187 
" style="fill:none;stroke:#fc8d62;stroke-dasharray:9.25,4;stroke-dashoffset:0;stroke-width:2.5;"/>
    </g>
    <g id="line2d_42"/>
    <g id="text_22">
     <!-- crop yield -->
     <g transform="translate(301.120313 73.587187)scale(0.14 -0.14)">
      <use xlink:href="#DejaVuSans-63"/>
      <use x="54.980469" xlink:href="#DejaVuSans-72"/>
      <use x="93.84375" xlink:href="#DejaVuSans-6f"/>
      <use x="155.025391" xlink:href="#DejaVuSans-70"/>
      <use x="218.501953" xlink:href="#DejaVuSans-20"/>
      <use x="250.289062" xlink:href="#DejaVuSans-79"/>
      <use x="309.46875" xlink:href="#DejaVuSans-69"/>
      <use x="337.251953" xlink:href="#DejaVuSans-65"/>
      <use x="398.775391" xlink:href="#DejaVuSans-6c"/>
      <use x="426.558594" xlink:href="#DejaVuSans-64"/>
     </g>
    </g>
    <g id="line2d_43">
     <path d="M 261.920313 89.236562 
L 289.920313 89.236562 
" style="fill:none;stroke:#fc8d62;stroke-dasharray:2.5,4.125;stroke-dashoffset:0;stroke-width:2.5;"/>
    </g>
    <g id="line2d_44"/>
    <g id="text_23">
     <!-- wild plants utility -->
     <g transform="translate(301.120313 94.136562)scale(0.14 -0.14)">
      <defs>
       <path d="M 269 3500 
L 844 3500 
L 1563 769 
L 2278 3500 
L 2956 3500 
L 3675 769 
L 4391 3500 
L 4966 3500 
L 4050 0 
L 3372 0 
L 2619 2869 
L 1863 0 
L 1184 0 
L 269 3500 
z
" id="DejaVuSans-77" transform="scale(0.015625)"/>
       <path d="M 544 1381 
L 544 3500 
L 1119 3500 
L 1119 1403 
Q 1119 906 1312 657 
Q 1506 409 1894 409 
Q 2359 409 2629 706 
Q 2900 1003 2900 1516 
L 2900 3500 
L 3475 3500 
L 3475 0 
L 2900 0 
L 2900 538 
Q 2691 219 2414 64 
Q 2138 -91 1772 -91 
Q 1169 -91 856 284 
Q 544 659 544 1381 
z
M 1991 3584 
L 1991 3584 
z
" id="DejaVuSans-75" transform="scale(0.015625)"/>
      </defs>
      <use xlink:href="#DejaVuSans-77"/>
      <use x="81.787109" xlink:href="#DejaVuSans-69"/>
      <use x="109.570312" xlink:href="#DejaVuSans-6c"/>
      <use x="137.353516" xlink:href="#DejaVuSans-64"/>
      <use x="200.830078" xlink:href="#DejaVuSans-20"/>
      <use x="232.617188" xlink:href="#DejaVuSans-70"/>
      <use x="296.09375" xlink:href="#DejaVuSans-6c"/>
      <use x="323.876953" xlink:href="#DejaVuSans-61"/>
      <use x="385.15625" xlink:href="#DejaVuSans-6e"/>
      <use x="448.535156" xlink:href="#DejaVuSans-74"/>
      <use x="487.744141" xlink:href="#DejaVuSans-73"/>
      <use x="539.84375" xlink:href="#DejaVuSans-20"/>
      <use x="571.630859" xlink:href="#DejaVuSans-75"/>
      <use x="635.009766" xlink:href="#DejaVuSans-74"/>
      <use x="674.21875" xlink:href="#DejaVuSans-69"/>
      <use x="702.001953" xlink:href="#DejaVuSans-6c"/>
      <use x="729.785156" xlink:href="#DejaVuSans-69"/>
      <use x="757.568359" xlink:href="#DejaVuSans-74"/>
      <use x="796.777344" xlink:href="#DejaVuSans-79"/>
     </g>
    </g>
   </g>
  </g>
  <g id="axes_2">
   <g id="patch_8">
    <path d="M 543.525 377.2 
L 986.075 377.2 
L 986.075 29.8 
L 543.525 29.8 
z
" style="fill:#ffffff;"/>
   </g>
   <g id="matplotlib.axis_3">
    <g id="xtick_7">
     <g id="line2d_45">
      <path clip-path="url(#p1d91ad74bc)" d="M 543.525 377.2 
L 543.525 29.8 
" style="fill:none;stroke:#b0b0b0;stroke-linecap:square;stroke-width:0.8;"/>
     </g>
     <g id="line2d_46">
      <g>
       <use style="stroke:#000000;stroke-width:0.8;" x="543.525" xlink:href="#m4d6f3c9b64" y="377.2"/>
      </g>
     </g>
     <g id="text_24">
      <!-- 0.0 -->
      <g transform="translate(532.392813 394.837812)scale(0.14 -0.14)">
       <use xlink:href="#DejaVuSans-30"/>
       <use x="63.623047" xlink:href="#DejaVuSans-2e"/>
       <use x="95.410156" xlink:href="#DejaVuSans-30"/>
      </g>
     </g>
    </g>
    <g id="xtick_8">
     <g id="line2d_47">
      <path clip-path="url(#p1d91ad74bc)" d="M 632.035 377.2 
L 632.035 29.8 
" style="fill:none;stroke:#b0b0b0;stroke-linecap:square;stroke-width:0.8;"/>
     </g>
     <g id="line2d_48">
      <g>
       <use style="stroke:#000000;stroke-width:0.8;" x="632.035" xlink:href="#m4d6f3c9b64" y="377.2"/>
      </g>
     </g>
     <g id="text_25">
      <!-- 0.2 -->
      <g transform="translate(620.902813 394.837812)scale(0.14 -0.14)">
       <use xlink:href="#DejaVuSans-30"/>
       <use x="63.623047" xlink:href="#DejaVuSans-2e"/>
       <use x="95.410156" xlink:href="#DejaVuSans-32"/>
      </g>
     </g>
    </g>
    <g id="xtick_9">
     <g id="line2d_49">
      <path clip-path="url(#p1d91ad74bc)" d="M 720.545 377.2 
L 720.545 29.8 
" style="fill:none;stroke:#b0b0b0;stroke-linecap:square;stroke-width:0.8;"/>
     </g>
     <g id="line2d_50">
      <g>
       <use style="stroke:#000000;stroke-width:0.8;" x="720.545" xlink:href="#m4d6f3c9b64" y="377.2"/>
      </g>
     </g>
     <g id="text_26">
      <!-- 0.4 -->
      <g transform="translate(709.412813 394.837812)scale(0.14 -0.14)">
       <use xlink:href="#DejaVuSans-30"/>
       <use x="63.623047" xlink:href="#DejaVuSans-2e"/>
       <use x="95.410156" xlink:href="#DejaVuSans-34"/>
      </g>
     </g>
    </g>
    <g id="xtick_10">
     <g id="line2d_51">
      <path clip-path="url(#p1d91ad74bc)" d="M 809.055 377.2 
L 809.055 29.8 
" style="fill:none;stroke:#b0b0b0;stroke-linecap:square;stroke-width:0.8;"/>
     </g>
     <g id="line2d_52">
      <g>
       <use style="stroke:#000000;stroke-width:0.8;" x="809.055" xlink:href="#m4d6f3c9b64" y="377.2"/>
      </g>
     </g>
     <g id="text_27">
      <!-- 0.6 -->
      <g transform="translate(797.922813 394.837812)scale(0.14 -0.14)">
       <use xlink:href="#DejaVuSans-30"/>
       <use x="63.623047" xlink:href="#DejaVuSans-2e"/>
       <use x="95.410156" xlink:href="#DejaVuSans-36"/>
      </g>
     </g>
    </g>
    <g id="xtick_11">
     <g id="line2d_53">
      <path clip-path="url(#p1d91ad74bc)" d="M 897.565 377.2 
L 897.565 29.8 
" style="fill:none;stroke:#b0b0b0;stroke-linecap:square;stroke-width:0.8;"/>
     </g>
     <g id="line2d_54">
      <g>
       <use style="stroke:#000000;stroke-width:0.8;" x="897.565" xlink:href="#m4d6f3c9b64" y="377.2"/>
      </g>
     </g>
     <g id="text_28">
      <!-- 0.8 -->
      <g transform="translate(886.432813 394.837812)scale(0.14 -0.14)">
       <use xlink:href="#DejaVuSans-30"/>
       <use x="63.623047" xlink:href="#DejaVuSans-2e"/>
       <use x="95.410156" xlink:href="#DejaVuSans-38"/>
      </g>
     </g>
    </g>
    <g id="xtick_12">
     <g id="line2d_55">
      <path clip-path="url(#p1d91ad74bc)" d="M 986.075 377.2 
L 986.075 29.8 
" style="fill:none;stroke:#b0b0b0;stroke-linecap:square;stroke-width:0.8;"/>
     </g>
     <g id="line2d_56">
      <g>
       <use style="stroke:#000000;stroke-width:0.8;" x="986.075" xlink:href="#m4d6f3c9b64" y="377.2"/>
      </g>
     </g>
     <g id="text_29">
      <!-- 1.0 -->
      <g transform="translate(974.942813 394.837812)scale(0.14 -0.14)">
       <use xlink:href="#DejaVuSans-31"/>
       <use x="63.623047" xlink:href="#DejaVuSans-2e"/>
       <use x="95.410156" xlink:href="#DejaVuSans-30"/>
      </g>
     </g>
    </g>
    <g id="text_30">
     <!-- proportion of cost allocated to crop $\pi$ -->
     <g transform="translate(616.16 413.909375)scale(0.16 -0.16)">
      <use transform="translate(0 0.015625)" xlink:href="#DejaVuSans-70"/>
      <use transform="translate(63.476562 0.015625)" xlink:href="#DejaVuSans-72"/>
      <use transform="translate(104.589844 0.015625)" xlink:href="#DejaVuSans-6f"/>
      <use transform="translate(165.771484 0.015625)" xlink:href="#DejaVuSans-70"/>
      <use transform="translate(229.248047 0.015625)" xlink:href="#DejaVuSans-6f"/>
      <use transform="translate(290.429688 0.015625)" xlink:href="#DejaVuSans-72"/>
      <use transform="translate(331.542969 0.015625)" xlink:href="#DejaVuSans-74"/>
      <use transform="translate(370.751953 0.015625)" xlink:href="#DejaVuSans-69"/>
      <use transform="translate(398.535156 0.015625)" xlink:href="#DejaVuSans-6f"/>
      <use transform="translate(459.716797 0.015625)" xlink:href="#DejaVuSans-6e"/>
      <use transform="translate(523.095703 0.015625)" xlink:href="#DejaVuSans-20"/>
      <use transform="translate(554.882812 0.015625)" xlink:href="#DejaVuSans-6f"/>
      <use transform="translate(616.064453 0.015625)" xlink:href="#DejaVuSans-66"/>
      <use transform="translate(651.269531 0.015625)" xlink:href="#DejaVuSans-20"/>
      <use transform="translate(683.056641 0.015625)" xlink:href="#DejaVuSans-63"/>
      <use transform="translate(738.037109 0.015625)" xlink:href="#DejaVuSans-6f"/>
      <use transform="translate(799.21875 0.015625)" xlink:href="#DejaVuSans-73"/>
      <use transform="translate(851.318359 0.015625)" xlink:href="#DejaVuSans-74"/>
      <use transform="translate(890.527344 0.015625)" xlink:href="#DejaVuSans-20"/>
      <use transform="translate(922.314453 0.015625)" xlink:href="#DejaVuSans-61"/>
      <use transform="translate(983.59375 0.015625)" xlink:href="#DejaVuSans-6c"/>
      <use transform="translate(1011.376953 0.015625)" xlink:href="#DejaVuSans-6c"/>
      <use transform="translate(1039.160156 0.015625)" xlink:href="#DejaVuSans-6f"/>
      <use transform="translate(1100.341797 0.015625)" xlink:href="#DejaVuSans-63"/>
      <use transform="translate(1155.322266 0.015625)" xlink:href="#DejaVuSans-61"/>
      <use transform="translate(1216.601562 0.015625)" xlink:href="#DejaVuSans-74"/>
      <use transform="translate(1255.810547 0.015625)" xlink:href="#DejaVuSans-65"/>
      <use transform="translate(1317.333984 0.015625)" xlink:href="#DejaVuSans-64"/>
      <use transform="translate(1380.810547 0.015625)" xlink:href="#DejaVuSans-20"/>
      <use transform="translate(1412.597656 0.015625)" xlink:href="#DejaVuSans-74"/>
      <use transform="translate(1451.806641 0.015625)" xlink:href="#DejaVuSans-6f"/>
      <use transform="translate(1512.988281 0.015625)" xlink:href="#DejaVuSans-20"/>
      <use transform="translate(1544.775391 0.015625)" xlink:href="#DejaVuSans-63"/>
      <use transform="translate(1599.755859 0.015625)" xlink:href="#DejaVuSans-72"/>
      <use transform="translate(1640.869141 0.015625)" xlink:href="#DejaVuSans-6f"/>
      <use transform="translate(1702.050781 0.015625)" xlink:href="#DejaVuSans-70"/>
      <use transform="translate(1765.527344 0.015625)" xlink:href="#DejaVuSans-20"/>
      <use transform="translate(1797.314453 0.015625)" xlink:href="#DejaVuSans-Oblique-3c0"/>
     </g>
    </g>
   </g>
   <g id="matplotlib.axis_4">
    <g id="ytick_11">
     <g id="line2d_57">
      <path clip-path="url(#p1d91ad74bc)" d="M 543.525 377.2 
L 986.075 377.2 
" style="fill:none;stroke:#b0b0b0;stroke-linecap:square;stroke-width:0.8;"/>
     </g>
     <g id="line2d_58">
      <g>
       <use style="stroke:#000000;stroke-width:0.8;" x="543.525" xlink:href="#mef383f7ba0" y="377.2"/>
      </g>
     </g>
    </g>
    <g id="ytick_12">
     <g id="line2d_59">
      <path clip-path="url(#p1d91ad74bc)" d="M 543.525 338.6 
L 986.075 338.6 
" style="fill:none;stroke:#b0b0b0;stroke-linecap:square;stroke-width:0.8;"/>
     </g>
     <g id="line2d_60">
      <g>
       <use style="stroke:#000000;stroke-width:0.8;" x="543.525" xlink:href="#mef383f7ba0" y="338.6"/>
      </g>
     </g>
    </g>
    <g id="ytick_13">
     <g id="line2d_61">
      <path clip-path="url(#p1d91ad74bc)" d="M 543.525 300 
L 986.075 300 
" style="fill:none;stroke:#b0b0b0;stroke-linecap:square;stroke-width:0.8;"/>
     </g>
     <g id="line2d_62">
      <g>
       <use style="stroke:#000000;stroke-width:0.8;" x="543.525" xlink:href="#mef383f7ba0" y="300"/>
      </g>
     </g>
    </g>
    <g id="ytick_14">
     <g id="line2d_63">
      <path clip-path="url(#p1d91ad74bc)" d="M 543.525 261.4 
L 986.075 261.4 
" style="fill:none;stroke:#b0b0b0;stroke-linecap:square;stroke-width:0.8;"/>
     </g>
     <g id="line2d_64">
      <g>
       <use style="stroke:#000000;stroke-width:0.8;" x="543.525" xlink:href="#mef383f7ba0" y="261.4"/>
      </g>
     </g>
    </g>
    <g id="ytick_15">
     <g id="line2d_65">
      <path clip-path="url(#p1d91ad74bc)" d="M 543.525 222.8 
L 986.075 222.8 
" style="fill:none;stroke:#b0b0b0;stroke-linecap:square;stroke-width:0.8;"/>
     </g>
     <g id="line2d_66">
      <g>
       <use style="stroke:#000000;stroke-width:0.8;" x="543.525" xlink:href="#mef383f7ba0" y="222.8"/>
      </g>
     </g>
    </g>
    <g id="ytick_16">
     <g id="line2d_67">
      <path clip-path="url(#p1d91ad74bc)" d="M 543.525 184.2 
L 986.075 184.2 
" style="fill:none;stroke:#b0b0b0;stroke-linecap:square;stroke-width:0.8;"/>
     </g>
     <g id="line2d_68">
      <g>
       <use style="stroke:#000000;stroke-width:0.8;" x="543.525" xlink:href="#mef383f7ba0" y="184.2"/>
      </g>
     </g>
    </g>
    <g id="ytick_17">
     <g id="line2d_69">
      <path clip-path="url(#p1d91ad74bc)" d="M 543.525 145.6 
L 986.075 145.6 
" style="fill:none;stroke:#b0b0b0;stroke-linecap:square;stroke-width:0.8;"/>
     </g>
     <g id="line2d_70">
      <g>
       <use style="stroke:#000000;stroke-width:0.8;" x="543.525" xlink:href="#mef383f7ba0" y="145.6"/>
      </g>
     </g>
    </g>
    <g id="ytick_18">
     <g id="line2d_71">
      <path clip-path="url(#p1d91ad74bc)" d="M 543.525 107 
L 986.075 107 
" style="fill:none;stroke:#b0b0b0;stroke-linecap:square;stroke-width:0.8;"/>
     </g>
     <g id="line2d_72">
      <g>
       <use style="stroke:#000000;stroke-width:0.8;" x="543.525" xlink:href="#mef383f7ba0" y="107"/>
      </g>
     </g>
    </g>
    <g id="ytick_19">
     <g id="line2d_73">
      <path clip-path="url(#p1d91ad74bc)" d="M 543.525 68.4 
L 986.075 68.4 
" style="fill:none;stroke:#b0b0b0;stroke-linecap:square;stroke-width:0.8;"/>
     </g>
     <g id="line2d_74">
      <g>
       <use style="stroke:#000000;stroke-width:0.8;" x="543.525" xlink:href="#mef383f7ba0" y="68.4"/>
      </g>
     </g>
    </g>
    <g id="ytick_20">
     <g id="line2d_75">
      <path clip-path="url(#p1d91ad74bc)" d="M 543.525 29.8 
L 986.075 29.8 
" style="fill:none;stroke:#b0b0b0;stroke-linecap:square;stroke-width:0.8;"/>
     </g>
     <g id="line2d_76">
      <g>
       <use style="stroke:#000000;stroke-width:0.8;" x="543.525" xlink:href="#mef383f7ba0" y="29.8"/>
      </g>
     </g>
    </g>
   </g>
   <g id="line2d_77">
    <path clip-path="url(#p1d91ad74bc)" d="M 547.9505 297.852492 
L 555.301331 292.521848 
L 562.652161 287.134462 
L 570.002992 281.695111 
L 577.353822 276.208996 
L 584.704653 270.681851 
L 592.055483 265.119943 
L 599.406314 259.530087 
L 606.757144 253.919628 
L 614.107975 248.296426 
L 621.458805 242.66883 
L 628.809636 237.045648 
L 636.160466 231.436122 
L 643.511297 225.849894 
L 650.862127 220.296981 
L 658.212958 214.787749 
L 665.563788 209.332901 
L 672.914619 203.943456 
L 680.265449 198.630759 
L 687.61628 193.40648 
L 694.96711 188.282639 
L 702.317941 183.271638 
L 709.668771 178.386305 
L 717.019602 173.639952 
L 724.370432 169.046442 
L 731.721263 164.620263 
L 739.072093 160.376606 
L 746.422924 156.331437 
L 753.773754 152.501559 
L 761.124585 148.904642 
L 768.475415 145.559222 
L 775.826246 142.484628 
L 783.177076 139.700838 
L 790.527907 137.228239 
L 797.878737 135.087271 
L 805.229568 133.297933 
L 812.580398 131.879206 
L 819.931229 130.848351 
L 827.282059 130.220171 
L 834.63289 130.006283 
L 841.98372 130.214476 
L 849.334551 130.848234 
L 856.685381 131.906488 
L 864.036212 133.38362 
L 871.387042 135.269738 
L 878.737873 137.551175 
L 886.088703 140.211157 
L 893.439534 143.230556 
L 900.790364 146.588675 
L 908.141195 150.263964 
L 915.492025 154.234701 
L 922.842856 158.479494 
L 930.193686 162.977715 
L 937.544517 167.709814 
L 944.895347 172.657521 
L 952.246178 177.803977 
L 959.597008 183.133813 
L 966.947839 188.633169 
L 974.298669 194.289711 
L 981.6495 200.092617 
" style="fill:none;stroke:#8da0cb;stroke-linecap:square;stroke-width:2.5;"/>
   </g>
   <g id="line2d_78">
    <path clip-path="url(#p1d91ad74bc)" d="M 547.9505 351.127101 
L 555.301331 349.906829 
L 562.652161 348.661614 
L 570.002992 347.39406 
L 577.353822 346.107038 
L 584.704653 344.803669 
L 592.055483 343.487315 
L 599.406314 342.161554 
L 606.757144 340.830164 
L 614.107975 339.497091 
L 621.458805 338.166429 
L 628.809636 336.842384 
L 636.160466 335.529247 
L 643.511297 334.231361 
L 650.862127 332.953087 
L 658.212958 331.698778 
L 665.563788 330.472746 
L 672.914619 329.279234 
L 680.265449 328.122394 
L 687.61628 327.006259 
L 694.96711 325.934729 
L 702.317941 324.91155 
L 709.668771 323.940304 
L 717.019602 323.02439 
L 724.370432 322.167021 
L 731.721263 321.371209 
L 739.072093 320.639753 
L 746.422924 319.975227 
L 753.773754 319.379959 
L 761.124585 318.856009 
L 768.475415 318.405134 
L 775.826246 318.028748 
L 783.177076 317.727864 
L 790.527907 317.503038 
L 797.878737 317.354315 
L 805.229568 317.281125 
L 812.580398 317.282255 
L 819.931229 317.355782 
L 827.282059 317.499052 
L 834.63289 317.708688 
L 841.98372 317.980641 
L 849.334551 318.310275 
L 856.685381 318.692507 
L 864.036212 319.121956 
L 871.387042 319.593118 
L 878.737873 320.100537 
L 886.088703 320.638967 
L 893.439534 321.20349 
L 900.790364 321.789632 
L 908.141195 322.393401 
L 915.492025 323.011364 
L 922.842856 323.64062 
L 930.193686 324.278811 
L 937.544517 324.924105 
L 944.895347 325.575173 
L 952.246178 326.231159 
L 959.597008 326.891676 
L 966.947839 327.556791 
L 974.298669 328.227034 
L 981.6495 328.903425 
" style="fill:none;stroke:#8da0cb;stroke-dasharray:9.25,4;stroke-dashoffset:0;stroke-width:2.5;"/>
   </g>
   <g id="line2d_79">
    <path clip-path="url(#p1d91ad74bc)" d="M 547.9505 323.92539 
L 555.301331 319.815019 
L 562.652161 315.672848 
L 570.002992 311.50105 
L 577.353822 307.301958 
L 584.704653 303.078181 
L 592.055483 298.832627 
L 599.406314 294.568532 
L 606.757144 290.289464 
L 614.107975 285.999335 
L 621.458805 281.702401 
L 628.809636 277.403264 
L 636.160466 273.106875 
L 643.511297 268.818533 
L 650.862127 264.543894 
L 658.212958 260.288971 
L 665.563788 256.060155 
L 672.914619 251.864222 
L 680.265449 247.708365 
L 687.61628 243.600221 
L 694.96711 239.54791 
L 702.317941 235.560087 
L 709.668771 231.646001 
L 717.019602 227.815562 
L 724.370432 224.079421 
L 731.721263 220.449054 
L 739.072093 216.936853 
L 746.422924 213.55621 
L 753.773754 210.321599 
L 761.124585 207.248633 
L 768.475415 204.354088 
L 775.826246 201.65588 
L 783.177076 199.172975 
L 790.527907 196.925201 
L 797.878737 194.932956 
L 805.229568 193.216808 
L 812.580398 191.796951 
L 819.931229 190.692569 
L 827.282059 189.921119 
L 834.63289 189.497594 
L 841.98372 189.433835 
L 849.334551 189.737959 
L 856.685381 190.413981 
L 864.036212 191.461664 
L 871.387042 192.876621 
L 878.737873 194.650638 
L 886.088703 196.77219 
L 893.439534 199.227065 
L 900.790364 201.999043 
L 908.141195 205.070563 
L 915.492025 208.423337 
L 922.842856 212.038873 
L 930.193686 215.898904 
L 937.544517 219.985709 
L 944.895347 224.282349 
L 952.246178 228.772819 
L 959.597008 233.442137 
L 966.947839 238.276379 
L 974.298669 243.262677 
L 981.6495 248.389192 
" style="fill:none;stroke:#8da0cb;stroke-dasharray:2.5,4.125;stroke-dashoffset:0;stroke-width:2.5;"/>
   </g>
   <g id="line2d_80">
    <defs>
     <path d="M 0 4 
C 1.060812 4 2.078319 3.578535 2.828427 2.828427 
C 3.578535 2.078319 4 1.060812 4 0 
C 4 -1.060812 3.578535 -2.078319 2.828427 -2.828427 
C 2.078319 -3.578535 1.060812 -4 0 -4 
C -1.060812 -4 -2.078319 -3.578535 -2.828427 -2.828427 
C -3.578535 -2.078319 -4 -1.060812 -4 0 
C -4 1.060812 -3.578535 2.078319 -2.828427 2.828427 
C -2.078319 3.578535 -1.060812 4 0 4 
z
" id="m80df4b59ae" style="stroke:#8da0cb;"/>
    </defs>
    <g clip-path="url(#p1d91ad74bc)">
     <use style="fill:#8da0cb;stroke:#8da0cb;" x="834.63289" xlink:href="#m80df4b59ae" y="130.006283"/>
    </g>
   </g>
   <g id="line2d_81">
    <g clip-path="url(#p1d91ad74bc)">
     <use style="fill:#8da0cb;stroke:#8da0cb;" x="805.229568" xlink:href="#m80df4b59ae" y="317.281125"/>
    </g>
   </g>
   <g id="line2d_82">
    <g clip-path="url(#p1d91ad74bc)">
     <use style="fill:#8da0cb;stroke:#8da0cb;" x="841.98372" xlink:href="#m80df4b59ae" y="189.433835"/>
    </g>
   </g>
   <g id="patch_9">
    <path d="M 543.525 377.2 
L 543.525 29.8 
" style="fill:none;stroke:#000000;stroke-linecap:square;stroke-linejoin:miter;stroke-width:0.8;"/>
   </g>
   <g id="patch_10">
    <path d="M 986.075 377.2 
L 986.075 29.8 
" style="fill:none;stroke:#000000;stroke-linecap:square;stroke-linejoin:miter;stroke-width:0.8;"/>
   </g>
   <g id="patch_11">
    <path d="M 543.525 377.2 
L 986.075 377.2 
" style="fill:none;stroke:#000000;stroke-linecap:square;stroke-linejoin:miter;stroke-width:0.8;"/>
   </g>
   <g id="patch_12">
    <path d="M 543.525 29.8 
L 986.075 29.8 
" style="fill:none;stroke:#000000;stroke-linecap:square;stroke-linejoin:miter;stroke-width:0.8;"/>
   </g>
   <g id="text_31">
    <!-- (B) -->
    <g transform="translate(552.376 65.840875)scale(0.2 -0.2)">
     <defs>
      <path d="M 2456 2859 
Q 2741 2859 2887 2984 
Q 3034 3109 3034 3353 
Q 3034 3594 2887 3720 
Q 2741 3847 2456 3847 
L 1791 3847 
L 1791 2859 
L 2456 2859 
z
M 2497 819 
Q 2859 819 3042 972 
Q 3225 1125 3225 1434 
Q 3225 1738 3044 1889 
Q 2863 2041 2497 2041 
L 1791 2041 
L 1791 819 
L 2497 819 
z
M 3616 2497 
Q 4003 2384 4215 2081 
Q 4428 1778 4428 1338 
Q 4428 663 3972 331 
Q 3516 0 2584 0 
L 588 0 
L 588 4666 
L 2394 4666 
Q 3366 4666 3802 4372 
Q 4238 4078 4238 3431 
Q 4238 3091 4078 2852 
Q 3919 2613 3616 2497 
z
" id="DejaVuSans-Bold-42" transform="scale(0.015625)"/>
     </defs>
     <use xlink:href="#DejaVuSans-Bold-28"/>
     <use x="45.703125" xlink:href="#DejaVuSans-Bold-42"/>
     <use x="121.923828" xlink:href="#DejaVuSans-Bold-29"/>
    </g>
   </g>
   <g id="text_32">
    <!-- fixed cost $\Lambda=1.0$ -->
    <g transform="translate(695.28 23.8)scale(0.16 -0.16)">
     <use transform="translate(0 0.015625)" xlink:href="#DejaVuSans-66"/>
     <use transform="translate(35.205078 0.015625)" xlink:href="#DejaVuSans-69"/>
     <use transform="translate(62.988281 0.015625)" xlink:href="#DejaVuSans-78"/>
     <use transform="translate(122.167969 0.015625)" xlink:href="#DejaVuSans-65"/>
     <use transform="translate(183.691406 0.015625)" xlink:href="#DejaVuSans-64"/>
     <use transform="translate(247.167969 0.015625)" xlink:href="#DejaVuSans-20"/>
     <use transform="translate(278.955078 0.015625)" xlink:href="#DejaVuSans-63"/>
     <use transform="translate(333.935547 0.015625)" xlink:href="#DejaVuSans-6f"/>
     <use transform="translate(395.117188 0.015625)" xlink:href="#DejaVuSans-73"/>
     <use transform="translate(447.216797 0.015625)" xlink:href="#DejaVuSans-74"/>
     <use transform="translate(486.425781 0.015625)" xlink:href="#DejaVuSans-20"/>
     <use transform="translate(518.212891 0.015625)" xlink:href="#DejaVuSans-39b"/>
     <use transform="translate(606.103516 0.015625)" xlink:href="#DejaVuSans-3d"/>
     <use transform="translate(709.375 0.015625)" xlink:href="#DejaVuSans-31"/>
     <use transform="translate(772.998047 0.015625)" xlink:href="#DejaVuSans-2e"/>
     <use transform="translate(804.785156 0.015625)" xlink:href="#DejaVuSans-30"/>
    </g>
   </g>
  </g>
 </g>
 <defs>
  <clipPath id="p9431188cf7">
   <rect height="347.4" width="442.55" x="67.925" y="29.8"/>
  </clipPath>
  <clipPath id="p1d91ad74bc">
   <rect height="347.4" width="442.55" x="543.525" y="29.8"/>
  </clipPath>
 </defs>
</svg>
